<svg width="158" height="158" viewBox="0 0 158 158" fill="none" xmlns="http://www.w3.org/2000/svg">
<path d="M0 157.12H146.5C149.318 157.12 152.02 156.001 154.013 154.01C156.006 152.019 157.127 149.318 157.13 146.5V0H124.23C91.2822 0 59.6838 13.0885 36.3861 36.3861C13.0885 59.6838 0 91.2821 0 124.23V157.12Z" fill="#A0938B"/>
<g opacity="0.7">
<path d="M102.94 119.41L101.72 122.54C100.63 125.32 99.5497 128.11 98.4597 130.89C98.3276 131.264 98.1161 131.605 97.8397 131.89C97.6579 132.097 97.4301 132.258 97.1747 132.36C96.9193 132.463 96.6434 132.504 96.3692 132.481C96.095 132.458 95.83 132.37 95.5956 132.226C95.3613 132.082 95.164 131.884 95.0197 131.65C94.0897 130.25 93.1797 128.83 92.3197 127.38C92.2683 127.25 92.1901 127.132 92.0903 127.034C91.9905 126.936 91.8712 126.86 91.7402 126.811C91.6092 126.762 91.4694 126.741 91.3298 126.75C91.1902 126.758 91.0539 126.796 90.9297 126.86C89.4297 127.31 87.9297 127.69 86.3997 128.09C86.0181 128.226 85.6061 128.254 85.2097 128.17C84.9414 128.115 84.6891 128 84.4713 127.834C84.2536 127.668 84.0761 127.455 83.9521 127.211C83.8281 126.967 83.7608 126.698 83.7552 126.424C83.7496 126.15 83.8058 125.879 83.9197 125.63L86.4097 119.2C86.6897 118.47 86.6797 118.45 85.8997 118.45C75.1097 118.45 64.3197 118.45 53.5297 118.45C51.7097 118.45 49.8897 118.45 48.0597 118.45C46.6931 118.457 45.3679 117.982 44.3178 117.107C43.2676 116.232 42.56 115.015 42.3197 113.67C42.1278 112.762 42.0306 111.837 42.0297 110.91C42.0297 96.8299 42.0297 82.7465 42.0297 68.6599C42.0297 66.8099 41.8497 64.9699 42.0297 63.1199C42.0293 61.5791 42.6316 60.0992 43.708 58.9966C44.7844 57.8941 46.2493 57.2565 47.7897 57.2199C48.7897 57.1399 49.8697 57.0899 50.9097 57.0999H117.67C119.167 57.0393 120.663 57.2598 122.08 57.7499C123.14 58.1233 124.06 58.8138 124.715 59.728C125.37 60.6421 125.728 61.7356 125.74 62.8599C125.87 64.5199 125.74 66.1699 125.74 67.8599C125.74 81.7799 125.74 95.6999 125.74 109.62C125.8 110.898 125.76 112.178 125.62 113.45C125.486 114.719 124.913 115.901 124 116.792C123.087 117.683 121.891 118.227 120.62 118.33C119.19 118.52 119.18 118.52 119.69 119.86C120.41 121.74 121.13 123.62 121.88 125.49C122.071 125.82 122.153 126.202 122.114 126.581C122.074 126.96 121.915 127.317 121.66 127.6C121.395 127.892 121.049 128.099 120.666 128.195C120.284 128.291 119.881 128.272 119.51 128.14C117.95 127.7 116.39 127.32 114.84 126.87C114.731 126.817 114.612 126.786 114.49 126.78C114.369 126.774 114.248 126.792 114.134 126.834C114.02 126.876 113.915 126.941 113.827 127.025C113.739 127.108 113.668 127.208 113.62 127.32C112.75 128.76 111.84 130.18 110.91 131.58C110.75 131.868 110.514 132.106 110.228 132.27C109.943 132.434 109.618 132.516 109.289 132.509C108.959 132.502 108.638 132.405 108.36 132.229C108.082 132.053 107.857 131.804 107.71 131.51C107.467 131.073 107.266 130.614 107.11 130.14C105.776 126.807 104.47 123.45 103.19 120.07C103.18 119.91 103.1 119.76 102.94 119.41ZM83.8397 60.8399H50.6697C49.9397 60.8399 49.1997 60.8399 48.4697 60.8399C48.1286 60.8128 47.7856 60.8583 47.4633 60.9735C47.1411 61.0886 46.8469 61.2708 46.6003 61.508C46.3536 61.7452 46.1601 62.0321 46.0324 62.3496C45.9048 62.6671 45.8459 63.008 45.8597 63.3499C45.8347 63.7996 45.8347 64.2502 45.8597 64.6999C45.8597 78.4999 45.8597 92.2999 45.8597 106.1C45.8597 107.83 45.7297 109.56 45.7597 111.29C45.7597 113.79 46.7597 114.73 49.2697 114.83C50.1697 114.83 51.0697 114.83 51.9697 114.83C52.5797 114.83 53.1997 114.74 53.8097 114.74H71.9497C77.0997 114.74 82.2397 114.74 87.3897 114.74C87.6566 114.782 87.9293 114.72 88.1524 114.568C88.3754 114.416 88.5318 114.184 88.5897 113.92C88.8297 113.16 89.1497 112.41 89.4597 111.67C89.6597 111.2 89.6397 110.97 89.0397 110.86C86.7797 110.42 85.7797 108.86 86.1697 106.6C86.4099 105.489 86.7069 104.391 87.0597 103.31C87.1169 103.186 87.1482 103.052 87.1518 102.916C87.1554 102.78 87.1312 102.645 87.0807 102.518C87.0301 102.392 86.9543 102.277 86.8578 102.181C86.7614 102.085 86.6463 102.01 86.5197 101.96C85.5197 101.4 84.5797 100.84 83.6797 100.2C83.2357 99.9289 82.86 99.5593 82.5818 99.1198C82.3035 98.6803 82.1301 98.1827 82.075 97.6655C82.0199 97.1482 82.0846 96.6253 82.264 96.137C82.4434 95.6488 82.7328 95.2084 83.1097 94.8499C83.9391 94.0338 84.8319 93.2848 85.7797 92.6099C86.6097 91.9399 86.6297 91.8599 86.2297 90.8799C85.6871 89.7705 85.2615 88.6074 84.9597 87.4099C84.8543 86.9772 84.838 86.5276 84.912 86.0884C84.986 85.6493 85.1487 85.2297 85.3901 84.8554C85.6315 84.4811 85.9466 84.16 86.3161 83.9114C86.6857 83.6629 87.102 83.4922 87.5397 83.4099C88.7717 83.1501 90.0332 83.0593 91.2897 83.14C91.4476 83.1623 91.6084 83.1519 91.7621 83.1093C91.9157 83.0667 92.059 82.9929 92.1828 82.8925C92.3067 82.7921 92.4085 82.6672 92.482 82.5257C92.5554 82.3842 92.5989 82.229 92.6097 82.0699C92.7858 80.9699 93.0637 79.8886 93.4397 78.8399C93.5815 78.3254 93.8415 77.8511 94.1989 77.4547C94.5563 77.0583 95.0012 76.7507 95.4984 76.5565C95.9955 76.3623 96.5311 76.2868 97.0626 76.336C97.594 76.3852 98.1067 76.5577 98.5597 76.8399C99.5698 77.368 100.527 77.9907 101.42 78.6999C101.525 78.8015 101.65 78.88 101.787 78.9304C101.925 78.9808 102.071 79.0019 102.217 78.9925C102.363 78.9831 102.505 78.9433 102.635 78.8757C102.764 78.8081 102.878 78.7142 102.97 78.5999C103.846 77.732 104.807 76.9547 105.84 76.2799C106.483 75.84 107.262 75.6438 108.038 75.7263C108.813 75.8087 109.533 76.1645 110.07 76.7299C110.599 77.308 111.004 77.9888 111.26 78.7299C111.54 79.5399 111.83 80.34 112.11 81.15C112.165 81.3849 112.31 81.5889 112.514 81.718C112.717 81.847 112.964 81.8908 113.2 81.8399C114 81.7499 114.8 81.6799 115.6 81.6199C119.18 81.3199 120.94 83.4499 120.04 86.6199C119.79 87.4899 119.57 88.3599 119.28 89.2199C119.224 89.3429 119.194 89.4759 119.191 89.6109C119.189 89.7459 119.213 89.88 119.264 90.0052C119.314 90.1304 119.389 90.2441 119.485 90.3394C119.58 90.4348 119.694 90.5097 119.82 90.5599C120.42 90.8999 121.01 91.2599 121.59 91.6299C122.17 91.9999 122.12 91.7299 122.11 91.3099C122.11 91.1499 122.11 90.9799 122.11 90.8099V63.7099C122.11 63.4499 122.11 63.1899 122.11 62.9299C122.101 62.4324 121.911 61.9552 121.576 61.5872C121.241 61.2192 120.784 60.9856 120.29 60.9299C119.682 60.8282 119.066 60.7814 118.45 60.7899L83.8397 60.8399ZM116.34 85.77C116.42 85.37 116.19 85.3099 115.89 85.3399C115.22 85.3999 114.56 85.4599 113.89 85.5399C110.98 85.9099 109.41 84.9499 108.43 82.1899C108.19 81.5499 107.94 80.9099 107.74 80.2499C107.54 79.5899 107.33 79.6598 106.92 80.0299C106.51 80.3999 105.81 81.0299 105.26 81.4799C103.26 83.1799 101.6 83.2999 99.4297 81.9099C98.7097 81.4499 97.9997 80.9699 97.3097 80.4699C96.8697 80.1699 96.6897 80.3199 96.5897 80.7799C96.3697 81.7799 96.1497 82.7799 95.8697 83.7799C95.6943 84.5776 95.269 85.2986 94.6558 85.8381C94.0425 86.3776 93.2733 86.7075 92.4597 86.7799C91.4234 86.8897 90.3817 86.9398 89.3397 86.9299C88.6197 86.9299 88.5497 87.0699 88.8197 87.7399C89.1897 88.6599 89.6197 89.57 89.9297 90.51C90.2385 91.2915 90.2846 92.1523 90.0609 92.9623C89.8372 93.7724 89.3559 94.4876 88.6897 94.9999C87.9197 95.6599 87.1097 96.2799 86.3097 96.9099C85.9297 97.1999 85.9597 97.4 86.3097 97.64C86.9997 98.04 87.6997 98.44 88.3797 98.89C90.5797 100.33 91.1697 101.89 90.4797 104.42C90.2797 105.16 90.0597 105.88 89.8297 106.61C89.6797 107.09 89.8297 107.25 90.3397 107.23C91.3397 107.23 92.3397 107.05 93.3897 107.04C94.2138 106.985 95.034 107.193 95.7328 107.633C96.4316 108.073 96.9731 108.723 97.2797 109.49C97.7197 110.41 97.9797 111.4 98.3497 112.35C98.5497 112.86 98.7697 112.95 99.2197 112.55C99.9641 111.843 100.745 111.175 101.56 110.55C102.186 110.049 102.952 109.754 103.753 109.708C104.554 109.661 105.35 109.865 106.03 110.29C106.93 110.82 107.79 111.41 108.65 112C109.16 112.35 109.4 112.23 109.53 111.66C109.75 110.66 109.95 109.66 110.24 108.76C110.408 107.985 110.82 107.284 111.416 106.76C112.011 106.236 112.759 105.917 113.55 105.85C114.6 105.74 115.67 105.67 116.74 105.65C117.35 105.65 117.54 105.51 117.28 104.87C116.764 103.828 116.349 102.74 116.04 101.62C115.867 100.965 115.869 100.276 116.044 99.622C116.22 98.9678 116.563 98.3708 117.04 97.89C117.88 97.1244 118.764 96.4098 119.69 95.7499C120.11 95.4099 120.14 95.2399 119.69 94.9399C118.691 94.3961 117.729 93.7882 116.81 93.1199C116.01 92.5094 115.476 91.614 115.32 90.6199C115.242 89.4819 115.406 88.3404 115.8 87.27C116.02 86.77 116.19 86.27 116.34 85.77ZM96.1597 126.54C96.6797 125.21 97.1597 124.05 97.5897 122.89C98.323 121.043 99.0464 119.19 99.7597 117.33C99.8297 117.15 100.01 116.93 99.8297 116.74C99.6497 116.55 99.4297 116.74 99.2297 116.74C98.8587 116.82 98.4772 116.84 98.0997 116.8C97.3928 116.675 96.7359 116.352 96.205 115.869C95.6741 115.386 95.2908 114.762 95.0997 114.07C94.7297 113.14 94.4197 112.2 94.0997 111.27C94.0397 111.12 93.9997 110.91 93.7997 110.9C93.5997 110.89 93.5597 111.1 93.4997 111.25C91.9797 115.15 90.463 119.053 88.9497 122.96C88.7497 123.46 88.9497 123.57 89.3797 123.44C90.1997 123.21 91.0197 122.97 91.8397 122.76C92.0831 122.655 92.3449 122.599 92.6099 122.596C92.8749 122.593 93.1379 122.643 93.3836 122.743C93.6292 122.842 93.8526 122.99 94.0408 123.176C94.229 123.363 94.3782 123.585 94.4797 123.83L96.1597 126.54ZM109.75 126.54C110.41 125.54 110.95 124.6 111.52 123.73C111.724 123.29 112.086 122.942 112.534 122.757C112.983 122.571 113.484 122.562 113.94 122.73C114.74 122.92 115.54 123.17 116.34 123.38C116.56 123.44 116.82 123.62 117.01 123.38C117.2 123.14 117.01 122.94 116.9 122.73C116.07 120.56 115.22 118.4 114.38 116.23L113.11 113.02C112.9 113.47 112.76 113.79 112.6 114.1C112.432 114.521 112.178 114.903 111.855 115.221C111.532 115.54 111.146 115.788 110.722 115.949C110.298 116.111 109.845 116.183 109.392 116.161C108.939 116.138 108.496 116.022 108.09 115.82C107.284 115.474 106.522 115.034 105.82 114.51C105.59 114.35 105.38 114.08 104.94 114.16C106.54 118.34 108.11 122.34 109.75 126.55V126.54ZM122.02 103.47C122.02 102 122.02 100.91 122.02 99.8199C122.02 99.5499 122.16 99.17 121.9 99.02C121.64 98.87 121.44 99.24 121.21 99.39C120.98 99.54 120.68 99.7799 120.4 99.9699C120.263 100.041 120.142 100.139 120.045 100.258C119.948 100.378 119.877 100.516 119.836 100.664C119.794 100.812 119.784 100.968 119.805 101.12C119.827 101.272 119.879 101.419 119.96 101.55C120.447 102.548 120.862 103.581 121.2 104.64C121.383 105.126 121.452 105.648 121.402 106.166C121.353 106.683 121.186 107.182 120.913 107.625C120.641 108.068 120.272 108.443 119.832 108.721C119.393 108.999 118.896 109.173 118.38 109.23C117.679 109.346 116.969 109.393 116.26 109.37C115.83 109.37 115.69 109.49 115.86 109.91C116.43 111.34 116.98 112.78 117.54 114.22C117.573 114.359 117.65 114.483 117.76 114.573C117.87 114.663 118.007 114.715 118.15 114.72C118.859 114.772 119.572 114.728 120.27 114.59C120.742 114.499 121.169 114.252 121.485 113.89C121.8 113.527 121.985 113.07 122.01 112.59C122.1 111.79 122.14 110.99 122.15 110.18C122.18 107.83 121.92 105.47 122.02 103.48V103.47Z" fill="white"/>
<path d="M84.3195 69.9399H65.6695C65.3703 69.9787 65.0662 69.943 64.7842 69.8359C64.5022 69.7288 64.251 69.5537 64.0531 69.326C63.8551 69.0984 63.7165 68.8253 63.6496 68.5311C63.5827 68.237 63.5895 67.9309 63.6695 67.64C63.7147 67.3077 63.8638 66.9981 64.0954 66.7556C64.3271 66.5131 64.6296 66.3501 64.9595 66.2899C65.3093 66.2281 65.6644 66.2014 66.0195 66.2099H102.669C104.219 66.2099 105.029 66.8299 105.039 68.0299C105.049 69.2299 104.279 69.9499 102.639 69.9499L84.3195 69.9399Z" fill="white"/>
<path d="M67.7297 97.12H56.3597C56.0528 97.1636 55.7398 97.1284 55.4502 97.0179C55.1606 96.9075 54.9038 96.7253 54.7039 96.4884C54.504 96.2515 54.3675 95.9676 54.3073 95.6636C54.2471 95.3595 54.2651 95.0452 54.3597 94.75C54.4301 94.3992 54.6106 94.08 54.875 93.839C55.1394 93.598 55.4739 93.4476 55.8297 93.4099C56.0661 93.3952 56.3032 93.3952 56.5397 93.4099H78.9397C79.3035 93.3483 79.6773 93.3886 80.0197 93.5262C80.3621 93.6639 80.6597 93.8936 80.8797 94.1899C81.0882 94.4768 81.2118 94.8166 81.2364 95.1704C81.2609 95.5242 81.1855 95.8777 81.0186 96.1907C80.8517 96.5036 80.6001 96.7634 80.2926 96.9401C79.9851 97.1168 79.6341 97.2033 79.2797 97.1899C76.8897 97.1899 74.4896 97.1899 72.0996 97.1899L67.7297 97.12Z" fill="white"/>
<path d="M67.81 102.04H79.26C79.5695 102.009 79.8816 102.06 80.166 102.186C80.4503 102.312 80.6972 102.509 80.8825 102.759C81.0678 103.008 81.1853 103.302 81.2234 103.611C81.2615 103.919 81.219 104.233 81.1 104.52C81.02 104.833 80.849 105.115 80.6087 105.33C80.3684 105.545 80.0695 105.685 79.75 105.73C79.4672 105.755 79.1827 105.755 78.9 105.73H56.79C56.5302 105.745 56.2697 105.745 56.01 105.73C55.7638 105.723 55.5219 105.663 55.3003 105.556C55.0788 105.448 54.8826 105.295 54.7247 105.106C54.5668 104.917 54.4509 104.696 54.3846 104.459C54.3183 104.222 54.3031 103.974 54.34 103.73C54.3402 103.49 54.3907 103.252 54.4881 103.033C54.5856 102.814 54.728 102.617 54.906 102.456C55.084 102.295 55.2938 102.173 55.5218 102.098C55.7498 102.023 55.9911 101.996 56.23 102.02L67.81 102.04Z" fill="white"/>
<path d="M67.7996 76.14H79.3096C79.5893 76.1168 79.8706 76.1601 80.1304 76.2663C80.3902 76.3726 80.6212 76.5389 80.8045 76.7514C80.9878 76.964 81.1183 77.2169 81.1852 77.4895C81.2521 77.7621 81.2536 78.0466 81.1896 78.3199C81.1417 78.6746 80.9837 79.0052 80.7379 79.2654C80.4921 79.5255 80.1709 79.7021 79.8196 79.77C79.4907 79.8386 79.1555 79.8721 78.8196 79.87H56.6696C55.3396 79.87 54.7796 79.54 54.4596 78.61C54.3463 78.3289 54.3058 78.0238 54.3419 77.7229C54.378 77.422 54.4895 77.135 54.666 76.8886C54.8425 76.6423 55.0784 76.4446 55.3517 76.3137C55.625 76.1828 55.927 76.1231 56.2296 76.14H67.7996Z" fill="white"/>
<path d="M67.7496 88.46C63.9196 88.46 60.0796 88.46 56.2396 88.46C55.9241 88.4807 55.6087 88.4184 55.3248 88.2793C55.0408 88.1403 54.7983 87.9293 54.6213 87.6673C54.4443 87.4053 54.339 87.1015 54.3159 86.7862C54.2928 86.4709 54.3527 86.155 54.4896 85.87C54.5808 85.6051 54.7443 85.371 54.9617 85.1943C55.1791 85.0175 55.4416 84.9052 55.7196 84.87C56.0007 84.8236 56.2847 84.7968 56.5696 84.79H79.1696C79.4856 84.7544 79.8055 84.8006 80.0987 84.9239C80.3918 85.0472 80.6485 85.2437 80.8441 85.4944C81.0397 85.7452 81.1677 86.0419 81.216 86.3563C81.2642 86.6706 81.231 86.9921 81.1196 87.29C81.0156 87.6855 80.7694 88.0288 80.428 88.254C80.0866 88.4791 79.6741 88.5703 79.2696 88.5101C76.3996 88.5101 73.5396 88.5101 70.6696 88.5101L67.7496 88.46Z" fill="white"/>
<path d="M103.04 107.8C100.758 107.782 98.5323 107.088 96.6448 105.806C94.7573 104.523 93.2923 102.71 92.4351 100.595C91.5778 98.4807 91.3668 96.1592 91.8287 93.9245C92.2906 91.6898 93.4047 89.6421 95.0301 88.0404C96.6556 86.4388 98.7193 85.355 100.961 84.9261C103.202 84.4971 105.52 84.7423 107.622 85.6305C109.724 86.5188 111.515 88.0103 112.77 89.9165C114.024 91.8228 114.685 94.0581 114.67 96.34C114.66 97.8567 114.352 99.3567 113.762 100.754C113.173 102.151 112.313 103.419 111.232 104.483C110.152 105.548 108.872 106.389 107.466 106.958C106.061 107.527 104.556 107.813 103.04 107.8ZM103.04 104.06C104.067 104.061 105.085 103.86 106.035 103.466C106.984 103.073 107.846 102.496 108.572 101.768C109.298 101.041 109.873 100.177 110.264 99.2265C110.654 98.276 110.854 97.2577 110.85 96.23C110.84 95.2057 110.63 94.1932 110.229 93.2504C109.829 92.3076 109.246 91.4528 108.516 90.735C107.04 89.2854 105.048 88.4815 102.98 88.5C100.911 88.5186 98.9343 89.3581 97.4846 90.834C96.035 92.3099 95.231 94.3013 95.2496 96.37C95.2561 97.3899 95.4641 98.3984 95.8616 99.3376C96.2591 100.277 96.8384 101.128 97.566 101.843C98.2936 102.557 99.1553 103.121 100.102 103.502C101.048 103.882 102.06 104.072 103.08 104.06H103.04Z" fill="white"/>
</g>
</svg>
