<svg width="158" height="158" viewBox="0 0 158 158" fill="none" xmlns="http://www.w3.org/2000/svg">
<path d="M0 157.12H146.5C149.318 157.12 152.02 156.001 154.013 154.01C156.006 152.019 157.127 149.318 157.13 146.5V4.02541e-07H124.23C107.916 -0.00131288 91.7622 3.21083 76.69 9.45288C61.6178 15.6949 47.9227 24.8446 36.3867 36.3796C24.8508 47.9147 15.6999 61.6089 9.45663 76.6807C3.21337 91.7524 -5.28612e-08 107.906 0 124.22V157.12Z" fill="#A0938B"/>
<g opacity="0.7">
<path d="M135.74 84.3201V87.5601C135.56 87.9201 135.39 88.29 135.2 88.64C134.249 90.6655 132.565 92.2546 130.488 93.0863C128.411 93.9179 126.095 93.9299 124.01 93.1199C123.01 92.7899 122.65 93.1199 122.24 93.8699C120.493 96.91 118.74 99.9501 116.98 102.99C116.799 103.274 116.684 103.594 116.641 103.927C116.597 104.261 116.628 104.6 116.73 104.92C117.73 108.17 116.46 110.62 113.91 112.47C113.464 112.744 113.112 113.147 112.901 113.626C112.69 114.104 112.63 114.636 112.73 115.15C112.96 116.742 112.602 118.363 111.722 119.709C110.842 121.055 109.5 122.033 107.95 122.46C107.47 122.593 107.028 122.836 106.658 123.169C106.289 123.502 106.002 123.917 105.82 124.38C104.28 127.98 101.82 129.38 97.9597 128.91C97.5439 128.808 97.1075 128.828 96.703 128.968C96.2985 129.108 95.9431 129.363 95.6797 129.7C92.5997 133.26 89.5997 133.75 85.7397 131.11C84.1497 130.01 83.0897 129.97 81.7997 131.43C81.0821 132.044 80.2807 132.552 79.4197 132.94H76.1797C74.5667 132.241 73.1812 131.105 72.1797 129.66C71.9731 129.317 71.6594 129.052 71.287 128.906C70.9146 128.759 70.5043 128.74 70.1197 128.85C66.2097 129.35 63.6397 127.85 62.2497 124.1C62.083 123.634 61.8072 123.215 61.4453 122.878C61.0835 122.54 60.6461 122.294 60.1697 122.16C58.5971 121.689 57.2556 120.651 56.4056 119.246C55.5556 117.842 55.2577 116.172 55.5697 114.56C55.67 114.078 55.6136 113.576 55.4085 113.128C55.2034 112.68 54.8604 112.309 54.4297 112.07C50.9597 109.35 50.4797 106.15 53.0297 102.55C53.3526 102.21 53.5325 101.759 53.5325 101.29C53.5325 100.821 53.3526 100.37 53.0297 100.03C51.0997 97.5101 49.2097 94.96 47.3097 92.42C46.8897 91.86 46.4197 91.4201 45.6197 91.5701C42.5297 92.2401 40.3397 90.67 38.2297 88.72C35.1197 85.83 34.6997 82.1901 37.4697 79.0401C43.1997 72.5001 49.0397 66.0401 54.8297 59.5401C55.8966 58.302 57.3872 57.5068 59.0097 57.3101C62.1497 56.9101 67.0097 59.8601 67.6797 63.3101C68.2297 66.0701 69.8697 67.05 72.0297 67.95C73.4692 68.545 74.8777 69.2126 76.2497 69.95C76.8261 70.2857 77.4787 70.4683 78.1456 70.4805C78.8125 70.4928 79.4714 70.3344 80.0597 70.0201C86.9195 66.9081 94.4971 65.7222 101.98 66.5899C103.75 66.7899 104.58 66.65 105.11 64.69C106.06 61.17 108.94 59.31 112.23 58.47C115.37 57.67 117.57 59.47 119.38 61.95C122.87 66.75 126.51 71.4401 130.03 76.2301C132.01 78.8701 134.25 81.3301 135.74 84.3201ZM60.5797 97.3201C61.7971 97.3357 62.9881 97.6766 64.0291 98.3079C65.0701 98.9392 65.9232 99.8377 66.4997 100.91C66.7457 101.378 67.1073 101.775 67.5501 102.064C67.993 102.353 68.5023 102.524 69.0297 102.56C70.3863 102.694 71.6732 103.225 72.7283 104.088C73.7835 104.951 74.5599 106.107 74.9597 107.41C75.1029 107.882 75.3603 108.312 75.7092 108.66C76.0581 109.009 76.4876 109.267 76.9597 109.41C78.2313 109.795 79.3633 110.542 80.2175 111.559C81.0717 112.577 81.611 113.821 81.7697 115.14C81.8286 115.73 82.0318 116.297 82.3614 116.791C82.691 117.284 83.1368 117.689 83.6597 117.97C86.4897 119.79 87.6597 122.31 86.7897 125.19C86.2197 127.12 87.2897 127.77 88.6097 128.41C89.2234 128.788 89.9591 128.916 90.6646 128.767C91.37 128.619 91.9912 128.204 92.3997 127.61C93.4597 126.26 92.9897 125.1 91.9497 124.02C90.9097 122.94 89.6097 121.58 88.4697 120.34C87.5597 119.34 87.0297 118.23 88.2397 117.17C89.4497 116.11 90.3697 116.84 91.2397 117.73C93.1497 119.73 95.0297 121.73 96.9497 123.73C98.5697 125.41 99.9497 125.59 101.33 124.34C102.71 123.09 102.65 121.87 101.01 119.99C98.0097 116.57 95.0697 113.17 92.1197 109.75C91.2697 108.75 90.9397 107.66 92.0497 106.75C93.1597 105.84 94.0497 106.31 94.8997 107.21C95.4097 107.75 95.8997 108.32 96.3797 108.88C98.9497 111.82 101.49 114.81 104.12 117.7C105.73 119.47 107.8 119.17 108.7 117.16C109.31 115.78 108.7 114.7 107.7 113.71C105.02 110.95 102.38 108.16 99.6997 105.39C97.7797 103.39 95.8297 101.39 93.9397 99.39C93.0397 98.44 92.0697 97.3099 93.3497 96.0799C94.6297 94.8499 95.6897 95.75 96.6497 96.72C96.7897 96.87 96.9197 97.02 97.0597 97.16C100.67 100.91 104.26 104.66 107.88 108.38C109.47 110.02 110.88 110.15 112.26 108.85C113.64 107.55 113.54 106.4 111.94 104.66C107.29 99.58 102.51 94.66 98.0097 89.42C95.3797 86.37 92.6997 84.4801 88.3197 84.4901C83.0097 84.4901 83.0097 84.04 80.6697 88.72C80.3897 89.26 80.1297 89.8099 79.8297 90.3399C79.4817 91.0461 78.9961 91.6758 78.4015 92.1917C77.8068 92.7077 77.1151 93.0997 76.3668 93.3446C75.6186 93.5895 74.829 93.6822 74.0444 93.6178C73.2598 93.5533 72.4959 93.3328 71.7977 92.9691C71.0995 92.6053 70.481 92.1057 69.9786 91.4996C69.4761 90.8935 69.0998 90.1931 68.8718 89.4395C68.6437 88.686 68.5685 87.8946 68.6506 87.1116C68.7327 86.3287 68.9704 85.5698 69.3497 84.88C70.9897 81.7 72.7997 78.6101 74.5697 75.5001C75.2197 74.3501 75.2397 73.5 73.8297 72.96C71.9097 72.16 70.0197 71.2499 68.1397 70.3299C67.7062 70.0719 67.1912 69.9874 66.6979 70.0931C66.2046 70.1988 65.7694 70.487 65.4797 70.9C60.4997 76.5 55.4997 82.0833 50.4797 87.65C50.2905 87.8161 50.139 88.0207 50.0351 88.2501C49.9313 88.4794 49.8776 88.7283 49.8776 88.9801C49.8776 89.2318 49.9313 89.4807 50.0351 89.71C50.139 89.9394 50.2905 90.144 50.4797 90.3101C51.8997 92.1101 53.3497 93.9001 54.5897 95.8201C55.8297 97.7401 57.0297 98.8201 59.2897 97.5101C59.7038 97.3665 60.1421 97.3052 60.5797 97.3299V97.3201ZM97.2297 70.2601C91.5797 70.0101 86.2797 71.47 81.1397 73.65C80.3049 73.9409 79.5976 74.5139 79.1397 75.2701C77.1397 78.8701 75.1397 82.4501 73.1397 86.0501C72.4197 87.3701 72.2897 88.7301 73.8697 89.5101C75.4497 90.2901 76.2597 89.2001 76.8697 87.9801C77.8097 86.1101 78.7397 84.2399 79.6097 82.3399C79.8026 81.759 80.1886 81.2616 80.7035 80.9305C81.2183 80.5994 81.8311 80.4546 82.4397 80.5201C86.2064 80.7601 89.9764 80.98 93.7497 81.18C94.4192 81.2212 95.0728 81.4016 95.6686 81.7098C96.2644 82.018 96.7893 82.4473 97.2097 82.97C102.21 88.47 107.27 93.89 112.21 99.4C113.39 100.7 114.03 100.56 114.83 99.0799C116.31 96.3532 117.86 93.6634 119.48 91.0101C119.84 90.5225 120.015 89.9225 119.972 89.3177C119.93 88.713 119.674 88.143 119.25 87.71C116.01 83.48 112.63 79.33 109.71 74.88C107.6 71.66 104.71 70.5801 101.23 70.2801C99.9397 70.1701 98.5797 70.2701 97.2297 70.2701V70.2601ZM39.7697 83.5201C39.9897 85.6001 41.6497 86.5201 43.1597 87.5201C44.3397 88.2601 45.3897 87.6 46.1597 86.69C51.8397 80.3633 57.5064 74.03 63.1597 67.69C64.8797 65.69 64.6297 64.69 62.2697 62.63C60.3397 60.92 59.0097 60.88 57.3997 62.63C51.8464 68.8033 46.313 74.9967 40.7997 81.21C40.1644 81.8177 39.7943 82.6514 39.7697 83.5301V83.5201ZM127.77 89.88C129.29 89.4527 130.6 88.481 131.45 87.15C132.45 85.76 131.45 84.6001 130.62 83.5201C125.686 76.9268 120.75 70.3468 115.81 63.7801C114.28 61.7801 113.25 61.7199 111.03 63.3399C108.53 65.1799 108.17 66.2699 109.68 68.3399C114.68 75.0999 119.78 81.8301 124.83 88.5701C125.149 89.0386 125.592 89.4095 126.109 89.6424C126.626 89.8753 127.197 89.961 127.76 89.89L127.77 89.88ZM68.6697 125.13C69.0096 125.135 69.3471 125.072 69.6617 124.943C69.9763 124.814 70.2614 124.622 70.4997 124.38C72.8097 122.03 75.1397 119.69 77.3897 117.29C78.4897 116.12 78.1097 114.94 77.0897 113.9C76.0697 112.86 74.7797 112.49 73.5597 113.68C71.1997 115.99 68.8797 118.33 66.5597 120.68C66.1722 121.016 65.915 121.477 65.8327 121.983C65.7505 122.49 65.8485 123.009 66.1097 123.45C66.3353 123.942 66.6951 124.361 67.1479 124.659C67.6007 124.956 68.1282 125.119 68.6697 125.13ZM59.2997 115.78C59.2943 116.323 59.4501 116.855 59.7474 117.309C60.0447 117.763 60.4701 118.118 60.9697 118.33C61.409 118.592 61.9268 118.691 62.4318 118.609C62.9369 118.527 63.3965 118.268 63.7297 117.88C65.9697 115.65 68.1997 113.4 70.4497 111.19C71.7397 109.91 71.8397 108.66 70.5197 107.35C69.1997 106.04 67.9197 106.16 66.6597 107.42L60.3697 113.7C60.0506 113.949 59.7889 114.263 59.6025 114.622C59.4161 114.981 59.3094 115.376 59.2897 115.78H59.2997ZM58.1997 109.38C58.546 109.385 58.8892 109.314 59.2053 109.172C59.5214 109.031 59.8027 108.822 60.0297 108.56C60.923 107.64 61.803 106.71 62.6697 105.77C62.9335 105.553 63.146 105.281 63.2919 104.972C63.4378 104.664 63.5134 104.326 63.5134 103.985C63.5134 103.644 63.4378 103.307 63.2919 102.998C63.146 102.689 62.9335 102.417 62.6697 102.2C61.5097 100.98 60.2597 100.74 58.9597 101.96C57.9264 102.927 56.9264 103.927 55.9597 104.96C55.613 105.293 55.3837 105.729 55.3062 106.203C55.2286 106.678 55.3071 107.164 55.5297 107.59C55.7446 108.119 56.1126 108.572 56.5864 108.891C57.0603 109.21 57.6185 109.38 58.1897 109.38H58.1997ZM75.0697 126.38C75.0808 126.87 75.2266 127.348 75.4912 127.761C75.7558 128.173 76.1289 128.505 76.5697 128.72C76.9445 129.019 77.4142 129.173 77.8933 129.155C78.3723 129.137 78.8288 128.947 79.1797 128.62C80.4472 127.524 81.6367 126.341 82.7397 125.08C83.7397 123.9 83.3697 122.7 82.3097 121.7C82.1053 121.45 81.8509 121.247 81.5629 121.101C81.2748 120.956 80.9596 120.873 80.6374 120.857C80.3152 120.841 79.9933 120.892 79.6922 121.008C79.3912 121.124 79.1179 121.302 78.8897 121.53C77.7897 122.53 76.7797 123.59 75.7497 124.65C75.5216 124.877 75.3427 125.149 75.224 125.448C75.1053 125.748 75.0494 126.068 75.0597 126.39L75.0697 126.38Z" fill="white"/>
</g>
</svg>
