<svg width="158" height="158" viewBox="0 0 158 158" fill="none" xmlns="http://www.w3.org/2000/svg">
<path d="M0 157.12H146.5C147.895 157.121 149.278 156.848 150.567 156.315C151.857 155.781 153.029 154.999 154.016 154.013C155.003 153.027 155.786 151.856 156.321 150.566C156.855 149.277 157.13 147.895 157.13 146.5V0H124.23C91.2822 0 59.6838 13.0885 36.3861 36.3862C13.0885 59.6838 0 91.2822 0 124.23V157.12Z" fill="#A0938B"/>
<path d="M55.2297 127.82C53.0392 127.515 50.9019 126.906 48.8797 126.01C42.3597 122.83 38.3897 117.7 37.3397 110.5C36.7213 106.204 37.5113 101.824 39.5914 98.0147C41.6715 94.2056 44.9298 91.1729 48.8782 89.371C52.8265 87.5692 57.2524 87.0951 61.4928 88.0197C65.7332 88.9444 69.5599 91.218 72.3997 94.5C72.9697 95.17 73.2897 95.18 73.9297 94.57C76.9297 91.78 79.9297 89.0301 82.9897 86.2901C83.2391 86.0786 83.4365 85.8125 83.5666 85.5125C83.6966 85.2125 83.7559 84.8866 83.7397 84.56C83.7397 81.56 83.7397 78.56 83.7397 75.56C83.7397 74.82 83.5797 74.5 82.7397 74.34C73.9697 72.67 68.1797 67.55 66.1497 58.86C65.529 56.2645 65.431 53.5715 65.8616 50.9378C66.2922 48.304 67.2427 45.7823 68.6577 43.5197C70.0727 41.257 71.9239 39.2986 74.1034 37.7586C76.283 36.2186 78.7472 35.1278 81.3525 34.5498C83.9579 33.9718 86.6522 33.9181 89.2785 34.3919C91.9048 34.8657 94.4105 35.8575 96.6496 37.3095C98.8887 38.7615 100.816 40.6447 102.32 42.8492C103.824 45.0537 104.875 47.5356 105.41 50.15C105.983 52.8389 106.003 55.6162 105.469 58.3131C104.935 61.0099 103.857 63.57 102.303 65.8374C100.748 68.1049 98.7484 70.0324 96.4253 71.5027C94.1022 72.973 91.5044 73.9554 88.7897 74.39C87.9897 74.51 87.7297 74.78 87.7297 75.56C87.7297 78.7 87.7297 81.8367 87.7297 84.97C87.7175 85.2316 87.7663 85.4924 87.8722 85.7319C87.978 85.9714 88.1381 86.183 88.3397 86.35C91.4497 89.17 94.5497 91.98 97.6197 94.83C98.2397 95.4 98.5397 95.13 98.9697 94.64C100.935 92.3041 103.416 90.4562 106.216 89.2415C109.017 88.0269 112.061 87.4787 115.11 87.64C119.77 87.8234 124.22 89.6299 127.69 92.747C131.159 95.8641 133.43 100.096 134.11 104.71C134.11 104.9 134.2 105.09 134.25 105.28V110.23C134.25 110.39 134.15 110.55 134.12 110.71C133.68 113.962 132.436 117.053 130.499 119.702C128.562 122.351 125.995 124.474 123.03 125.88C120.872 126.882 118.577 127.556 116.22 127.88H112.22C112.06 127.88 111.91 127.78 111.75 127.75C107.451 127.247 103.438 125.342 100.33 122.33C98.4519 120.586 96.9367 118.489 95.8711 116.159C94.8054 113.829 94.2102 111.311 94.1197 108.75C93.9448 105.668 94.4856 102.588 95.6997 99.75C95.8309 99.5608 95.8881 99.3301 95.8604 99.1015C95.8328 98.873 95.7222 98.6625 95.5497 98.51C92.4097 95.69 89.283 92.85 86.1697 89.99C85.6697 89.53 85.3797 89.66 84.9497 90.06C82.0497 92.75 79.1397 95.44 76.1897 98.06C75.8717 98.2843 75.6526 98.6228 75.5781 99.0047C75.5036 99.3867 75.5794 99.7826 75.7897 100.11C77.1638 103.252 77.6314 106.716 77.1397 110.11C75.9997 118.11 71.5697 123.67 64.0197 126.68C62.4265 127.215 60.7906 127.613 59.1297 127.87L55.2297 127.82ZM114.14 111.92H115.32C117.376 111.808 119.424 112.242 121.258 113.178C123.092 114.114 124.645 115.519 125.76 117.25C126.32 118.08 126.58 117.93 127.05 117.25C130.62 112.17 131.35 106.69 128.74 101.05C127.83 98.9636 126.486 97.0953 124.797 95.5698C123.107 94.0443 121.112 92.8967 118.944 92.2038C116.776 91.5109 114.485 91.2885 112.224 91.5515C109.963 91.8145 107.785 92.5568 105.834 93.7289C103.883 94.901 102.204 96.4758 100.91 98.3483C99.6161 100.221 98.7365 102.348 98.3301 104.587C97.9237 106.827 97.9997 109.127 98.5532 111.335C99.1067 113.543 100.125 115.607 101.54 117.39C101.95 117.91 102.12 117.96 102.47 117.39C103.2 116.127 104.2 115.041 105.4 114.21C107.951 112.438 111.047 111.627 114.14 111.92ZM85.7897 38.49C84.8325 38.4983 83.8769 38.5718 82.9297 38.71C71.3597 40.55 65.7597 54.71 72.9297 64.01C73.3697 64.57 73.5697 64.68 73.9897 64.01C75.3502 61.7952 77.451 60.1336 79.9197 59.32C82.2897 58.49 84.7397 58.6601 87.1797 58.6701C89.2051 58.612 91.2101 59.0878 92.9934 60.0497C94.7768 61.0116 96.2757 62.4257 97.3397 64.15C97.7297 64.74 97.9397 64.78 98.3397 64.15C100.32 61.6394 101.482 58.5819 101.67 55.39C101.792 53.2245 101.472 51.0567 100.731 49.0184C99.9888 46.9802 98.8404 45.1141 97.3552 43.5334C95.8699 41.9527 94.0787 40.6905 92.0906 39.8236C90.1024 38.9566 87.9587 38.5028 85.7897 38.49ZM56.7297 91.76C55.3303 91.7837 53.9407 91.999 52.5997 92.4C42.1497 95.4 37.7997 108.57 44.3897 117.2C44.8397 117.8 45.0897 118 45.5797 117.2C46.852 115.128 48.7918 113.552 51.0797 112.73C53.6797 111.73 56.3997 111.91 59.0797 111.96C61.0219 111.952 62.9339 112.441 64.6335 113.381C66.3332 114.321 67.764 115.681 68.7897 117.33C69.2297 117.99 69.4597 118.08 69.9697 117.4C71.773 115.019 72.8776 112.183 73.1597 109.21C74.0497 99.92 66.6697 91.8 56.7297 91.76ZM85.8097 70.39C88.6232 70.4109 91.3891 69.6641 93.8097 68.2301C94.4897 67.8501 94.6097 67.48 94.2597 66.83C93.7154 65.6716 92.873 64.6787 91.8187 63.953C90.7644 63.2272 89.5361 62.7948 88.2597 62.7C86.5965 62.5475 84.9229 62.5475 83.2597 62.7C81.951 62.7815 80.6902 63.2222 79.6157 63.9738C78.5413 64.7253 77.695 65.7586 77.1697 66.96C76.8597 67.59 77.0497 67.88 77.6097 68.2C80.0873 69.6758 82.9262 70.434 85.8097 70.39ZM114.26 123.68C117.146 123.706 119.984 122.934 122.46 121.45C123.01 121.13 123.1 120.82 122.83 120.27C122.301 119.07 121.454 118.036 120.381 117.282C119.307 116.528 118.048 116.081 116.74 115.99C115.034 115.825 113.316 115.825 111.61 115.99C110.337 116.099 109.117 116.546 108.074 117.284C107.032 118.023 106.205 119.026 105.68 120.19C105.599 120.293 105.545 120.413 105.521 120.542C105.498 120.67 105.505 120.802 105.543 120.927C105.582 121.051 105.65 121.165 105.741 121.258C105.833 121.351 105.946 121.42 106.07 121.46C108.548 122.925 111.381 123.682 114.26 123.65V123.68ZM57.2597 123.68C60.0712 123.686 62.8331 122.94 65.2597 121.52C65.9597 121.12 66.0097 120.72 65.6797 120.1C65.1267 118.931 64.2698 117.932 63.1984 117.207C62.1271 116.482 60.8808 116.058 59.5897 115.98C57.9266 115.827 56.2528 115.827 54.5897 115.98C53.3182 116.084 52.0979 116.527 51.0551 117.262C50.0124 117.997 49.1854 118.998 48.6597 120.16C48.3297 120.79 48.4597 121.16 49.0797 121.49C51.571 122.947 54.4139 123.694 57.2997 123.65L57.2597 123.68Z" fill="white"/>
<path d="M114.23 94.87C115.165 94.8526 116.094 95.0228 116.962 95.3705C117.831 95.7183 118.621 96.2366 119.285 96.8947C119.95 97.5528 120.476 98.3375 120.832 99.2023C121.188 100.067 121.368 100.995 121.36 101.93C121.291 103.773 120.51 105.518 119.181 106.798C117.852 108.078 116.079 108.793 114.235 108.793C112.39 108.793 110.617 108.078 109.288 106.798C107.96 105.518 107.179 103.773 107.11 101.93C107.101 100.996 107.281 100.069 107.636 99.2047C107.992 98.3405 108.517 97.5563 109.181 96.8983C109.844 96.2403 110.633 95.7219 111.5 95.3735C112.367 95.0252 113.295 94.8539 114.23 94.87ZM117.18 101.73C117.195 101.338 117.13 100.947 116.989 100.581C116.848 100.215 116.633 99.8811 116.359 99.6004C116.085 99.3197 115.757 99.0978 115.394 98.9482C115.031 98.7985 114.642 98.7243 114.25 98.73C113.501 98.7738 112.797 99.102 112.282 99.6476C111.768 100.193 111.481 100.915 111.481 101.665C111.481 102.415 111.768 103.137 112.282 103.682C112.797 104.228 113.501 104.556 114.25 104.6C114.634 104.618 115.018 104.557 115.378 104.419C115.737 104.282 116.065 104.073 116.34 103.803C116.615 103.534 116.831 103.211 116.976 102.854C117.12 102.497 117.19 102.115 117.18 101.73Z" fill="white"/>
<path d="M85.7197 41.5901C86.6552 41.5781 87.5838 41.7522 88.4514 42.1023C89.319 42.4524 90.1084 42.9715 90.7737 43.6293C91.439 44.2871 91.9669 45.0707 92.3267 45.9343C92.6865 46.7979 92.8711 47.7245 92.8697 48.6601C92.8308 50.5474 92.0583 52.3453 90.716 53.6726C89.3738 54.9999 87.5673 55.7522 85.6797 55.77C83.7903 55.7516 81.9851 54.986 80.6585 53.6406C79.3318 52.2952 78.5917 50.4795 78.5997 48.5901C78.6182 46.7184 79.3781 44.9305 80.7128 43.6183C82.0475 42.3061 83.848 41.5767 85.7197 41.5901ZM88.6697 48.39C88.6715 47.8131 88.5029 47.2486 88.1852 46.7671C87.8674 46.2855 87.4146 45.9085 86.8834 45.6833C86.3523 45.4581 85.7665 45.3948 85.1995 45.5011C84.6325 45.6075 84.1095 45.8789 83.6961 46.2813C83.2827 46.6837 82.9972 47.1991 82.8756 47.763C82.7539 48.327 82.8015 48.9143 83.0122 49.4513C83.223 49.9883 83.5876 50.4512 84.0604 50.7819C84.5331 51.1125 85.0929 51.2962 85.6697 51.31C86.0616 51.3279 86.4531 51.2651 86.8198 51.1258C87.1865 50.9864 87.5208 50.7733 87.802 50.4997C88.0831 50.226 88.3052 49.8976 88.4544 49.5348C88.6037 49.1719 88.6769 48.7823 88.6697 48.39Z" fill="white"/>
<path d="M57.2496 94.87C58.1781 94.8554 59.1002 95.0257 59.9622 95.371C60.8242 95.7162 61.6089 96.2295 62.2707 96.881C62.9324 97.5325 63.4578 98.3091 63.8165 99.1656C64.1751 100.022 64.3598 100.941 64.3596 101.87C64.3317 103.755 63.5744 105.556 62.2468 106.895C60.9192 108.234 59.1246 109.006 57.2396 109.05C55.3512 109.047 53.5407 108.297 52.2044 106.962C50.8681 105.628 50.1149 103.818 50.1096 101.93C50.1014 100.994 50.2811 100.065 50.638 99.2C50.9949 98.3344 51.5219 97.5493 52.1876 96.8911C52.8533 96.2328 53.6443 95.7148 54.5138 95.3676C55.3833 95.0205 56.3136 94.8512 57.2496 94.87ZM60.1496 101.74C60.1498 100.955 59.842 100.201 59.2923 99.6396C58.7426 99.0787 57.9948 98.7557 57.2096 98.74C56.8104 98.7273 56.4128 98.7961 56.041 98.9421C55.6692 99.0882 55.3311 99.3085 55.0473 99.5896C54.7635 99.8707 54.5399 100.207 54.3903 100.577C54.2406 100.947 54.168 101.344 54.1768 101.744C54.1857 102.143 54.2758 102.536 54.4417 102.9C54.6076 103.263 54.8458 103.589 55.1418 103.857C55.4378 104.125 55.7853 104.33 56.1632 104.46C56.5411 104.589 56.9414 104.64 57.3396 104.61C57.7165 104.62 58.0914 104.552 58.4409 104.411C58.7903 104.269 59.1068 104.057 59.3706 103.788C59.6344 103.519 59.8397 103.198 59.9737 102.845C60.1078 102.493 60.1677 102.117 60.1496 101.74Z" fill="white"/>
</svg>
