<svg width="61" height="48" viewBox="0 0 61 48" fill="none" xmlns="http://www.w3.org/2000/svg">
<path d="M53.4578 0V20.7603C54.3178 22.0703 56.7578 22.8303 57.8878 23.8203C58.6624 24.7116 59.3333 25.6875 59.8878 26.73C61.8878 31.34 58.1778 35.1701 53.4178 33.6201V37.8604H31.8378C31.6578 37.8604 31.4378 38.3101 31.4078 38.5601C31.2678 39.8201 32.5078 43.41 32.3078 45.02C32.5778 45.82 33.8078 45.2402 34.4178 45.7402C34.8478 46.0902 34.7978 46.9802 35.0878 47.4702H18.4178C17.8578 45.0202 21.2278 45.8303 21.4878 45.0303C21.7478 44.2303 21.6978 41.42 21.8378 40.29C21.8978 39.81 22.7178 37.8604 21.9478 37.8604H0.757837C-0.242163 37.8604 0.367834 36.04 0.347834 35.73C-0.172166 25.73 0.047836 14.2403 0.037836 4.09033C0.037836 3.44033 0.337837 0 0.757837 0H53.4578ZM51.4578 31.3604V2.36035L2.57784 2.07031C2.37332 2.29907 2.21664 2.5662 2.11703 2.85645C2.01742 3.14669 1.97688 3.45411 1.99783 3.76025C1.15783 13.1103 2.66783 23.6899 1.99783 33.1699C1.91783 34.0699 2.31785 34.7202 3.26785 34.7202H50.4878C51.6578 34.9302 51.7178 33.1302 51.3178 32.4502C50.9178 31.7702 47.7678 30.1503 46.6978 28.5903C45.6278 27.0303 44.9478 22.5901 43.8178 21.8701C42.2378 20.8701 40.5578 22.3303 38.8178 22.5303C34.0978 23.0903 23.7178 19.9903 19.5778 17.5303C18.3478 16.8003 17.3278 15.6902 15.9278 14.9702C14.0878 13.9702 7.38785 12.1201 6.48785 11.1201C5.87785 10.4401 6.25782 8.8402 7.20782 8.7002C8.65782 8.4802 15.1078 11.4602 17.4478 11.7002C19.5978 11.9702 21.8678 11.7002 24.0278 12.1802C26.3878 12.7302 42.1178 18.6603 43.2078 19.8403C43.5378 20.2003 44.9778 21.8404 45.1578 22.1304C45.7978 23.1304 45.9578 24.8102 46.3978 25.9702C46.8288 27.1731 47.502 28.2748 48.3758 29.207C49.2496 30.1393 50.3054 30.8822 51.4778 31.3901L51.4578 31.3604ZM53.4578 22.7402V32.4902C57.4578 33.7502 60.4578 31.9202 59.1978 27.4902C58.6778 25.7002 55.7278 23.1102 54.0178 22.4902C53.9103 22.4508 53.7917 22.4548 53.6871 22.5015C53.5825 22.5481 53.5003 22.6339 53.4578 22.7402Z" fill="#A0938B"/>
</svg>
