<svg width="54" height="55" viewBox="0 0 54 55" fill="none" xmlns="http://www.w3.org/2000/svg">
<path d="M41.8277 22.022C42.0189 22.5543 42.1137 23.1161 42.1077 23.6816C35.8777 23.0116 29.5377 22.6817 23.4877 21.0317C23.4116 21.4809 23.3782 21.9361 23.3877 22.3916L26.3877 23.0815C26.5577 23.2115 26.2677 24.4317 26.3877 24.7417C25.4861 24.5592 24.5948 24.329 23.7177 24.0518C23.6278 23.9713 23.562 23.8677 23.5277 23.752C23.6755 24.4324 23.954 25.0776 24.3477 25.6519C24.3477 25.6519 24.3477 25.6516 24.3477 25.6016C24.6077 25.7216 26.1977 25.9615 26.2577 26.0415C26.2829 26.3744 26.2829 26.7086 26.2577 27.0415C26.2577 27.1615 26.2577 27.2519 26.1077 27.1919C26.9677 27.6433 27.8972 27.9474 28.8577 28.0918C28.415 28.0039 27.9803 27.8801 27.5577 27.7217C27.4577 27.5517 27.6077 26.6218 27.5577 26.3418L30.2377 26.8218C30.3777 26.9218 30.1077 27.9917 30.1177 28.2617C29.8313 28.2818 29.5436 28.2514 29.2677 28.1719L35.2677 29.4419L35.5877 27.7319L38.0477 27.9517L37.7277 29.9517L38.9277 30.2017L39.4377 28.2017C40.2058 28.2445 40.9706 28.3347 41.7277 28.4717C41.8177 28.0417 41.8977 27.5715 41.9777 27.0815L39.6477 26.8818L39.9677 24.7319C40.7079 24.8606 41.4566 24.9339 42.2077 24.9517C42.3311 23.9586 42.2004 22.9507 41.8277 22.022ZM30.4377 25.5317C29.5648 25.4484 28.6992 25.3014 27.8477 25.0918C27.4177 24.9318 27.7977 23.7719 27.7677 23.4019L30.6577 23.8315L30.4377 25.5317ZM34.0877 29.1816L31.4077 28.6416C31.441 28.1425 31.5179 27.6473 31.6377 27.1616C31.9177 26.9816 33.8177 27.6019 34.2977 27.4619L34.0877 29.1816ZM34.6077 26.1816C33.6508 26.1228 32.7007 25.9824 31.7677 25.7617L31.9377 24.0518C32.9023 24.075 33.8629 24.1855 34.8077 24.3818L34.6077 26.1816ZM38.3477 26.7119C37.5385 26.7094 36.7326 26.6084 35.9477 26.4116L36.1077 24.4717L38.6877 24.6919L38.3477 26.7119ZM41.5877 29.1816L41.3177 30.3818C41.3777 30.0918 41.5077 29.6618 41.5877 29.1318V29.1816Z" fill="#A0938B"/>
<path d="M45.1176 11.2121C44.4977 9.99213 42.7877 8.44184 42.7677 7.16184C42.7477 5.88184 43.4477 4.27182 43.4977 2.89182C43.5249 1.96696 43.3686 1.04591 43.0377 0.181855C42.9686 0.118367 42.8872 0.0697836 42.7987 0.038789C42.7101 0.00779452 42.6162 -0.00487226 42.5226 0.00167967C42.429 0.00823161 42.3377 0.0338446 42.2544 0.076875C42.171 0.119905 42.0973 0.179674 42.0377 0.252168C41.7077 0.642168 42.2077 2.06184 42.1977 2.66184C42.1977 4.47184 41.0576 6.55172 41.6076 8.29172C41.9676 9.37172 44.2577 11.6222 44.1977 12.5022C44.1977 13.0922 42.7876 13.7519 42.2976 14.2219C41.2677 15.276 40.593 16.6254 40.3676 18.0818C40.4908 18.9897 40.7789 19.8677 41.2177 20.6721C41.2977 20.9321 41.5877 21.902 41.8177 22.782C42.1878 23.7149 42.3151 24.7264 42.1877 25.7219V26.0119C42.1877 26.1919 42.1877 26.372 42.1877 26.552L42.1277 27.0818V27.362V27.842C42.0477 28.332 41.9677 28.8419 41.8777 29.2219L41.7877 29.6018C41.7877 29.7018 41.7876 29.782 41.7276 29.862C41.6176 30.392 41.5177 30.862 41.4577 31.072L41.3977 31.322C41.2765 31.3547 41.1488 31.3547 41.0277 31.322H40.9377H40.8177C40.2177 31.252 39.3277 31.0422 39.0377 31.0222V30.9519L37.8377 30.6921L35.7677 30.2419L35.3777 30.1618L29.3777 28.8918L29.0077 28.8117C28.0478 28.6703 27.1184 28.3698 26.2577 27.9221C25.9347 27.7669 25.6324 27.572 25.3576 27.342C25.0209 27.0552 24.7308 26.7179 24.4977 26.342C24.1039 25.7677 23.8255 25.1225 23.6776 24.4421C23.5666 24.0114 23.5228 23.5659 23.5476 23.1218C23.5378 22.6663 23.5713 22.2111 23.6477 21.7619C23.4177 19.4119 25.5776 14.3818 22.4276 13.3318C20.6576 12.7318 19.4276 13.402 18.4276 14.842C17.8376 15.692 16.6777 18.912 15.5977 18.842C15.0677 18.842 14.7677 16.9321 14.5977 16.4421C13.8277 14.2821 12.1177 12.7421 9.74765 13.9421C6.06765 15.8221 9.94766 21.7019 11.0077 24.2019C12.6077 27.9819 13.7977 34.3618 17.0077 36.8718C18.8377 38.3118 21.2277 38.5719 23.3977 39.2619C26.3977 40.2019 29.3177 41.3917 32.3177 42.3117C34.8277 43.0717 39.5577 44.6017 41.7677 42.8117C43.7077 41.2417 42.2677 39.2222 41.9577 37.2722C41.5077 34.3722 42.9077 31.9418 43.3877 29.1418C43.9565 26.5466 43.8393 23.8479 43.0476 21.3117C42.3676 19.0317 41.2077 18.0619 42.9477 15.7619C43.7077 14.7619 45.3676 14.072 45.6776 13.032C45.7351 12.7059 45.7143 12.3708 45.617 12.0544C45.5196 11.738 45.3485 11.4495 45.1176 11.2121ZM39.5777 42.302C36.1377 42.952 27.4677 39.302 23.7777 38.112C19.7077 36.822 17.1277 37.022 15.1977 32.572C13.8977 29.572 13.1076 26.2018 11.7376 23.0818C10.8376 21.0818 9.06766 18.5319 9.37766 16.2619C9.44448 15.9652 9.58582 15.6905 9.7883 15.4636C9.99079 15.2367 10.2477 15.0651 10.5349 14.9651C10.8221 14.865 11.1301 14.8398 11.4298 14.8918C11.7294 14.9438 12.0109 15.071 12.2477 15.2619C13.7077 16.4519 13.1177 20.3421 15.6277 20.1321C18.3277 19.8921 18.6277 14.7019 20.7577 14.4519C22.6677 14.2219 22.7577 15.4519 22.6377 16.9719C22.5177 19.4419 21.7177 21.532 22.1277 24.112C22.6577 27.372 24.4477 28.9318 27.5277 29.8318C30.6077 30.7318 34.7277 31.4719 38.0177 32.1819C38.9403 32.3943 39.8755 32.5479 40.8177 32.6418C40.3211 34.2387 40.1844 35.9258 40.4176 37.5818C40.7624 38.6722 41.033 39.7848 41.2276 40.9118C41.1576 41.7318 40.2677 42.172 39.5777 42.302Z" fill="#A0938B"/>
<path d="M47.8877 28.3017C48.3678 29.2605 48.4986 30.3568 48.2577 31.4018C47.9277 32.7218 47.1677 33.1515 46.5077 34.1415C45.5077 35.6415 46.9877 38.1417 47.1277 39.8017C47.5977 45.4117 42.5476 47.7018 37.6676 47.4418C36.1276 47.3618 34.9277 46.8015 33.4377 47.6015C30.7877 49.0315 31.3476 53.8018 28.2376 54.1718H4.39768C-0.162321 53.2418 2.39766 48.5815 3.12766 45.6415C3.39766 44.6415 3.66766 43.5716 3.87766 42.5316C4.23766 40.7416 5.03766 36.6618 3.75766 35.2318C3.20766 34.6218 0.25765 33.0716 0.11765 32.7816C0.0616262 32.685 0.0288606 32.5767 0.0219471 32.4652C0.0150336 32.3537 0.0342 32.2419 0.0778553 32.1391C0.121511 32.0362 0.188457 31.9449 0.273473 31.8725C0.358489 31.8 0.459217 31.7484 0.567662 31.7216C0.861017 31.7621 1.13952 31.8756 1.37766 32.0517C4.79766 33.9317 5.97764 35.0018 5.73765 39.1518C5.49765 43.1518 3.89766 47.2718 2.93766 51.1518C2.94058 51.5538 3.08108 51.9427 3.33579 52.2538C3.5905 52.5649 3.9441 52.7795 4.33768 52.8617H28.1177C29.4477 52.5817 29.5177 51.1815 29.9977 50.1415C30.4993 48.7161 31.4107 47.4706 32.6176 46.5614C34.9277 45.1914 36.6177 46.2618 39.0577 46.1518C43.0577 45.9718 46.4877 43.7416 45.7177 39.2816C45.4877 37.9716 44.7177 36.4217 44.7877 35.0917C44.9477 32.9217 47.9776 31.7615 46.8676 29.3515C46.6376 28.8515 45.9677 28.4915 46.0777 27.9315C46.1877 27.3715 46.7477 27.4819 47.1377 27.2719C48.8677 26.3319 50.0477 24.5119 48.5177 22.7719C48.3377 22.5619 47.9876 22.4815 47.8576 22.1615C47.3476 20.9315 48.9776 19.6615 49.8576 19.1615C50.9576 18.5415 52.7377 18.4517 52.4077 16.8417C52.2477 16.0717 50.4076 14.4416 49.8077 13.7616C48.4238 12.2824 47.1283 10.7231 45.9276 9.09171C44.1176 6.41171 45.9277 4.7118 46.0177 1.9418C46.0177 1.4618 45.6076 0.401745 46.2276 0.131745C47.7076 -0.538255 47.2277 2.80188 47.1577 3.52188C46.9777 4.75188 46.2777 5.96178 46.4477 7.17178C46.5677 8.03178 48.2277 9.91153 48.8477 10.6615C49.9777 12.0315 53.2277 15.0318 53.6577 16.4418C53.8713 17.0651 53.8292 17.7475 53.5405 18.3398C53.2518 18.9321 52.7402 19.3857 52.1176 19.6015C51.4576 19.9215 49.5977 20.5519 49.2777 21.2519C48.9577 21.9519 49.7377 22.1718 50.0177 22.6518C51.2777 24.8218 49.8677 27.3217 47.8377 28.3217" fill="#A0938B"/>
<path d="M0.647708 22.9917C1.56723 23.461 2.4557 23.9888 3.30768 24.5718C4.55128 25.2288 5.84139 25.7936 7.16767 26.2617C8.18685 26.5345 9.18866 26.8684 10.1677 27.2617C10.2847 27.332 10.3758 27.4384 10.4272 27.5649C10.4785 27.6915 10.4874 27.8314 10.4525 27.9634C10.4175 28.0954 10.3405 28.2124 10.2333 28.2969C10.126 28.3814 9.99418 28.4286 9.85767 28.4316C9.30067 28.3566 8.75389 28.2194 8.22766 28.022C6.21078 27.419 4.2633 26.6043 2.41767 25.5918C1.56911 25.1592 0.784955 24.6108 0.0877109 23.9619C0.0299568 23.8642 -0.000366091 23.7526 3.33565e-06 23.6392C0.000372762 23.5257 0.0313972 23.4142 0.0897861 23.3169C0.148175 23.2196 0.231768 23.1402 0.331729 23.0864C0.431691 23.0327 0.54434 23.0067 0.657718 23.0117" fill="#A0938B"/>
</svg>
