<svg width="67" height="52" viewBox="0 0 67 52" fill="none" xmlns="http://www.w3.org/2000/svg">
<path d="M66.0037 38.0601V37.96V37.8599C65.0637 35.0599 64.3337 31.9599 63.6137 28.9399C61.6837 20.8299 59.6837 12.45 53.3437 6.75C48.0837 2.02 42.0637 0 33.2237 0C31.8437 0 30.3237 0.000156254 28.5737 0.160156C23.4268 0.438122 18.4822 2.25572 14.381 5.37793C10.2799 8.50014 7.21148 12.7827 5.57367 17.6699C4.38367 21.2099 3.43363 24.8998 2.40363 29.0098L2.32367 29.3701C1.61367 32.1401 0.893663 35 0.063663 37.71V37.7798V37.8599C-0.506337 42.9399 2.84364 44.9401 6.41364 47.0801L6.96369 47.4102L7.96369 48.0098C10.4637 49.5598 13.0437 51.0801 14.7437 51.1001H14.8037C16.3101 51.082 17.7566 50.5069 18.8644 49.4858C19.9723 48.4648 20.663 47.0698 20.8037 45.5698C21.3137 41.9798 21.5237 38.1998 21.7337 34.5698V34.0898C21.9237 30.8298 22.1137 27.47 22.5037 24.27C23.0314 21.8652 24.3736 19.7164 26.3034 18.1875C28.2332 16.6586 30.6319 15.8434 33.0937 15.8799H33.8137C36.3656 16.0212 38.7788 17.0869 40.6025 18.8774C42.4262 20.668 43.5357 23.061 43.7237 25.6099C44.0137 28.3599 44.1837 31.2598 44.3337 34.0698V34.6001C44.5337 38.2401 44.7637 42.0001 45.2537 45.6001C45.3676 46.5015 45.6673 47.3692 46.1337 48.1489C46.6002 48.9286 47.2233 49.6032 47.9637 50.1299C48.9222 50.7815 50.0546 51.13 51.2137 51.1299C51.7223 51.1293 52.2292 51.0692 52.7237 50.9502C54.5931 50.2311 56.3665 49.2836 58.0037 48.1299L58.7537 47.6699C59.0537 47.4799 59.3637 47.3001 59.6837 47.1201C62.9937 45.0701 66.4637 43.0101 66.0037 38.0601ZM4.09369 39.5801V42.7598L2.94367 41.1401C2.63691 40.4322 2.44782 39.679 2.38373 38.9102V38.8198C2.98373 36.6298 3.54368 34.3799 4.08368 32.1899C5.21368 27.7199 6.36366 23.1002 7.81366 18.6802C9.40528 13.7624 12.5983 9.51941 16.8831 6.62842C21.168 3.73742 26.2977 2.36486 31.4537 2.72998V3.23975C31.2037 3.23975 30.8037 3.75004 30.5637 4.04004C30.3237 4.33004 30.1537 4.52008 29.9837 4.58008C29.4452 4.67021 28.8996 4.7105 28.3537 4.7002C27.9462 4.69581 27.5388 4.71541 27.1337 4.75977C23.3202 5.27661 19.7171 6.8143 16.7054 9.20996C13.6936 11.6056 11.3852 14.7706 10.0237 18.3701C8.71337 22.128 7.61823 25.9573 6.74372 29.8398C5.95372 33.0998 5.13369 36.4801 4.09369 39.5801ZM58.5637 43.4399C57.8637 44.3499 53.5637 46.9797 52.3137 47.4897C51.9212 47.6437 51.5051 47.7283 51.0837 47.7397C50.6869 47.743 50.2966 47.6396 49.9537 47.4399C49.5261 47.1325 49.1729 46.7331 48.9202 46.271C48.6675 45.8089 48.5218 45.2959 48.4937 44.77C48.0937 41.63 47.9336 38.2202 47.7836 35.2002C47.6592 31.3316 47.3254 27.4726 46.7836 23.6401C45.7836 17.5601 39.4337 12.4199 32.8937 12.4199H32.7737C26.3937 12.4699 20.1637 17.6101 19.1837 23.6401C18.6406 27.4155 18.3068 31.2176 18.1837 35.0298V35.4102C18.0237 38.5202 17.8537 41.75 17.4737 44.77C17.3137 46.11 16.6937 47.71 14.7437 47.71H14.3237C12.2269 46.7841 10.2186 45.6695 8.32367 44.3799C6.32367 42.8299 6.27373 41.1401 6.88373 38.5601C8.23373 32.8401 10.0937 26.1499 11.8837 20.6499C14.6237 12.1099 21.6436 7.00977 30.6536 7.00977H31.2737L31.4937 6.85986C31.8295 6.61805 32.098 6.29456 32.2737 5.91992C32.4937 5.51992 32.5737 5.40986 32.8137 5.35986H33.0436C33.3236 5.35986 33.4537 5.48 33.7237 6C33.8984 6.40242 34.2006 6.73642 34.5837 6.9502L34.7537 7.02979H35.3637C39.5726 6.91663 43.6997 8.20494 47.0971 10.6919C50.4945 13.1788 52.9696 16.7238 54.1337 20.77C55.2637 24.33 56.3037 28.28 57.2137 31.77L57.5037 32.8599C57.6837 33.5299 57.8636 34.1999 58.0336 34.8599C58.1636 35.3099 58.3037 35.7798 58.4537 36.2598V36.3799C59.2737 38.8599 60.0837 41.48 58.5637 43.48V43.4399ZM63.5637 38.9102C63.5116 39.7287 63.2938 40.5278 62.9236 41.2598C62.7654 41.595 62.5449 41.8972 62.2737 42.1499L61.8637 42.4502V39.5801C60.8637 36.4601 59.9937 33.0998 59.1937 29.8398C58.3272 25.9563 57.2353 22.1268 55.9236 18.3701C54.5596 14.7704 52.249 11.6059 49.2357 9.21045C46.2224 6.81495 42.6182 5.27699 38.8037 4.75977C38.4019 4.71508 37.9979 4.69548 37.5937 4.7002C37.0445 4.71083 36.4955 4.67055 35.9537 4.58008C35.7837 4.52008 35.6437 4.35004 35.3837 4.04004C35.1237 3.73004 34.7337 3.26975 34.4937 3.23975V2.72998C39.5835 2.34727 44.656 3.66831 48.9123 6.48535C53.1686 9.30239 56.367 13.4554 58.0037 18.29C59.4537 22.55 60.5637 27.0401 61.6437 31.3901C62.2537 33.8401 62.8737 36.3898 63.5537 38.8198V38.9102H63.5637Z" fill="#A0938B"/>
<path d="M44.0837 11.5402C40.7637 9.31022 34.8737 8.47022 30.7837 8.79022C28.3303 9.01273 25.931 9.64115 23.6837 10.6501L23.4537 10.7502C22.8137 11.0302 21.4537 11.6002 21.3437 12.2502C21.3288 12.3629 21.342 12.4777 21.3822 12.5842C21.4223 12.6906 21.4881 12.7852 21.5737 12.86C22.0637 13.4 23.0637 12.8601 23.8737 12.3801C24.1232 12.2363 24.3803 12.106 24.6438 11.9899C27.2971 10.8744 30.1455 10.2968 33.0238 10.2902C35.8171 10.2913 38.5828 10.8418 41.1637 11.9103C41.506 12.0547 41.8398 12.218 42.1637 12.4001C42.6636 12.7108 43.2014 12.9561 43.7638 13.1301C43.9359 13.1545 44.1111 13.1191 44.2603 13.03C44.4096 12.9408 44.5237 12.8035 44.5837 12.6403C44.6318 12.4275 44.6089 12.2046 44.5186 12.006C44.4284 11.8074 44.2756 11.6439 44.0837 11.5402Z" fill="#A0938B"/>
</svg>
