<?xml version="1.0" encoding="utf-8"?>
<!-- Generator: Adobe Illustrator 22.1.0, SVG Export Plug-In . SVG Version: 6.00 Build 0)  -->
<svg version="1.1" id="Layer_1" xmlns="http://www.w3.org/2000/svg" xmlns:xlink="http://www.w3.org/1999/xlink" x="0px" y="0px"
	 viewBox="0 0 485.7 411" style="enable-background:new 0 0 485.7 411;" xml:space="preserve">
<style type="text/css">
	.st0{fill:#96928E;}
	.st1{enable-background:new    ;}
	.st2{fill:#FFFFFF;}
	.st3{fill:#F7F3EE;}
	.st4{fill:none;stroke:#F7F3EE;stroke-miterlimit:10;}
	.st5{fill:#393939;}
	.st6{fill:#FFCD06;}
	.st7{opacity:0.75;}
	.st8{clip-path:url(#SVGID_2_);}
	.st9{opacity:0.5;}
	.st10{clip-path:url(#SVGID_4_);}
	.st11{fill:#E73A94;}
	.st12{fill:#90C73E;}
	.st13{fill:#00A3D8;}
	.st14{clip-path:url(#SVGID_6_);}
	.st15{clip-path:url(#SVGID_8_);}
	.st16{fill:none;stroke:#FFFFFF;stroke-width:0.25;stroke-miterlimit:10;}
	.st17{fill:#A0938B;}
	.st18{fill:#FFFFFF;stroke:#393939;stroke-width:0.75;stroke-miterlimit:10;}
	.st19{fill:none;stroke:#393939;stroke-miterlimit:10;}
</style>
<g>
	<path class="st2" d="M236.8,43.6c-0.6-1.4-1.7-2.6-3.2-3.2c-0.7-0.3-1.5-0.5-2.3-0.5c-0.8,0-1.6,0.2-2.3,0.5
		c-0.7,0.3-1.3,0.7-1.9,1.3c-0.5,0.6-0.9,1.2-1.3,1.9c-0.3,0.7-0.5,1.5-0.5,2.3c0,0.8,0.2,1.6,0.5,2.3c0.3,0.7,0.7,1.3,1.3,1.9
		c0.5,0.5,1.2,1,1.9,1.3c0.7,0.3,1.5,0.5,2.3,0.5c0.8,0,1.6-0.2,2.3-0.5c1.4-0.6,2.6-1.7,3.2-3.2c0.3-0.7,0.5-1.5,0.5-2.3
		C237.3,45.1,237.1,44.3,236.8,43.6 M235.8,47.8c-0.2,0.6-0.6,1.1-1,1.5c-0.4,0.5-1,0.8-1.5,1.1c-1.2,0.5-2.6,0.5-3.8,0
		c-0.6-0.3-1.1-0.6-1.6-1.1c-0.4-0.4-0.8-1-1-1.5c-0.2-0.6-0.4-1.3-0.4-1.9c0-0.7,0.1-1.3,0.4-1.9c0.5-1.2,1.4-2.1,2.6-2.6
		c1.2-0.5,2.6-0.5,3.8,0c0.6,0.3,1.1,0.6,1.5,1c0.4,0.4,0.8,1,1,1.6c0.3,0.6,0.4,1.3,0.4,1.9C236.2,46.5,236.1,47.2,235.8,47.8"/>
	<path class="st2" d="M232.4,46.3c0.4,0,0.8-0.2,1-0.5c0.3-0.3,0.4-0.8,0.4-1.2c0-0.5-0.2-1-0.5-1.4c-0.5-0.3-1.1-0.5-1.7-0.5h-2.4
		v6.1h1.1v-2.5h0.7l1.5,2.5h1.2L232.4,46.3z M231.8,45.4h-1.3v-1.6h1.3h0.5c0.1,0.1,0.3,0.2,0.3,0.3c0,0.1,0,0.3,0,0.5
		c0,0.2,0,0.3,0,0.5c-0.1,0.1-0.2,0.2-0.3,0.3h-0.5"/>
	<path class="st2" d="M48.6,27.5h19V13.6H15.8v13.9h19v68.8h13.9L48.6,27.5z M73.6,62.9c1.6-6.6,7.7-11.1,14.5-10.7
		c6.8-0.3,12.8,4.2,14.5,10.7H73.6z M73.6,74h43.2V72c0.3-8.4-2.5-16.6-8-23.1c-5.3-5.8-12.9-9.1-20.8-8.9
		c-7.7-0.2-15.2,2.9-20.6,8.5c-10.2,11.3-10.2,28.5,0,39.9c5.8,5.9,13.8,9.2,22.1,8.9c9,0,17.6-3.9,23.5-10.7l-8.8-8.8
		c-3.6,4.6-9,7.3-14.8,7.4c-4,0.1-8-1.3-11.1-3.8C76.1,79.4,74.4,76.9,73.6,74 M141.4,55h16.2V41.1h-29.9v55h13.9L141.4,55z
		 M208.4,68.9c0.4,9-6.5,16.6-15.5,17c-9,0.4-16.6-6.5-17-15.5c0-0.5,0-1,0-1.5c0-4.4,1.7-8.7,4.9-11.8c6.3-6.3,16.5-6.3,22.8,0
		C206.7,60.2,208.5,64.5,208.4,68.9 M221.7,68.9c0-7.6-3-14.8-8.3-20.1c-11.8-11.3-30.5-11.3-42.4,0c-11,11.1-11.1,29-0.2,40.3
		c12.1,11.2,30.7,11.2,42.8,0C218.8,83.7,221.8,76.4,221.7,68.9"/>
	<polygon class="st2" points="141.5,55 157.6,55 157.6,41.3 127.7,41.3 127.7,96.3 141.5,96.3 	"/>
	<rect x="2.1" y="41.3" class="st2" width="13.8" height="55.1"/>
	<rect x="2.1" class="st2" width="13.8" height="13.8"/>
	<path class="st2" d="M13.6,160c5.7,0,8-3.5,8-9.4s-2.6-10.2-7.8-10.2H8.9V160H13.6z M2.8,135.2h11.7c8,0,13.2,6.5,13.2,15.4
		c0.2,4.5-1.5,8.8-4.8,11.8c-2.5,2-5.7,3-8.9,2.9H2.8L2.8,135.2z"/>
	<rect x="35.5" y="135.2" class="st2" width="6.1" height="30.1"/>
	<path class="st2" d="M72.6,161.2L72.6,161.2c-1.7,3.1-5,4.9-8.4,4.7c-3.9,0.1-7.7-1.5-10.4-4.4c-2.7-3.1-4.1-7.1-3.9-11.2
		c-0.2-4.6,1.6-9.1,4.9-12.3c2.7-2.3,6.1-3.6,9.7-3.5c6.3-0.6,12,3.8,12.9,10.1H71c-0.7-3.2-3.7-5.4-6.9-5c-5.7,0-8.5,4.7-8.5,10.7
		S58.8,161,64,161c4,0.2,7.5-2.9,7.7-6.9l0,0h-7.1v-4.7h12.7v16h-4.6L72.6,161.2z"/>
	<rect x="86.1" y="135.2" class="st2" width="6.1" height="30.1"/>
	<polygon class="st2" points="99.7,135.2 123.9,135.2 123.9,140.3 114.8,140.3 114.8,165.3 108.7,165.3 108.7,140.3 99.7,140.3 	"/>
	<path class="st2" d="M135,154.2h8l-2.7-8.7c-0.5-1.6-1.2-4.6-1.2-4.6l0,0c0,0-0.8,3-1.3,4.6L135,154.2z M135.9,135.2h6.3l10.6,30.1
		h-6.4l-2-6.4h-10.9l-2,6.4h-6.2L135.9,135.2z"/>
	<polygon class="st2" points="159.7,135.2 165.8,135.2 165.8,160.2 179.9,160.2 179.9,165.3 159.7,165.3 	"/>
	<path class="st2" d="M205.5,149.4h6.3c2.4,0.3,4.5-1.3,4.9-3.7c0-0.3,0.1-0.6,0-0.8c0.1-2.3-1.6-4.3-3.9-4.4c-0.3,0-0.6,0-0.8,0
		h-6.4V149.4z M199.1,135.2h13.2c2.9-0.2,5.8,0.8,7.9,2.8c1.8,1.9,2.8,4.4,2.7,6.9c0.2,5-3.7,9.3-8.7,9.6c-0.4,0-0.9,0-1.3,0h-7.4
		v10.8h-6.3V135.2z"/>
	<path class="st2" d="M236.4,148.5h6.5c3.5,0,5-1.7,5-4.1c0-2.4-1.6-4.2-4.8-4.2h-6.7L236.4,148.5z M230.4,135.2h13.9
		c5.8,0,9.7,3.5,9.7,8.4c0.2,3.5-2.1,6.6-5.5,7.3l0,0c2.8,0.6,4.7,3.2,4.6,6c0.4,4.3,0.2,7.5,1.3,8v0.3h-5.8
		c-0.8-0.3-0.8-3.7-1.1-6.9c0-2.8-2.2-5.2-5.1-5.2c-0.3,0-0.5,0-0.8,0.1h-4.9v12.3h-6.1L230.4,135.2z"/>
	<path class="st2" d="M269.8,154.2h8l-2.7-8.7c-0.5-1.6-1.2-4.6-1.2-4.6l0,0c0,0-0.8,3-1.3,4.6L269.8,154.2z M270.6,135.2h6.3
		l10.6,30.1h-6.4l-2-6.4h-10.8l-2,6.4h-6.2L270.6,135.2z"/>
	<path class="st2" d="M291.5,150.3c0-8.9,5.6-15.7,14.4-15.7c6.2-0.6,11.7,3.9,12.4,10.1h-6c-0.5-3.1-3.3-5.3-6.4-5
		c-5.6,0-8.2,4.6-8.2,10.4c0,5.8,3.2,10.4,8.2,10.4c3.2,0.3,6.1-2.1,6.5-5.3h6c-0.3,2.7-1.5,5.1-3.5,6.9c-2.5,2.2-5.8,3.4-9.1,3.2
		c-8,0-14.5-6.5-14.5-14.5c0-0.4,0-0.7,0-1.1"/>
	<polygon class="st2" points="323.6,135.2 347.8,135.2 347.8,140.3 338.8,140.3 338.8,165.3 332.7,165.3 332.7,140.3 323.6,140.3 	
		"/>
	<rect x="355.4" y="135.2" class="st2" width="6.1" height="30.1"/>
	<path class="st2" d="M369.2,150.3c0-8.9,5.6-15.7,14.4-15.7c6.2-0.6,11.7,3.9,12.4,10.1H390c-0.5-3.1-3.3-5.3-6.4-5
		c-5.6,0-8.2,4.6-8.2,10.4c0,5.8,3.2,10.4,8.3,10.4c3.2,0.3,6.1-2.1,6.5-5.3h6c-0.3,2.7-1.5,5.1-3.5,6.9c-2.5,2.2-5.8,3.4-9.1,3.2
		c-8,0-14.5-6.5-14.5-14.5c0-0.4,0-0.7,0-1.1"/>
	<polygon class="st2" points="403.7,135.2 425.9,135.2 425.9,140.3 409.8,140.3 409.8,147.1 423.9,147.1 423.9,152.1 409.8,152.1 
		409.8,160.2 426,160.2 426,165.3 403.7,165.3 	"/>
	<path class="st6" d="M154.2,368.3h2.3c3.3,0.4,6.2,2.7,7.2,5.9h1.7c2.4,0,4.8,0.5,6.9,1.5c1.2-0.7,2.6-1,4-1h4.1h1.3
		c0.9-0.2,1.8-0.3,2.7-0.3h1.4c1-3.6,4.3-6.2,8.1-6.2h4.2c2.7,0,5.2,1.3,6.8,3.5c1.6-2.2,4.2-3.5,6.9-3.5h4.2c2.8,0,5.4,1.4,6.9,3.8
		c1.5-2.3,4.1-3.7,6.9-3.8h4.2c3.7,0,7,2.4,8.1,6c0.5,0,0.9,0,1.4,0c5.1-0.2,10,2.2,13,6.4c3-4.3,7.9-6.7,13.1-6.4
		c2.3,0,4.5,0.4,6.6,1.2c1.1-0.5,2.3-0.8,3.5-0.8h5.1c1.3-0.3,2.6-0.5,3.9-0.5c2.6,0,5.1,0.7,7.4,2.1c1.2-0.7,2.5-1.3,3.9-1.7
		c1-3.7,4.4-6.3,8.2-6.3h4.2c2.3,0,4.5,1,6.1,2.6c1.4-0.9,3-1.3,4.6-1.3h4.1c3.4,0,6.5,2.1,7.8,5.2c1.5-0.5,3.1-0.7,4.8-0.7
		c3.2,0,6.2,0.9,8.9,2.6c2.6-1.7,5.6-2.6,8.8-2.6c2.3,0,4.6,0.5,6.8,1.4c1.2-0.6,2.5-0.9,3.8-0.9h5.4c1.2-0.3,2.5-0.5,3.8-0.5
		c2.4,0,4.8,0.7,6.9,1.9c2.4-1.3,5.1-1.9,7.8-1.9c7.8-0.5,14.6,5.2,15.3,13c0.1,1,0,2-0.2,2.9c0.4,1.4,0.7,2.9,0.7,4.3
		c0,7.9-6.4,13.6-15.2,13.6c-2.2,0-4.5-0.4-6.6-1.1c-1,0.4-2.1,0.7-3.2,0.7h-4.2c-1,0-2-0.2-3-0.6c-1,0.4-2,0.5-3,0.6h-4.2
		c-1.2,0-2.4-0.3-3.5-0.8c-2.1,0.8-4.3,1.3-6.6,1.3c-3.1,0-6.2-0.8-8.9-2.4c-2.6,1.6-5.7,2.4-8.8,2.4c-2.3,0-4.6-0.4-6.7-1.3
		c-0.9,0.4-1.9,0.7-2.9,0.7c0,0-1.1,0-3.2,0c-3.1,0.1-6.2-1-8.6-3c-1.6,1.9-4,3-6.4,3h-4.1h-0.9c-1.3,0.4-2.6,0.5-3.9,0.5
		c-2,0-4-0.4-5.9-1.2c-1.1,0.5-2.3,0.7-3.5,0.7h-4.3c-1,0-2.1-0.2-3-0.6c-1,0.4-2,0.6-3,0.6h-4.2c-0.9-0.2-1.9-0.2-2.8,0H273
		c-0.4,0-0.8,0-1.2,0c-1.3,0.3-2.7,0.5-4.1,0.5c-4.4,0.1-8.5-1.8-11.3-5.2c-3.1,3.5-7.6,5.4-12.2,5.3c-2.3,0-4.5-0.4-6.7-1.1
		c-1,0.4-2.1,0.7-3.3,0.7h-4.1h-0.9c-3.3,0.9-6.8,0.6-9.9-0.7c-1.1,0.5-2.3,0.8-3.5,0.8h-4.2c-0.3,0-0.6,0-0.9,0c-0.4,0-0.8,0-1.2,0
		h-5.1c-1.1,0-2.2-0.2-3.2-0.6c-1,0.4-2.1,0.6-3.2,0.6H194c-2.6,0-5.1-1.3-6.7-3.5c-1.6,2.1-4,3.4-6.7,3.5h-4.2c-1.4,0-2.7-0.4-4-1
		c-2.2,1-4.6,1.5-6.9,1.5c-2.8,0-5.5-0.6-7.9-1.9c-1.4,0.9-3,1.4-4.7,1.4h-4.4c-4.7,0-8.5-3.8-8.5-8.5v-7.4
		c-1.4-1.5-2.2-3.6-2.2-5.7v-3c0-2.5,1.2-5,3.1-6.6c0.7-1.8,1.8-3.4,3.3-4.8C147,369.4,150.5,368.2,154.2,368.3 M154.2,365.5
		L154.2,365.5c-4.4-0.1-8.6,1.4-11.9,4.3c-1.6,1.4-2.9,3.2-3.8,5.1c-2.3,2.2-3.5,5.2-3.5,8.3v3c0,2.4,0.8,4.7,2.2,6.7v6.4
		c0,6.3,5.1,11.4,11.4,11.4h4.2c1.7,0,3.3-0.4,4.8-1.1c2.5,1,5.1,1.6,7.8,1.5c2.4,0,4.7-0.4,6.9-1.2c1.3,0.5,2.6,0.8,4,0.8h4.2
		c2.4,0,4.8-0.8,6.7-2.2c1.9,1.4,4.3,2.2,6.7,2.2h4.2c1.1,0,2.2-0.1,3.2-0.5c1,0.3,2.1,0.5,3.2,0.5h5.1h1.2h0.9h4.2
		c1.2,0,2.4-0.2,3.5-0.6c1.9,0.7,4,1,6,1c1.4,0,2.8-0.1,4.2-0.5h4.8c1.2,0,2.3-0.2,3.5-0.5c2.2,0.6,4.4,1,6.6,0.9
		c4.4,0.1,8.7-1.4,12.2-4.1c3.2,2.6,7.2,4,11.4,4c1.4,0,2.8-0.1,4.2-0.5h1.1h4.1c0.5,0,0.9,0,1.4,0c0.4,0,0.9,0,1.4,0h4.2
		c1,0,2-0.1,3-0.4c1,0.3,2,0.4,3,0.4h4.2c1.2,0,2.4-0.2,3.5-0.5c1.9,0.7,3.9,1,5.9,1c1.4,0,2.8-0.1,4.2-0.5h4.8
		c2.4,0,4.7-0.8,6.6-2.2c2.5,1.5,5.4,2.3,8.4,2.2c2.1,0,3.5,0,3.5,0c0.9-0.1,1.9-0.2,2.7-0.5c2.2,0.7,4.4,1.1,6.7,1c3,0,6-0.7,8.8-2
		c2.8,1.3,5.8,2,8.9,2c2.2,0,4.4-0.4,6.5-1.1c1.2,0.4,2.4,0.6,3.7,0.6h4.2c1,0,2-0.1,3-0.4c1,0.3,2,0.4,3,0.4h4.2
		c1.1,0,2.2-0.2,3.3-0.5c2.1,0.6,4.3,1,6.6,0.9c10.4,0,18.1-6.9,18.1-16.5c0-1.5-0.2-3-0.6-4.4c0.1-1,0.1-2.1,0-3.1
		c-0.9-9.2-8.9-16-18.2-15.6c-2.7,0-5.3,0.5-7.8,1.5c-2.2-1-4.5-1.5-6.9-1.5c-1.4,0-2.7,0.1-4.1,0.5h-4.9c-1.3,0-2.6,0.3-3.9,0.7
		c-2.1-0.8-4.4-1.2-6.7-1.1c-3,0-6,0.7-8.8,2.1c-2.8-1.4-5.8-2.1-8.9-2.1c-1.2,0-2.3,0.1-3.5,0.3c-2.1-3-5.6-4.8-9.3-4.8h-4.1
		c-1.4,0-2.8,0.3-4.2,0.8c-1.9-1.4-4.2-2.1-6.5-2.1h-4.2c-4.6,0-8.7,2.8-10.4,6.9c-0.6,0.2-1.2,0.5-1.7,0.7
		c-2.3-1.1-4.8-1.7-7.4-1.7c-1.4,0-2.7,0.1-4.1,0.5h-4.9c-1.2,0-2.4,0.2-3.5,0.6c-2.1-0.7-4.3-1-6.6-1c-4.8-0.2-9.5,1.5-13.1,4.8
		c-3.4-3.1-7.9-4.8-12.5-4.8c-2-3.6-5.8-5.9-9.9-5.9h-4.5c-2.5,0-5,0.9-6.9,2.5c-2-1.6-4.4-2.5-6.9-2.5H212c-2.5,0-4.9,0.8-6.9,2.3
		c-1.9-1.5-4.3-2.3-6.8-2.3H194c-4.2,0-8.1,2.4-10,6.1c-0.8,0-1.6,0.1-2.3,0.2h-1.1h-4.1c-1.4,0-2.8,0.3-4.1,0.8
		c-2.2-0.8-4.6-1.2-6.9-1.2c-1.8-3.2-5-5.4-8.7-5.8c-0.9-0.1-1.7-0.2-2.6-0.2"/>
	<path class="st2" d="M430,263.8h8.9v3.7c2.5-3.1,6.3-4.8,10.2-4.8c9.8,0,15.1,6,15.1,16.6v24.6h-9.1v-24.3c0.4-4.4-2.8-8.3-7.2-8.7
		c-4.4-0.4-8.3,2.8-8.7,7.2c0,0.5,0,1,0,1.5v24.3H430V263.8z M352,303.9h-9.3v-58.2h9.3V303.9z M371.7,303.9h-9.2v-40.1h9.2V303.9z
		 M367.1,244.9c-3.2,0-5.8,2.6-5.8,5.8c0,3.2,2.6,5.8,5.8,5.8c3.2,0,5.8-2.6,5.8-5.8C372.9,247.5,370.3,244.9,367.1,244.9
		C367.1,244.9,367.1,244.9,367.1,244.9 M323,264h9.2v40.1H323v-4.2c-3.3,3.3-7.7,5.2-12.4,5.3c-10.9,0-19-8.8-19-21.2
		c0-13.1,8.8-21.2,19-21.2c4.7-0.1,9.3,1.8,12.4,5.3V264z M300.9,284c0,7.7,4.7,12.8,11.3,12.8c5.9,0,11.3-4.3,11.3-12.8
		c0-8.5-5.1-12.8-11.3-12.8C305.2,271.2,300.9,276.7,300.9,284 M410.7,284c0-8.3-5.3-12.8-11.3-12.8c-7.2,0-11.3,5.8-11.3,12.8
		c0,7,4.4,12.8,11.3,12.8C405.8,296.8,410.7,292.1,410.7,284 M419.5,300.1c0,17.4-10,22.9-21.9,22.9c-5,0.1-9.9-1-14.3-3.2l2.3-8
		c3.6,2.1,7.8,3.1,11.9,3.1c6.6,0.4,12.3-4.5,12.7-11.1c0-0.4,0-0.8,0-1.3v-2.8c-3.2,3.5-7.8,5.5-12.5,5.3c-10.8,0-19-8.6-19-21.2
		c0-11.9,7.7-21.2,19-21.2c4.7-0.2,9.3,1.8,12.4,5.3V264h9.2L419.5,300.1z"/>
	<path class="st2" d="M207.5,263.8l10.4,24.1l10.4-24.1h10.2l-20.7,42.8l-20.5-42.8H207.5z M259.3,294.7c3.2,1.8,6.8,2.8,10.4,3
		c4.5,0,6.7-1.9,6.7-4.6s-1.7-4.2-6.7-6.1c-7.9-2.7-11-6.9-11-11.6c0-7.2,5.6-12.7,15.1-12.7c3.7-0.1,7.5,0.8,10.8,2.4l-2,7.2
		c-2.6-1.5-5.6-2.3-8.6-2.3c-3.5,0-5.8,1.8-5.8,4.3c0,2.5,1.9,3.9,6.9,5.8c7.4,2.6,10.7,6.3,10.7,12.3c0,7.4-5.5,12.6-16.2,12.6
		c-4.3,0.1-8.5-0.9-12.4-2.8L259.3,294.7z M150.4,303.9h-9.2v-40.1h9.2V303.9z M145.8,244.9c-3.2,0-5.8,2.6-5.8,5.8
		c0,3.2,2.6,5.8,5.8,5.8c3.2,0,5.8-2.6,5.8-5.8C151.6,247.5,149.1,244.9,145.8,244.9C145.9,244.9,145.9,244.9,145.8,244.9
		 M251,303.9h-9.2v-40.1h9.2V303.9z M246.4,244.9c-3.2,0-5.8,2.6-5.8,5.8c0,3.2,2.6,5.8,5.8,5.8c3.2,0,5.8-2.6,5.8-5.8
		C252.2,247.5,249.6,244.9,246.4,244.9C246.4,244.9,246.4,244.9,246.4,244.9 M160.9,264h8.9l0.2,3.7c2.5-3.2,6.4-4.9,10.4-4.8
		c8.9,0,15,6,15,16.6v24.6H186v-24.3c0.4-4.4-2.8-8.3-7.2-8.7c-4.4-0.4-8.3,2.8-8.7,7.2c0,0.5,0,1,0,1.5v24.3h-9.3L160.9,264z"/>
	<path class="st2" d="M479.5,261.2c3.4,0,6.1,2.7,6.1,6.1s-2.7,6.1-6.1,6.1c-3.4,0-6.1-2.7-6.1-6.1S476.2,261.2,479.5,261.2
		L479.5,261.2 M479.5,272.5c2.9,0.1,5.3-2.2,5.4-5c0.1-2.9-2.2-5.3-5-5.4c-2.9-0.1-5.3,2.2-5.4,5c0,0.1,0,0.1,0,0.2
		c-0.1,2.8,2.1,5.1,4.9,5.2C479.5,272.5,479.5,272.5,479.5,272.5 M477.2,263.7h2.7c1.7,0,2.5,0.7,2.5,2c0.1,1-0.7,1.9-1.7,1.9
		c0,0-0.1,0-0.1,0l2,3.2h-1.2l-1.9-3.1h-1.2v3.1h-1.1L477.2,263.7z M478.3,266.9h1.1c1,0,1.9,0,1.9-1.2s-0.8-1.1-1.6-1.1h-1.4V266.9
		z"/>
	<path class="st2" d="M115.9,283.9c-5.8-3.3-12-5.6-18.5-6.9c0.8,4.6,0.8,9.3,0,13.9C103.9,289.5,110.2,287.2,115.9,283.9"/>
	<path class="st2" d="M90.8,261c3.7-5.6,6.4-11.7,8.2-18.1c-6.4,1.7-12.5,4.5-18.1,8.2C84.7,253.7,88.1,257.1,90.8,261"/>
	<path class="st2" d="M50.9,244.5c4.6-0.8,9.3-0.8,13.9,0c-1.3-6.5-3.6-12.8-6.9-18.5C54.6,231.7,52.2,237.9,50.9,244.5"/>
	<path class="st2" d="M25.1,261c2.7-3.9,6.1-7.2,9.9-9.9c-5.6-3.6-11.6-6.4-18.1-8.1C18.7,249.3,21.4,255.4,25.1,261"/>
	<path class="st2" d="M0,283.9c5.8,3.3,12,5.7,18.5,6.9c-0.8-4.6-0.8-9.3,0-13.9C12,278.2,5.8,280.6,0,283.9"/>
	<path class="st2" d="M25.1,306.8c-3.7,5.5-6.4,11.6-8.2,18.1c6.4-1.7,12.5-4.5,18.1-8.1C31.2,314,27.8,310.7,25.1,306.8"/>
	<path class="st2" d="M50.9,323.3c1.3,6.5,3.6,12.8,6.9,18.5c3.3-5.8,5.6-12,6.9-18.5C60.2,324.1,55.5,324.1,50.9,323.3"/>
	<path class="st2" d="M80.9,316.7c5.6,3.6,11.7,6.4,18.1,8.1c-1.7-6.4-4.5-12.5-8.2-18.1C88.1,310.7,84.7,314,80.9,316.7"/>
	<g class="st7">
		<g>
			<defs>
				<rect id="SVGID_5_" x="17.9" y="243.8" width="80.1" height="80.1"/>
			</defs>
			<clipPath id="SVGID_2_">
				<use xlink:href="#SVGID_5_"  style="overflow:visible;"/>
			</clipPath>
			<g class="st8">
				<path class="st2" d="M97.4,276.9c-2.4-0.5-4.8-0.7-7.2-0.7c-2.5,0-5,0.3-7.5,0.9c1.3,4.5,1.3,9.3,0,13.9c2.5,0.6,5,0.9,7.5,0.9
					c2.4,0,4.8-0.3,7.2-0.7c0.8-4.6,0.8-9.3,0-13.9"/>
				<path class="st2" d="M80.3,271.3c2.1-1.3,4.1-2.9,5.9-4.7c1.7-1.7,3.2-3.6,4.5-5.6c-2.7-3.9-6-7.3-9.9-9.9
					c-2,1.3-3.9,2.9-5.6,4.5c-1.8,1.8-3.3,3.8-4.7,5.9C74.6,263.8,78,267.2,80.3,271.3"/>
				<path class="st2" d="M58,243.8c-2.3,0-4.7,0.2-6.9,0.6c-0.5,2.4-0.7,4.8-0.7,7.2c0,2.5,0.3,5,0.9,7.5c4.5-1.3,9.3-1.3,13.9,0
					c0.6-2.5,0.9-5,0.9-7.5c0-2.4-0.3-4.8-0.7-7.2c-2.3-0.4-4.6-0.6-6.9-0.6"/>
				<path class="st2" d="M35,251c-3.9,2.7-7.2,6.1-9.9,9.9c1.4,2,2.9,3.9,4.6,5.6c1.8,1.8,3.8,3.3,5.9,4.7c2.3-4.1,5.7-7.4,9.7-9.8
					c-1.3-2.1-2.9-4.1-4.7-5.9C38.9,253.9,37,252.4,35,251"/>
				<path class="st2" d="M33.2,290.8c-1.3-4.5-1.3-9.3,0-13.9c-2.5-0.6-5-0.9-7.5-0.9c-2.4,0-4.8,0.3-7.2,0.7
					c-0.8,4.6-0.8,9.3,0,13.9c2.4,0.5,4.8,0.7,7.2,0.7c2.5,0,5-0.3,7.5-0.9"/>
				<path class="st2" d="M35.6,296.5c-2.1,1.3-4.1,2.9-5.9,4.7c-1.7,1.7-3.2,3.6-4.6,5.6c2.7,3.9,6.1,7.2,9.9,9.9
					c2-1.3,3.9-2.9,5.6-4.5c1.8-1.8,3.4-3.8,4.7-5.9C41.3,303.9,37.9,300.6,35.6,296.5"/>
				<path class="st2" d="M58,309.5c-2.3,0-4.7-0.3-6.9-0.9c-0.6,2.5-0.8,5-0.8,7.5c0,2.4,0.2,4.8,0.7,7.2c4.7,0.8,9.4,0.8,14.1,0
					c0.5-2.4,0.7-4.8,0.7-7.2c0-2.5-0.3-5-0.9-7.5c-2.3,0.6-4.6,1-6.9,0.9"/>
				<path class="st2" d="M80.3,296.5c-2.3,4.1-5.7,7.4-9.7,9.7c1.3,2.1,2.9,4.1,4.7,5.9c1.7,1.7,3.6,3.2,5.6,4.6
					c3.9-2.7,7.2-6.1,9.9-9.9c-1.3-2-2.9-3.9-4.6-5.6C84.4,299.4,82.5,297.8,80.3,296.5"/>
			</g>
		</g>
	</g>
	<g class="st9">
		<g>
			<defs>
				<rect id="SVGID_7_" x="32.3" y="258.2" width="51.3" height="51.3"/>
			</defs>
			<clipPath id="SVGID_4_">
				<use xlink:href="#SVGID_7_"  style="overflow:visible;"/>
			</clipPath>
			<g class="st10">
				<path class="st2" d="M82.7,277c-3.8-2.6-9-1.6-11.6,2.3c-2.6,3.8-1.6,9,2.3,11.6c2.8,1.9,6.5,1.9,9.3,0
					C84,286.4,84,281.5,82.7,277"/>
				<path class="st2" d="M70.6,261.5c-2.6,4.3-4.2,9.2-4.4,14.2c5-0.3,9.9-1.8,14.2-4.4C78,267.2,74.6,263.8,70.6,261.5"/>
				<path class="st2" d="M51.1,259.1c1.2,4.9,3.5,9.4,6.9,13.2c3.4-3.7,5.8-8.3,6.9-13.2C60.4,257.8,55.6,257.8,51.1,259.1"/>
				<path class="st2" d="M35.6,271.3c4.3,2.6,9.1,4.2,14.2,4.4c-0.2-5-1.8-9.9-4.4-14.2C41.3,263.8,37.9,267.2,35.6,271.3"/>
				<path class="st2" d="M33.2,277c-1.3,4.5-1.3,9.3,0,13.9c3.8,2.6,9,1.6,11.6-2.3c2.6-3.8,1.6-9-2.3-11.6
					C39.7,275.1,36,275.1,33.2,277"/>
				<path class="st2" d="M45.3,306.2c2.7-4.3,4.2-9.1,4.4-14.2c-5,0.2-9.9,1.8-14.2,4.4C37.9,300.6,41.3,303.9,45.3,306.2"/>
				<path class="st2" d="M51.1,308.6c4.5,1.3,9.3,1.3,13.9,0c-1.2-4.9-3.6-9.4-6.9-13.2C54.6,299.2,52.2,303.7,51.1,308.6"/>
				<path class="st2" d="M70.6,306.2c4.1-2.3,7.4-5.7,9.7-9.7c-4.3-2.7-9.1-4.2-14.2-4.4C66.4,297.1,67.9,302,70.6,306.2"/>
			</g>
		</g>
	</g>
	<path class="st2" d="M141.6,328.9h9.7c2.1-0.1,4.2,0.6,5.7,2c1.3,1.3,2,3.1,2,5c0.2,3.7-2.6,6.8-6.3,7c-0.4,0-0.7,0-1.1,0h-5.5v7.9
		h-4.6V328.9z M146.2,339.3h4.6c1.7,0.2,3.3-1,3.5-2.8c0-0.2,0-0.3,0-0.5c0.1-1.7-1.2-3.2-2.9-3.2c-0.2,0-0.4,0-0.5,0h-4.6V339.3z"
		/>
	<path class="st2" d="M164.1,328.9h10c3.4-0.4,6.5,2.1,6.9,5.5c0,0.2,0,0.4,0,0.6c0.2,2.5-1.6,4.8-4,5.3l0,0
		c2.1,0.4,3.5,2.3,3.5,4.4c0.3,3.1,0,5.5,1,5.8v0.2h-4.3c-0.6-0.2-0.6-2.7-0.8-5c0-2.1-1.6-3.7-3.6-3.8c-0.2,0-0.4,0-0.6,0h-3.5v8.8
		h-4.6V328.9z M168.6,338.5h4.7c2.4,0,3.5-1.3,3.5-3c0-1.8-1.1-3.1-3.5-3.1h-4.7L168.6,338.5z"/>
	<path class="st2" d="M186,339.8c0.5-5.7,5.6-9.9,11.3-9.4c5.7,0.5,9.9,5.6,9.4,11.3c-0.5,5.3-5,9.4-10.3,9.4
		c-5.8,0-10.4-4.6-10.5-10.4C186,340.5,186,340.1,186,339.8 M202.6,339.8c0-4.3-2-7.7-6-7.7c-4,0-6,3.5-6,7.7s2,7.7,6,7.7
		C200.6,347.5,202.6,344.1,202.6,339.8"/>
	<path class="st2" d="M210,328.9h4.7l3.9,12.6c0.4,1.4,0.9,3.5,0.9,3.5l0,0c0,0,0.5-2.1,0.9-3.5l3.8-12.6h4.5l-7.4,21.8h-4.1
		L210,328.9z"/>
	<rect x="233.6" y="328.8" class="st2" width="4.4" height="21.8"/>
	<path class="st2" d="M244.5,328.8h8.5c5.8,0,9.6,4.7,9.6,11.2c0.2,3.2-1.1,6.4-3.5,8.6c-1.8,1.5-4.1,2.2-6.5,2.1h-8.2L244.5,328.8z
		 M252.4,346.9c4.1,0,5.8-2.5,5.8-6.9s-1.9-7.4-5.7-7.4H249v14.2L252.4,346.9z"/>
	<polygon class="st2" points="268.1,328.9 284.2,328.9 284.2,332.6 272.6,332.6 272.6,337.5 282.8,337.5 282.8,341.1 272.6,341.1 
		272.6,347 284.3,347 284.3,350.7 268.1,350.7 	"/>
	<path class="st2" d="M290.2,328.9h10c3.4-0.4,6.5,2,6.9,5.4c0,0.2,0,0.4,0,0.6c0.2,2.5-1.5,4.8-4,5.3l0,0c2.1,0.4,3.5,2.3,3.5,4.4
		c0.3,3.1,0.2,5.5,0.9,5.8v0.2h-4.2c-0.6-0.2-0.6-2.7-0.8-5c0-2.1-1.6-3.7-3.6-3.8c-0.2,0-0.4,0-0.6,0h-3.5v8.8h-4.6V328.9z
		 M294.6,338.5h4.7c2.4,0,3.5-1.3,3.5-3c0-1.8-1.1-3.1-3.5-3.1h-4.8L294.6,338.5z"/>
	<path class="st11" d="M146.1,382.2h2.2v-1.5c0-3.9,3.1-5.3,7.2-4.9v3.5c-2,0-2.9,0-2.9,1.8v1.2h2.9v3h-2.9v13.2h-4.3v-13.2h-2.2
		V382.2z"/>
	<path class="st11" d="M156.9,390.3c0.1-4.7,3.9-8.4,8.5-8.3c4.7,0.1,8.4,3.9,8.3,8.5c-0.1,4.6-3.8,8.4-8.5,8.3
		c-4.5,0.1-8.3-3.5-8.4-8C156.9,390.6,156.9,390.4,156.9,390.3 M169.4,390.3c0-3.1-1.5-5.3-4.1-5.3s-4.1,2.2-4.1,5.3
		s1.4,5.2,4.1,5.2S169.4,393.4,169.4,390.3"/>
	<path class="st11" d="M180.5,384.8L180.5,384.8c0.6-1.7,2.2-2.8,4-2.8c0.3-0.1,0.7-0.1,1,0v3.8l0,0c-2.8-0.3-4.8,1.2-4.8,4.6v7.8
		h-4.3v-16.1h4.1V384.8z"/>
	<polygon class="st11" points="200.3,391 198.4,392.9 198.4,398.3 194.2,398.3 194.2,375.8 198.4,375.8 198.4,388.3 204.1,382.2 
		209.3,382.2 203.3,388.3 210,398.3 204.8,398.3 	"/>
	<path class="st11" d="M212.1,375.8h4.3v3.8h-4.3V375.8z M212.1,382.2h4.3v16.1h-4.3V382.2z"/>
	<path class="st11" d="M219,390.3c0-5,2.9-8.5,6.9-8.5c1.8-0.1,3.6,0.8,4.5,2.4l0,0v-8.3h4.3v22.5h-4.1v-2.1l0,0
		c-1,1.7-2.8,2.7-4.8,2.6c-4.1,0-6.9-3.5-6.9-8.5 M230.6,390.3c0-3.1-1-5.1-3.8-5.1c-2.7,0-3.5,2-3.5,5c0,3,1.2,4.9,3.5,4.9
		c2.3,0,3.9-1.9,3.9-4.8"/>
	<path class="st11" d="M237.3,393.1h4c0.2,1.7,1.8,2.9,3.5,2.7c0,0,0,0,0,0c1.9,0,3-0.7,3-1.9c0-1.1-2-1.7-4.3-2.1
		c-2.9-0.6-5.7-1.4-5.7-4.9c0-3.5,2.9-5.1,6.6-5.1c4.2,0,6.6,2.1,6.9,5.3h-3.9c-0.2-1.7-1.3-2.4-3.1-2.4s-2.8,0.6-2.8,1.8
		s2.2,1.5,4.4,2s5.7,1.3,5.7,5.1c0,3.8-2.8,5.2-6.9,5.2c-4.7,0-7.3-2.3-7.5-5.7"/>
	<path class="st12" d="M270,396.5L270,396.5c-1,1.6-2.9,2.4-4.8,2.2c-3.3,0-5.6-1.7-5.6-4.9s2.9-4.7,6.5-5.2
		c2.7-0.3,3.9-0.6,3.9-1.8s-0.9-1.9-2.7-1.9c-1.8,0-3,0.7-3.1,2.3h-3.8c0-2.8,2.2-5.3,6.9-5.3s6.9,2.2,6.9,5.9v8.2
		c0,1.3,0.2,1.9,0.6,2.3l0,0h-4.1c-0.3-0.6-0.5-1.2-0.5-1.8 M270.2,392.5V390c-1,0.4-2,0.8-3,1c-2.3,0.5-3.5,1-3.5,2.5s1,2,2.5,2
		c1.9,0.2,3.6-1.2,3.8-3.1c0,0,0,0,0,0"/>
	<path class="st12" d="M281.7,384.4L281.7,384.4c1-1.7,2.8-2.7,4.8-2.6c3,0,5.5,2.4,5.6,5.5c0,0.2,0,0.4,0,0.6v10.4h-4.3v-9.9
		c0.2-1.5-0.9-2.8-2.4-2.9c-0.1,0-0.3,0-0.4,0c-1.9,0.1-3.4,1.8-3.3,3.7c0,0,0,0,0,0v9.1h-4.3v-16.1h4.2L281.7,384.4z"/>
	<path class="st12" d="M294.6,390.3c0-5,2.9-8.5,6.9-8.5c1.8-0.1,3.6,0.8,4.5,2.4l0,0v-8.3h4.3v22.5h-4.1v-2.1l0,0
		c-1,1.7-2.8,2.7-4.8,2.6c-4.1,0-6.9-3.5-6.9-8.5 M306.2,390.3c0-3.1-1-5.1-3.8-5.1c-2.7,0-3.5,2-3.5,5c0,3,1.3,4.9,3.5,4.9
		c2.2,0,3.9-1.9,3.9-4.8"/>
	<path class="st13" d="M319,382.2h2.2v-5h4.2v5h2.8v2.8h-2.8v8.5c-0.1,0.8,0.4,1.5,1.2,1.6c0.1,0,0.3,0,0.5,0h1.4v3.1c0,0-1,0-2.7,0
		c-1.7,0-4.4-0.8-4.4-3.9V385h-2.2L319,382.2z"/>
	<path class="st13" d="M330.2,390.2c-0.3-4.4,3.1-8.2,7.5-8.5c0.2,0,0.3,0,0.5,0c5.2,0,8,4,8,9.7h-11.7c0,2.2,1.8,4,4,4
		c0,0,0.1,0,0.1,0c1.4,0.1,2.6-0.7,3.1-2h4.1c-0.8,3.3-3.9,5.5-7.3,5.3c-4.4,0.2-8.2-3.2-8.4-7.6
		C330.1,390.9,330.1,390.6,330.2,390.2 M334.4,388.5h7.2c0-1.9-1.6-3.5-3.5-3.5c-1.9-0.2-3.6,1.3-3.7,3.2
		C334.3,388.3,334.3,388.4,334.4,388.5"/>
	<path class="st13" d="M348,390.2c-0.3-4.4,3.1-8.2,7.5-8.5c0.2,0,0.3,0,0.5,0c5.2,0,8,4,8,9.7h-11.7c0,2.2,1.8,4,4,4
		c0,0,0.1,0,0.1,0c1.4,0.1,2.6-0.7,3.1-2h4.2c-0.8,3.3-3.9,5.5-7.3,5.3c-4.4,0.2-8.2-3.2-8.4-7.6C348,390.9,348,390.6,348,390.2
		 M352.3,388.5h7.2c0-1.9-1.6-3.5-3.5-3.5c-1.9-0.2-3.6,1.3-3.7,3.2C352.2,388.3,352.2,388.4,352.3,388.5"/>
	<path class="st13" d="M370.8,384.4L370.8,384.4c1-1.7,2.8-2.7,4.8-2.6c3,0,5.5,2.4,5.6,5.5c0,0.2,0,0.4,0,0.6v10.4H377v-9.9
		c0.2-1.5-0.9-2.8-2.4-2.9c-0.1,0-0.3,0-0.4,0c-1.9,0.1-3.4,1.8-3.3,3.7c0,0,0,0,0,0v9.1h-4.3v-16.1h4.2V384.4z"/>
	<path class="st13" d="M383.6,393.1h3.9c0.2,1.7,1.8,2.9,3.5,2.7c0,0,0,0,0,0c1.9,0,3-0.7,3-1.9c0-1.1-2-1.7-4.3-2.1
		c-2.9-0.6-5.7-1.4-5.7-4.9c0-3.5,2.9-5.1,6.6-5.1c4.2,0,6.6,2.1,6.9,5.3h-3.8c-0.2-1.7-1.3-2.4-3.1-2.4s-2.8,0.6-2.8,1.8
		s2.2,1.5,4.4,2c2.3,0.5,5.7,1.3,5.7,5.1c0,3.8-2.8,5.2-6.9,5.2c-4.7,0-7.3-2.3-7.5-5.7"/>
</g>
</svg>
