<svg width="56" height="47" viewBox="0 0 56 47" fill="none" xmlns="http://www.w3.org/2000/svg">
<path d="M31.3401 31.876C31.5201 28.136 31.0101 23.5461 31.7501 18.9761C33.7501 6.61615 42.4801 1.39574 53.5901 0.0557357C53.8387 -0.0119329 54.1 -0.0180199 54.3515 0.0376693C54.603 0.0933585 54.8372 0.20929 55.034 0.37556C55.2308 0.54183 55.3842 0.753555 55.4811 0.992259C55.5779 1.23096 55.6154 1.48979 55.5901 1.74617C55.6501 4.10617 55.5901 6.47601 55.5901 8.83601C55.5955 9.30728 55.4255 9.7638 55.1132 10.1168C54.8009 10.4697 54.3686 10.6941 53.9001 10.7462C52.7204 11.0439 51.5613 11.4176 50.4301 11.8658C48.9471 12.4449 47.6352 13.391 46.6173 14.6153C45.5994 15.8396 44.9088 17.3019 44.6101 18.8658C44.2101 20.5558 44.6101 21.4758 46.5601 21.4058C48.7101 21.3158 50.8601 21.4058 53.0201 21.4058C54.7901 21.4058 55.6401 22.1662 55.6301 23.9962C55.6301 30.7362 55.6301 37.4759 55.6301 44.2159C55.6301 46.0659 54.7501 46.7857 53.0001 46.7857C46.6201 46.7857 40.2368 46.7857 33.8501 46.7857C32.0701 46.7857 31.2701 46.0259 31.3101 44.1759C31.3901 40.3159 31.3401 36.516 31.3401 31.876Z" fill="#D3D4D8"/>
<path d="M0.010128 32.5162C0.170128 28.9762 -0.21987 24.5158 0.34013 20.0958C1.59013 10.0958 7.44012 3.396 17.2101 1.026C18.8101 0.635996 20.4501 0.395839 22.0701 0.115839C23.6901 -0.164161 24.3301 0.605839 24.3101 2.11584C24.3101 4.19584 24.3101 6.27582 24.3101 8.34582C24.3492 8.62966 24.3306 8.91846 24.2554 9.19494C24.1803 9.47143 24.0501 9.73019 23.8727 9.95519C23.6953 10.1802 23.4744 10.3669 23.223 10.5045C22.9717 10.6421 22.6952 10.7277 22.4101 10.756C20.1403 11.1782 18.0222 12.1924 16.2701 13.6959C15.6385 14.2802 15.096 14.954 14.6601 15.6959C13.7601 17.2559 12.6601 19.1259 13.4301 20.6959C14.1301 22.0859 16.1801 21.1758 17.6301 21.2858C19.0801 21.3958 20.6301 21.2858 22.1401 21.3458C23.4901 21.3458 24.3001 21.9759 24.3001 23.4459C24.3001 30.4659 24.3001 37.4896 24.3001 44.5162C24.3431 44.8032 24.3187 45.0963 24.2288 45.3722C24.139 45.6481 23.9861 45.8989 23.7824 46.1056C23.5786 46.3122 23.3296 46.4688 23.055 46.5626C22.7804 46.6564 22.4877 46.685 22.2001 46.6461C15.5335 46.6461 8.8668 46.6461 2.20013 46.6461C0.54013 46.6461 -0.00986646 45.6461 0.00013354 44.1061C0.0201335 40.5761 0.010128 37.0262 0.010128 32.5162Z" fill="#D3D4D8"/>
</svg>
