<svg width="106" height="106" viewBox="0 0 106 106" fill="none" xmlns="http://www.w3.org/2000/svg">
<path d="M0 0H98.5C99.4385 -9.20444e-07 100.368 0.18502 101.235 0.544464C102.102 0.903908 102.889 1.43072 103.552 2.09479C104.215 2.75886 104.741 3.54716 105.099 4.41458C105.458 5.282 105.641 6.21154 105.64 7.15002V105.65H83.53C61.3765 105.65 40.1302 96.8495 24.4653 81.1846C8.80042 65.5197 0 44.2735 0 22.12V0Z" fill="#393939"/>
<path d="M86.9396 53.3V53.22V53.13C86.1396 50.75 85.5096 48.13 84.9396 45.53C83.2996 38.62 81.5996 31.53 76.1996 26.63C71.7096 22.63 66.5796 20.88 59.0496 20.88C57.8796 20.88 56.5896 20.93 55.0496 21.01C50.6722 21.2636 46.4703 22.8194 42.9833 25.4778C39.4964 28.1363 36.8833 31.776 35.4795 35.93C34.4795 38.93 33.6596 42.09 32.7896 45.59L32.7095 45.9C32.1095 48.26 31.4996 50.7 30.7896 53.01V53.13C30.2996 57.46 33.1496 59.13 36.1996 60.99L36.6696 61.27L37.4895 61.78C39.6195 63.1 41.8096 64.39 43.2596 64.41C44.5464 64.4006 45.7839 63.9135 46.7319 63.0432C47.6798 62.1728 48.2706 60.9814 48.3896 59.7C48.8296 56.64 48.9996 53.42 49.1796 50.31V49.9C49.3396 47.13 49.4995 44.26 49.8395 41.54C50.2846 39.4929 51.4238 37.6627 53.0641 36.3596C54.7044 35.0565 56.7448 34.3606 58.8395 34.39H59.4595C61.6305 34.5189 63.6815 35.4295 65.2331 36.9534C66.7846 38.4774 67.7318 40.5117 67.8996 42.68C68.1496 45.02 68.2896 47.49 68.4196 49.89V50.34C68.5996 53.44 68.7895 56.64 69.2095 59.67C69.3038 60.4379 69.5571 61.1776 69.953 61.8422C70.349 62.5068 70.8792 63.0816 71.5096 63.53C72.3292 64.0773 73.294 64.3664 74.2796 64.36C74.7139 64.3601 75.1469 64.3098 75.5696 64.21C77.1629 63.5987 78.6743 62.7925 80.0696 61.81L80.7095 61.42C80.9695 61.25 81.2196 61.11 81.4996 60.95C84.3896 59.27 87.2996 57.51 86.9396 53.3ZM34.1996 54.6V57.3L33.1996 55.93C32.94 55.3267 32.7812 54.6848 32.7295 54.03V53.95C33.2295 52.09 33.7296 50.17 34.1796 48.3C35.1796 44.49 36.1095 40.56 37.3495 36.79C38.7075 32.6015 41.4281 28.9879 45.078 26.525C48.728 24.0621 53.0972 22.8916 57.4895 23.2V23.64C57.2795 23.64 56.9295 24.08 56.7295 24.32C56.5295 24.56 56.3795 24.73 56.2395 24.78C55.7809 24.8608 55.3151 24.8944 54.8495 24.88C54.4595 24.88 54.0495 24.88 53.8495 24.93C50.6003 25.3726 47.5308 26.6838 44.9646 28.7254C42.3985 30.7671 40.431 33.4634 39.2696 36.53C38.1554 39.7312 37.2239 42.9932 36.4795 46.3C35.7895 49.07 35.0896 51.94 34.1996 54.6ZM80.5995 57.89C78.9869 59.268 77.1979 60.4248 75.2796 61.33C74.9456 61.4658 74.5899 61.5404 74.2295 61.55C73.8796 61.5599 73.5337 61.4734 73.2295 61.3C72.8653 61.0371 72.5649 60.6957 72.3503 60.3011C72.1356 59.9064 72.0123 59.4686 71.9895 59.02C71.6495 56.35 71.5096 53.44 71.3796 50.87C71.2778 47.5739 70.9974 44.2858 70.5396 41.02C69.6996 35.84 64.2795 31.46 58.7095 31.46H58.5995C53.1695 31.46 47.8596 35.88 47.0196 41.02C46.5634 44.2388 46.2864 47.4805 46.1896 50.73V51.04C46.0496 53.69 45.9095 56.45 45.5795 59.04C45.4395 60.18 44.9196 61.55 43.2496 61.55H42.8996C41.1174 60.763 39.4105 59.8157 37.7996 58.72C36.0996 57.4 36.0596 55.96 36.5696 53.72C37.7296 48.84 39.3096 43.14 40.8096 38.45C41.8073 35.0113 43.9214 32.0025 46.8185 29.8985C49.7157 27.7945 53.2309 26.7149 56.8096 26.83H57.3295L57.5296 26.71C57.8123 26.4978 58.0389 26.2197 58.1896 25.9C58.3696 25.56 58.4496 25.47 58.6496 25.43H58.8395C59.0795 25.43 59.1896 25.53 59.4296 25.97C59.5722 26.3186 59.8298 26.608 60.1596 26.79L60.2996 26.85H60.8196C64.4088 26.7454 67.9304 27.84 70.828 29.9607C73.7257 32.0813 75.834 35.1072 76.8196 38.56C77.8196 41.56 78.6696 44.95 79.4396 47.92L79.6996 48.84C79.8396 49.41 79.9996 49.99 80.1396 50.55C80.2596 50.94 80.3696 51.34 80.4996 51.75V51.85C81.2096 53.99 81.8995 56.21 80.5995 57.89ZM84.8896 54.03C84.8461 54.7262 84.6624 55.4065 84.3495 56.03C84.2118 56.316 84.0219 56.5737 83.7896 56.79L83.4396 57.05V54.6C82.5496 51.94 81.8496 49.07 81.1696 46.3C80.434 42.9854 79.5057 39.7165 78.3896 36.51C77.2281 33.4434 75.2606 30.747 72.6945 28.7054C70.1284 26.6638 67.0588 25.3525 63.8096 24.91C63.5696 24.91 63.1696 24.91 62.8096 24.86C62.3408 24.8748 61.8716 24.8413 61.4096 24.76C61.2696 24.76 61.1396 24.57 60.9196 24.3C60.6996 24.03 60.3696 23.65 60.1596 23.62V23.18C64.4907 22.8653 68.8037 23.9964 72.423 26.396C76.0423 28.7956 78.7633 32.3281 80.1596 36.44C81.3996 40.07 82.3496 43.9 83.2696 47.6C83.7796 49.69 84.2696 51.85 84.8896 53.93V54.01V54.03Z" fill="white"/>
</svg>
