<svg width="106" height="106" viewBox="0 0 106 106" fill="none" xmlns="http://www.w3.org/2000/svg">
<path d="M0 0H98.5C99.4385 -9.20444e-07 100.368 0.18502 101.235 0.544464C102.102 0.903908 102.889 1.43072 103.552 2.09479C104.215 2.75886 104.741 3.54716 105.099 4.41458C105.458 5.282 105.641 6.21154 105.64 7.15002V105.65H83.53C61.3765 105.65 40.1302 96.8495 24.4653 81.1846C8.80042 65.5197 0 44.2735 0 22.12V0Z" fill="#393939"/>
<path d="M83.8997 22.88V44.44C84.7897 45.8 87.3297 46.59 88.5097 47.62C89.3281 48.5338 90.0363 49.5408 90.6196 50.62C92.6896 55.4 88.8497 59.38 83.8997 57.77V62.17H61.4596C61.2696 62.17 61.0397 62.64 61.0097 62.9C60.8597 64.21 62.1497 67.9 61.9397 69.61C62.2197 70.44 63.4996 69.84 64.1297 70.36C64.5797 70.72 64.5296 71.64 64.8296 72.15H47.5197C46.9397 69.61 50.4296 70.45 50.7096 69.62C50.9896 68.79 50.9197 65.87 51.0697 64.7C51.1297 64.21 51.9797 62.17 51.1897 62.17H29.1897C28.1197 62.17 28.7797 60.29 28.7597 59.96C28.2197 49.62 28.4497 37.65 28.4397 27.11C28.4397 26.44 28.7497 22.86 29.1897 22.86L83.8997 22.88ZM81.8997 55.45V25.37L31.1296 25.07C30.9162 25.3054 30.7536 25.5824 30.6521 25.8835C30.5506 26.1846 30.5124 26.5034 30.5397 26.82C29.6697 36.54 31.2297 47.52 30.5397 57.37C30.4697 58.3 30.8796 58.98 31.8696 58.98H80.8696C82.0896 59.19 82.1496 57.32 81.7296 56.62C81.3096 55.92 78.0397 54.23 76.9397 52.62C75.8397 51.01 75.1197 46.42 73.9397 45.62C72.3097 44.55 70.5597 46.1 68.7897 46.31C63.8997 46.89 53.1097 43.67 48.7897 41.12C47.5197 40.36 46.4496 39.21 44.9996 38.45C43.0896 37.45 36.1297 35.45 35.1997 34.45C34.5697 33.74 34.9597 32.09 35.9497 31.94C37.4497 31.71 44.1596 34.8 46.5796 35.1C48.8196 35.38 51.1697 35.1 53.4197 35.6C55.8597 36.17 72.1996 42.33 73.3296 43.6C73.6696 43.97 75.1696 45.67 75.3296 45.97C75.9896 47.04 76.1596 48.76 76.6196 49.97C77.0797 51.1873 77.7798 52.2997 78.6782 53.2411C79.5767 54.1825 80.6551 54.9337 81.8496 55.45H81.8997ZM83.8997 46.5V56.62C88.0397 57.93 91.2197 56.03 89.8997 51.39C89.3597 49.53 86.2897 46.83 84.5097 46.2C84.4495 46.1768 84.385 46.1665 84.3206 46.1697C84.2561 46.173 84.193 46.1898 84.1355 46.2191C84.078 46.2483 84.0273 46.2893 83.9867 46.3394C83.9461 46.3895 83.9164 46.4477 83.8997 46.51V46.5Z" fill="white"/>
</svg>
