<svg width="54" height="55" viewBox="0 0 54 55" fill="none" xmlns="http://www.w3.org/2000/svg">
<path d="M41.8273 22.83C42.0185 23.3624 42.1132 23.9245 42.1072 24.4901C35.8772 23.8201 29.5372 23.4901 23.4872 21.8401C23.4157 22.2898 23.3823 22.7447 23.3872 23.2L26.3872 23.89C26.5572 24.01 26.2672 25.24 26.3872 25.55C25.7672 25.28 24.2171 25.18 23.7171 24.85C23.6371 24.85 23.5872 24.7 23.5272 24.55C23.6713 25.2317 23.95 25.8776 24.3472 26.45C24.6072 26.57 26.1972 26.81 26.2572 26.88C26.2921 27.2125 26.2921 27.5476 26.2572 27.88C26.2572 28.01 26.2572 28.1 26.1072 28.04C26.9679 28.4878 27.8973 28.7886 28.8572 28.9301C28.4121 28.8526 27.9764 28.7286 27.5572 28.5601C27.4572 28.4001 27.5572 27.47 27.5572 27.19L30.2372 27.67C30.3772 27.77 30.1072 28.84 30.1172 29.11C29.8309 29.1244 29.5441 29.094 29.2672 29.0201L35.2672 30.29L35.5871 28.58L38.0472 28.79L37.7272 30.79L38.9272 31.04L39.4372 29.04C40.2084 29.0804 40.9764 29.1672 41.7372 29.3C41.8172 28.88 41.8972 28.41 41.9772 27.92L39.6472 27.7101L39.9671 25.57C40.7069 25.7003 41.456 25.7706 42.2071 25.7801C42.3349 24.7804 42.2042 23.7647 41.8273 22.83ZM30.4372 26.29C29.5639 26.2152 28.6978 26.0714 27.8472 25.86C27.4172 25.7 27.8472 24.54 27.7672 24.16L30.6572 24.5901L30.4372 26.29ZM34.0871 29.94L31.4072 29.41C31.4406 28.9076 31.5175 28.4091 31.6372 27.92C31.9172 27.75 33.8172 28.37 34.2972 28.23L34.0871 29.94ZM34.6072 26.94C33.6527 26.883 32.7055 26.739 31.7772 26.51L31.9372 24.8101C32.9019 24.8333 33.8625 24.9437 34.8072 25.14L34.6072 26.94ZM38.3472 27.4601C37.5377 27.4614 36.7314 27.3606 35.9472 27.16L36.1072 25.23L38.6872 25.44L38.3472 27.4601ZM41.5871 29.94L41.3172 31.14C41.3772 30.89 41.4771 30.46 41.5871 29.94ZM40.7972 31.44H40.8772H40.6772H40.7972Z" fill="white"/>
<path d="M38.5474 45.25C36.3378 45.1176 34.1571 44.6801 32.0674 43.95L31.8473 43.88C30.2673 43.4 28.6974 42.83 27.1774 42.29C25.6574 41.75 24.3474 41.29 22.9174 40.82C22.3574 40.65 21.7773 40.5 21.2073 40.35C19.4459 40.0332 17.7702 39.352 16.2874 38.35C13.8274 36.35 12.5274 32.4601 11.3874 28.9701C10.9474 27.6501 10.5373 26.41 10.1073 25.38C9.93735 24.98 9.68738 24.48 9.39738 23.9C7.92738 20.96 5.45743 16.04 9.19743 14.14C9.81237 13.809 10.4991 13.6339 11.1974 13.63C12.9174 13.63 14.3974 14.91 15.1974 17.06C15.2474 17.19 15.3074 17.42 15.3774 17.69C15.4474 17.96 15.5774 18.48 15.6974 18.82C16.2011 18.1005 16.6394 17.3375 17.0074 16.54C17.2055 16.1002 17.4362 15.6757 17.6974 15.27C18.0437 14.6671 18.5371 14.1619 19.1318 13.8016C19.7264 13.4414 20.4026 13.2378 21.0973 13.21C21.5948 13.2179 22.0878 13.3057 22.5574 13.4701C25.3774 14.4201 24.8774 17.71 24.5574 20.12C24.4418 20.7817 24.365 21.4495 24.3274 22.12L24.4673 22.2L24.3774 22.76C24.3097 23.1632 24.2763 23.5713 24.2774 23.98C24.2663 24.3352 24.2931 24.6905 24.3573 25.04V25.13V25.2501C24.4848 25.8079 24.7155 26.337 25.0374 26.81L25.1374 26.94V27.0001C25.3221 27.2241 25.5226 27.4346 25.7374 27.63C25.9074 27.76 26.1774 27.9401 26.3274 28.0301H26.4673L26.6274 28.17C27.3684 28.5477 28.1652 28.8043 28.9874 28.93H29.0474H29.1274L35.8674 30.36L37.4573 30.7L37.9374 30.8L39.9374 31.23C40.1974 31.28 40.4673 31.33 40.7073 31.36C40.7673 31.13 40.8274 30.8301 40.9074 30.5001L41.0274 29.86C41.1141 29.44 41.194 28.99 41.2674 28.51L41.3274 28.14V28.08C41.3274 27.96 41.3274 27.9 41.3274 27.83L41.3974 27.27C41.3974 27.07 41.3974 26.91 41.4474 26.73V26.45C41.5739 25.5967 41.4774 24.7251 41.1674 23.92V23.84V23.74C40.9374 22.84 40.6474 21.9 40.5774 21.67C40.4869 21.4215 40.3833 21.1778 40.2674 20.94C39.9149 20.291 39.7197 19.5683 39.6974 18.83C39.9252 17.1721 40.6828 15.6322 41.8573 14.44C42.1083 14.2096 42.3794 14.0021 42.6674 13.82C42.9679 13.6313 43.2492 13.4136 43.5074 13.17C43.1798 12.5504 42.7876 11.9672 42.3373 11.43C41.7799 10.7884 41.3215 10.0671 40.9773 9.29003C40.6956 8.03557 40.7649 6.72775 41.1774 5.51003C41.3717 4.832 41.489 4.1343 41.5274 3.43004C41.5073 3.1845 41.4706 2.94059 41.4174 2.70003C41.2474 1.85003 41.0874 1.06004 41.5374 0.52004C41.6807 0.35605 41.8574 0.224745 42.0558 0.13503C42.2542 0.0453153 42.4697 -0.00070345 42.6874 5.07892e-05C42.8758 -0.00159506 43.0623 0.0367774 43.2347 0.11263C43.4071 0.188483 43.5614 0.300058 43.6874 0.440023C44.3474 1.14002 44.3473 3.67002 44.3473 3.69002C44.2862 4.45765 44.1523 5.21775 43.9474 5.96004C43.7625 6.61215 43.6517 7.28308 43.6174 7.96004C43.8449 8.77042 44.2632 9.5145 44.8373 10.13C45.2137 10.6141 45.5482 11.1293 45.8373 11.67C46.0703 12.0189 46.2233 12.4149 46.2856 12.8298C46.3478 13.2447 46.3178 13.6681 46.1974 14.07C45.8443 14.9044 45.2348 15.6048 44.4573 16.07C44.048 16.3569 43.6753 16.6928 43.3473 17.07C42.2573 18.51 42.4974 19.13 43.0474 20.49C43.2074 20.91 43.3974 21.39 43.5674 21.94C44.3916 24.5902 44.5122 27.4092 43.9174 30.12C43.7341 31.0835 43.4937 32.0352 43.1974 32.9701C42.5856 34.5615 42.346 36.2718 42.4974 37.9701C42.5845 38.4403 42.7014 38.9046 42.8473 39.36C43.3073 40.86 43.8474 42.73 42.0274 44.2201C41.0263 44.9395 39.8081 45.2926 38.5774 45.2201L38.5474 45.25ZM11.0973 16.48C10.8746 16.4493 10.6485 16.5031 10.4634 16.6308C10.2784 16.7586 10.1477 16.9509 10.0973 17.17C9.89734 18.65 10.8174 20.4301 11.6174 22.0001C11.9074 22.5501 12.1774 23.07 12.4074 23.58C13.1174 25.21 13.6773 26.91 14.2273 28.58C14.7773 30.25 15.2274 31.66 15.8674 33.11C17.2874 36.39 18.9974 36.85 21.8674 37.61C22.5274 37.78 23.2374 37.97 24.0074 38.21C24.7774 38.45 25.9374 38.87 27.1974 39.33C30.8574 40.64 35.8674 42.45 38.6474 42.45C38.9086 42.4531 39.1697 42.433 39.4274 42.39C39.9074 42.29 40.4274 42.0201 40.4274 41.7201C40.3483 41.1508 40.2109 40.5912 40.0174 40.05C39.8521 39.5701 39.7217 39.0788 39.6274 38.58C39.4079 37.1148 39.4725 35.6209 39.8174 34.18C39.1874 34.09 38.5374 33.96 37.8174 33.81C36.9174 33.61 35.9573 33.41 34.9673 33.21C32.3373 32.67 29.6074 32.12 27.2774 31.44C23.7074 30.44 21.8773 28.44 21.3373 25.1C21.1332 23.5068 21.2009 21.8906 21.5374 20.32C21.6574 19.5 21.7973 18.67 21.8373 17.81C21.8373 17.33 21.8974 16.44 21.6674 16.19C21.5145 16.0874 21.3306 16.0415 21.1474 16.06H20.8074C20.2374 16.13 19.7074 17.1901 19.1974 18.2201C18.4074 19.8001 17.5174 21.5801 15.6474 21.7501H15.3874C13.4674 21.7501 12.9474 19.92 12.5674 18.59C12.4485 17.9001 12.1598 17.2506 11.7273 16.7C11.5452 16.5632 11.3251 16.4864 11.0973 16.48Z" fill="white"/>
<path d="M45.1172 12.0201C44.4972 10.7901 42.7872 9.25007 42.7672 7.97007C42.7472 6.69007 43.4472 5.08005 43.4972 3.70005C43.5244 2.7752 43.3681 1.85412 43.0372 0.990063C42.9688 0.9252 42.8876 0.87526 42.7989 0.843426C42.7102 0.811591 42.6159 0.798544 42.5218 0.805126C42.4278 0.811709 42.3361 0.837779 42.2527 0.881664C42.1692 0.925549 42.0959 0.98631 42.0372 1.06007C41.7072 1.45007 42.2072 2.86007 42.1972 3.47007C42.1972 5.28007 41.0572 7.36007 41.6172 9.09007C41.9672 10.1701 44.2572 12.4201 44.1972 13.3001C44.1972 13.8901 42.7872 14.5501 42.2972 15.0301C41.2689 16.08 40.5972 17.427 40.3772 18.88C40.4908 19.7919 40.7758 20.6741 41.2171 21.4801C41.2971 21.7401 41.5872 22.7001 41.8172 23.5901C42.1874 24.523 42.3147 25.5346 42.1872 26.5301V26.8101C42.1872 26.9901 42.1872 27.17 42.1372 27.35C42.0872 27.53 42.1372 27.7 42.0772 27.88V28.16V28.63C41.9972 29.12 41.9171 29.6301 41.8371 30.0201L41.7472 30.4001L41.6872 30.66C41.5772 31.19 41.4772 31.6601 41.4172 31.8601C41.3572 32.0601 41.3572 32.1201 41.3572 32.1201C41.2365 32.1565 41.1078 32.1565 40.9872 32.1201H40.8972H40.7772C40.1772 32.0501 39.2872 31.83 38.9972 31.82V31.7401L37.7972 31.4901L35.7271 31.0401L35.3371 30.9501L29.3371 29.6801L28.9771 29.6101C28.0167 29.4657 27.0871 29.1615 26.2271 28.7101C25.5071 28.3728 24.897 27.8389 24.4671 27.1701C24.0734 26.5958 23.795 25.9505 23.6472 25.2701C23.5366 24.8393 23.4928 24.3941 23.5172 23.9501C23.5127 23.4914 23.5461 23.0332 23.6172 22.5801C23.3872 20.2301 25.5472 15.2001 22.3972 14.1401C20.6272 13.5501 19.3972 14.22 18.3972 15.66C17.8072 16.51 16.6472 19.73 15.5672 19.66C15.0372 19.66 14.7372 17.7501 14.5672 17.2601C13.7972 15.1001 12.0871 13.5501 9.71714 14.7601C6.03714 16.6401 9.91715 22.5101 10.9771 25.0201C12.5771 28.8001 13.7671 35.1801 16.9771 37.6801C18.8071 39.1201 21.1972 39.39 23.3672 40.07C26.3672 41.01 29.2872 42.21 32.2872 43.13C34.7972 43.89 39.5272 45.4101 41.7372 43.6201C43.6772 42.0501 42.2372 40.0301 41.9272 38.0901C41.4772 35.1901 42.9272 32.7501 43.3572 29.9501C43.9256 27.3548 43.8084 24.6563 43.0172 22.1201C42.3372 19.8401 41.1772 18.8801 42.9172 16.5801C43.6772 15.5801 45.3372 14.8901 45.6472 13.8401C45.7163 13.5165 45.704 13.1809 45.6115 12.8633C45.5191 12.5457 45.3491 12.2559 45.1172 12.0201ZM39.5772 43.1101C36.1472 43.7601 27.4672 40.11 23.7772 38.91C19.7072 37.63 17.1271 37.83 15.2071 33.38C13.8971 30.38 13.1172 27.0001 11.7472 23.8901C10.8372 21.8901 9.06717 19.34 9.37717 17.07C9.44152 16.7717 9.58152 16.495 9.78366 16.2663C9.98581 16.0377 10.2433 15.8649 10.5315 15.7645C10.8197 15.6641 11.1288 15.6394 11.4293 15.6929C11.7297 15.7465 12.0114 15.8763 12.2472 16.07C13.7072 17.25 13.1172 21.1501 15.6272 20.9301C18.3272 20.7001 18.6272 15.5101 20.7572 15.2501C22.6772 15.0201 22.7572 16.2501 22.6372 17.7801C22.5172 20.2401 21.7172 22.34 22.1272 24.91C22.6572 28.18 24.4472 29.7301 27.5372 30.6401C30.6272 31.5501 34.7272 32.2801 38.0172 32.9901C38.9398 33.2025 39.8751 33.3561 40.8172 33.4501C40.3206 35.047 40.184 36.7341 40.4172 38.3901C40.7619 39.4772 41.0324 40.5864 41.2271 41.7101C41.1571 42.5801 40.2672 42.9801 39.5772 43.1101Z" fill="white"/>
<path d="M47.8875 29.11C48.3669 30.0655 48.4977 31.1584 48.2575 32.2C47.9275 33.53 47.1675 33.96 46.5075 34.95C45.5075 36.45 46.9875 38.9 47.1275 40.6C47.5975 46.21 42.5475 48.5001 37.6675 48.2501C36.1275 48.1701 34.9275 47.6 33.4375 48.41C30.7875 49.83 31.3475 54.61 28.2375 54.98H4.3975C-0.162498 54.05 2.39748 49.38 3.12748 46.44C3.39748 45.44 3.66748 44.3801 3.87748 43.3401C4.23748 41.5501 5.03749 37.47 3.75749 36.04C3.20749 35.43 0.257473 33.88 0.117473 33.58C0.0634344 33.4837 0.0322826 33.3763 0.0264081 33.266C0.0205337 33.1557 0.0401584 33.0456 0.0836591 32.9441C0.12716 32.8426 0.193358 32.7525 0.277263 32.6807C0.361168 32.6089 0.46054 32.5573 0.567546 32.5301C0.797546 32.5301 1.16748 32.74 1.37748 32.85C4.79748 34.74 5.97747 35.85 5.73747 39.95C5.49747 44.05 3.89755 48.07 2.94755 51.95C2.9477 52.3524 3.08574 52.7427 3.33866 53.0556C3.59159 53.3686 3.94403 53.5854 4.33744 53.67H28.1175C29.4475 53.39 29.5275 51.99 29.9975 50.95C30.4964 49.5233 31.4084 48.2771 32.6175 47.3701C34.9275 46.0001 36.6675 47.06 39.0575 46.96C43.0575 46.7701 46.4874 44.54 45.7174 40.08C45.4874 38.77 44.7175 37.2301 44.7875 35.9001C44.9475 33.7201 47.9775 32.56 46.8675 30.16C46.6375 29.65 45.9674 29.3 46.0874 28.74C46.2074 28.18 46.7474 28.29 47.0874 28.08C48.8274 27.14 49.9975 25.32 48.4775 23.58C48.2875 23.37 47.9375 23.29 47.8075 22.96C47.3075 21.73 48.9275 20.47 49.8675 19.96C50.8075 19.45 52.7375 19.24 52.4075 17.63C52.2475 16.87 50.4075 15.2401 49.8075 14.5601C48.4237 13.0808 47.1281 11.5215 45.9275 9.89004C44.1175 7.21004 45.9275 5.51004 46.0175 2.73004C46.0175 2.25004 45.6075 1.20004 46.2275 0.92004C47.7075 0.26004 47.2275 3.60005 47.1575 4.31005C46.9775 5.54005 46.2876 6.76006 46.4476 7.97006C46.5676 8.83006 48.2275 10.71 48.8475 11.46C49.9775 12.83 53.2275 15.82 53.6575 17.24C53.8708 17.862 53.8284 18.5432 53.5396 19.1339C53.2508 19.7246 52.7393 20.1764 52.1175 20.39C51.4575 20.72 49.5975 21.39 49.2775 22.05C48.9575 22.71 49.7475 22.97 50.0175 23.45C51.2775 25.61 49.8674 28.1101 47.8374 29.1201" fill="white"/>
<path d="M0.647708 23.8C1.56727 24.2655 2.45583 24.79 3.30774 25.3701C4.55115 26.0303 5.84125 26.5984 7.16773 27.07C8.18686 27.343 9.18867 27.6769 10.1677 28.07C10.2826 28.1427 10.3713 28.2501 10.421 28.3765C10.4708 28.503 10.479 28.642 10.4445 28.7735C10.4099 28.9049 10.3345 29.022 10.229 29.1076C10.1235 29.1933 9.9934 29.2432 9.85767 29.2501C9.3016 29.1702 8.75533 29.0328 8.22766 28.8401C6.21048 28.2336 4.26307 27.4157 2.41773 26.4001C1.56957 25.9709 0.785282 25.4257 0.0876498 24.7801C0.0298958 24.6824 -0.000366084 24.5709 3.34227e-06 24.4574C0.000372769 24.3439 0.0314582 24.2326 0.0898471 24.1353C0.148236 24.038 0.231829 23.9582 0.33179 23.9045C0.431752 23.8508 0.54434 23.8251 0.657718 23.83" fill="white"/>
</svg>
