<svg width="106" height="106" viewBox="0 0 106 106" fill="none" xmlns="http://www.w3.org/2000/svg">
<path d="M0 0H98.5C99.4385 -9.20444e-07 100.368 0.18502 101.235 0.544464C102.102 0.903908 102.889 1.43072 103.552 2.09479C104.215 2.75886 104.741 3.54716 105.099 4.41458C105.458 5.282 105.641 6.21154 105.64 7.15002V105.65H83.53C61.3765 105.65 40.1302 96.8495 24.4653 81.1846C8.80042 65.5197 0 44.2735 0 22.12V0Z" fill="#393939"/>
<path d="M80.2392 27.95C79.6192 26.72 77.9093 25.18 77.8893 23.9C77.8693 22.62 78.5692 21.01 78.6192 19.63C78.6465 18.7052 78.4902 17.7841 78.1593 16.92C78.0909 16.8552 78.0097 16.8052 77.921 16.7734C77.8323 16.7416 77.7379 16.7285 77.6439 16.7351C77.5499 16.7417 77.4582 16.7677 77.3747 16.8116C77.2913 16.8555 77.218 16.9163 77.1593 16.99C76.8293 17.38 77.3293 18.79 77.3193 19.4C77.3193 21.21 76.1792 23.29 76.7392 25.02C77.0892 26.1 79.3793 28.35 79.3193 29.23C79.3193 29.82 77.9093 30.48 77.4193 30.96C76.391 32.01 75.7192 33.3569 75.4992 34.81C75.6129 35.7219 75.8978 36.604 76.3392 37.41C76.4192 37.67 76.7093 38.63 76.9393 39.52C77.3094 40.4529 77.4367 41.4645 77.3093 42.46V42.74C77.3093 42.92 77.3092 43.1 77.2593 43.28C77.2093 43.46 77.2593 43.63 77.1993 43.81V44.09V44.56C77.1193 45.05 77.0392 45.56 76.9592 45.95L76.8692 46.33L76.8093 46.59C76.6993 47.12 76.5993 47.59 76.5393 47.79C76.4793 47.99 76.4792 48.05 76.4792 48.05C76.3586 48.0865 76.2299 48.0865 76.1092 48.05H76.0193H75.8993C75.2993 47.98 74.4092 47.76 74.1192 47.75V47.67L72.9193 47.42L70.8492 46.97L70.4592 46.88L64.4592 45.61L64.0992 45.54C63.1387 45.3956 62.2092 45.0914 61.3492 44.64C60.6292 44.3027 60.0191 43.7689 59.5892 43.1C59.1955 42.5257 58.9171 41.8805 58.7693 41.2C58.6587 40.7693 58.6149 40.3241 58.6393 39.88C58.6348 39.4214 58.6682 38.9632 58.7392 38.51C58.5092 36.16 60.6693 31.13 57.5193 30.07C55.7493 29.48 54.5193 30.15 53.5193 31.59C52.9293 32.44 51.7693 35.66 50.6893 35.59C50.1593 35.59 49.8593 33.68 49.6893 33.19C48.9193 31.03 47.2092 29.48 44.8392 30.69C41.1592 32.57 45.0392 38.44 46.0992 40.95C47.6992 44.73 48.8892 51.11 52.0992 53.61C53.9292 55.05 56.3192 55.32 58.4892 56C61.4892 56.94 64.4093 58.14 67.4093 59.06C69.9193 59.82 74.6492 61.34 76.8592 59.55C78.7992 57.98 77.3593 55.96 77.0493 54.02C76.5993 51.12 78.0492 48.68 78.4792 45.88C79.0476 43.2848 78.9305 40.5862 78.1393 38.05C77.4593 35.77 76.2993 34.81 78.0393 32.51C78.7993 31.51 80.4593 30.82 80.7693 29.77C80.8383 29.4465 80.8261 29.1109 80.7336 28.7933C80.6411 28.4756 80.4712 28.1859 80.2392 27.95ZM74.6993 59.04C71.2693 59.69 62.5893 56.04 58.8993 54.84C54.8293 53.56 52.2492 53.76 50.3292 49.31C49.0192 46.31 48.2392 42.93 46.8692 39.82C45.9592 37.82 44.1892 35.27 44.4992 33C44.5636 32.7017 44.7036 32.4249 44.9057 32.1963C45.1079 31.9677 45.3654 31.7949 45.6535 31.6944C45.9417 31.594 46.2509 31.5694 46.5514 31.6229C46.8518 31.6764 47.1334 31.8063 47.3692 32C48.8292 33.18 48.2392 37.08 50.7492 36.86C53.4492 36.63 53.7492 31.44 55.8792 31.18C57.7992 30.95 57.8792 32.18 57.7592 33.71C57.6392 36.17 56.8392 38.27 57.2492 40.84C57.7792 44.11 59.5693 45.66 62.6593 46.57C65.7493 47.48 69.8493 48.21 73.1393 48.92C74.0619 49.1324 74.9972 49.2861 75.9393 49.38C75.4427 50.9769 75.3061 52.664 75.5393 54.32C75.8839 55.4071 76.1545 56.5163 76.3492 57.64C76.2792 58.51 75.3893 58.91 74.6993 59.04Z" fill="white"/>
<path d="M83.0096 45.04C83.489 45.9955 83.6198 47.0883 83.3796 48.13C83.0496 49.46 82.2896 49.89 81.6296 50.88C80.6296 52.38 82.1096 54.83 82.2496 56.53C82.7196 62.14 77.6696 64.43 72.7896 64.18C71.2496 64.1 70.0496 63.53 68.5596 64.34C65.9096 65.76 66.4695 70.54 63.3595 70.91H39.5196C34.9596 69.98 37.5196 65.31 38.2496 62.37C38.5196 61.37 38.7896 60.31 38.9996 59.27C39.3596 57.48 40.1596 53.4 38.8796 51.97C38.3296 51.36 35.3795 49.81 35.2395 49.51C35.1855 49.4137 35.1544 49.3063 35.1485 49.196C35.1426 49.0857 35.1622 48.9756 35.2057 48.8741C35.2492 48.7725 35.3154 48.6824 35.3993 48.6106C35.4832 48.5388 35.5826 48.4873 35.6896 48.46C35.9196 48.46 36.2896 48.67 36.4996 48.78C39.9196 50.67 41.0995 51.78 40.8595 55.88C40.6195 59.98 39.0196 64 38.0696 67.88C38.0698 68.2824 38.2078 68.6726 38.4607 68.9856C38.7137 69.2986 39.0661 69.5154 39.4595 69.6H63.2395C64.5695 69.32 64.6495 67.92 65.1195 66.88C65.6185 65.4532 66.5305 64.2071 67.7395 63.3C70.0495 61.93 71.7896 62.99 74.1796 62.89C78.1796 62.7 81.6095 60.47 80.8395 56.01C80.6095 54.7 79.8396 53.16 79.9096 51.83C80.0696 49.65 83.0995 48.49 81.9895 46.09C81.7595 45.58 81.0895 45.23 81.2095 44.67C81.3295 44.11 81.8695 44.22 82.2095 44.01C83.9495 43.07 85.1195 41.25 83.5995 39.51C83.4095 39.3 83.0596 39.22 82.9296 38.89C82.4296 37.66 84.0495 36.4 84.9895 35.89C85.9295 35.38 87.8596 35.17 87.5296 33.56C87.3696 32.8 85.5296 31.17 84.9296 30.49C83.5458 29.0108 82.2502 27.4514 81.0496 25.82C79.2396 23.14 81.0496 21.44 81.1396 18.66C81.1396 18.18 80.7295 17.13 81.3495 16.85C82.8295 16.19 82.3496 19.53 82.2796 20.24C82.0996 21.47 81.4096 22.69 81.5696 23.9C81.6896 24.76 83.3495 26.64 83.9695 27.39C85.0995 28.76 88.3496 31.75 88.7796 33.17C88.9929 33.7919 88.9504 34.4731 88.6617 35.0638C88.3729 35.6545 87.8614 36.1064 87.2395 36.32C86.5795 36.65 84.7196 37.32 84.3996 37.98C84.0796 38.64 84.8696 38.9 85.1396 39.38C86.3996 41.54 84.9895 44.04 82.9595 45.05" fill="white"/>
</svg>
