<svg width="106" height="106" viewBox="0 0 106 106" fill="none" xmlns="http://www.w3.org/2000/svg">
<path d="M0 0H98.5C99.4385 -9.20444e-07 100.368 0.18502 101.235 0.544464C102.102 0.903908 102.889 1.43072 103.552 2.09479C104.215 2.75886 104.741 3.54716 105.099 4.41458C105.458 5.282 105.641 6.21154 105.64 7.15002V105.65H83.53C61.3765 105.65 40.1302 96.8495 24.4653 81.1846C8.80042 65.5197 0 44.2735 0 22.12V0Z" fill="#393939"/>
<path d="M76.9493 38.76C77.1405 39.2923 77.2353 39.8544 77.2292 40.42C70.9992 39.75 64.6592 39.42 58.6092 37.77C58.5378 38.2197 58.5044 38.6747 58.5093 39.13L61.5093 39.82C61.6793 39.94 61.3893 41.17 61.5093 41.48C60.8893 41.21 59.3392 41.11 58.8392 40.78C58.7592 40.78 58.7093 40.63 58.6493 40.48C58.7933 41.1616 59.0721 41.8076 59.4692 42.38C59.7292 42.5 61.3193 42.74 61.3793 42.81C61.4142 43.1424 61.4142 43.4776 61.3793 43.81C61.3793 43.94 61.3792 44.03 61.2292 43.97C62.0899 44.4178 63.0194 44.7186 63.9792 44.86C63.5341 44.7826 63.0985 44.6585 62.6793 44.49C62.5793 44.33 62.6793 43.4 62.6793 43.12L65.3592 43.6C65.4992 43.7 65.2292 44.77 65.2392 45.04C64.953 45.0543 64.6662 45.024 64.3893 44.95L70.3893 46.22L70.7092 44.51L73.1693 44.72L72.8492 46.72L74.0493 46.97L74.5593 44.97C75.3305 45.0103 76.0985 45.0972 76.8592 45.23C76.9392 44.81 77.0192 44.34 77.0992 43.85L74.7693 43.64L75.0892 41.5C75.829 41.6303 76.5781 41.7005 77.3292 41.71C77.457 40.7104 77.3263 39.6946 76.9493 38.76ZM65.5593 42.22C64.686 42.1451 63.8199 42.0014 62.9692 41.79C62.5392 41.63 62.9693 40.47 62.8893 40.09L65.7793 40.52L65.5593 42.22ZM69.2092 45.87L66.5293 45.34C66.5626 44.8376 66.6396 44.3391 66.7593 43.85C67.0393 43.68 68.9393 44.3 69.4193 44.16L69.2092 45.87ZM69.7292 42.87C68.7748 42.8129 67.8276 42.669 66.8993 42.44L67.0593 40.74C68.024 40.7633 68.9845 40.8737 69.9293 41.07L69.7292 42.87ZM73.4692 43.39C72.6598 43.3914 71.8535 43.2906 71.0693 43.09L71.2292 41.16L73.8093 41.37L73.4692 43.39ZM76.7092 45.87L76.4393 47.07C76.4993 46.82 76.5992 46.39 76.7092 45.87ZM75.9193 47.37H75.9993H75.7993H75.9193Z" fill="white"/>
<path d="M73.6695 61.18C71.4599 61.0476 69.2792 60.6101 67.1895 59.88L66.9694 59.81C65.3894 59.33 63.8195 58.76 62.2995 58.22C60.7795 57.68 59.4695 57.22 58.0395 56.75C57.4795 56.58 56.8994 56.43 56.3294 56.28C54.568 55.9632 52.8923 55.282 51.4095 54.28C48.9495 52.28 47.6494 48.39 46.5094 44.9C46.0694 43.58 45.6594 42.34 45.2294 41.31C45.0594 40.91 44.8095 40.41 44.5195 39.83C43.0495 36.89 40.5795 31.97 44.3195 30.07C44.9344 29.739 45.6212 29.5639 46.3195 29.56C48.0395 29.56 49.5195 30.84 50.3195 32.99C50.3695 33.12 50.4294 33.35 50.4994 33.62C50.5694 33.89 50.6995 34.41 50.8195 34.75C51.3231 34.0305 51.7615 33.2675 52.1294 32.47C52.3276 32.0301 52.5583 31.6056 52.8195 31.2C53.1657 30.5971 53.6592 30.0919 54.2538 29.7316C54.8485 29.3713 55.5247 29.1678 56.2194 29.14C56.7169 29.1478 57.2099 29.2356 57.6795 29.4C60.4995 30.35 59.9995 33.64 59.6795 36.05C59.5639 36.7116 59.4871 37.3794 59.4495 38.05L59.5894 38.13L59.4994 38.69C59.4318 39.0931 59.3984 39.5012 59.3995 39.91C59.3884 40.2652 59.4152 40.6205 59.4794 40.97V41.06V41.18C59.6069 41.7379 59.8375 42.2669 60.1595 42.74L60.2594 42.87V42.93C60.4442 43.154 60.6447 43.3645 60.8594 43.56C61.0294 43.69 61.2995 43.87 61.4495 43.96H61.5894L61.7494 44.1C62.4905 44.4777 63.2872 44.7343 64.1094 44.86H64.1695H64.2494L70.9894 46.29L72.5794 46.63L73.0595 46.73L75.0595 47.16C75.3195 47.21 75.5894 47.26 75.8294 47.29C75.8894 47.06 75.9495 46.76 76.0295 46.43L76.1495 45.79C76.2361 45.37 76.3161 44.92 76.3895 44.44L76.4495 44.07V44.01C76.4495 43.89 76.4495 43.83 76.4495 43.76L76.5195 43.2C76.5195 43 76.5195 42.84 76.5695 42.66V42.38C76.696 41.5266 76.5995 40.6551 76.2895 39.85V39.77V39.67C76.0595 38.77 75.7695 37.83 75.6995 37.6C75.609 37.3514 75.5054 37.1078 75.3895 36.87C75.037 36.2209 74.8418 35.4982 74.8195 34.76C75.0473 33.102 75.8049 31.5621 76.9794 30.37C77.2303 30.1395 77.5015 29.932 77.7895 29.75C78.09 29.5612 78.3713 29.3435 78.6294 29.1C78.3019 28.4804 77.9096 27.8971 77.4594 27.36C76.902 26.7184 76.4436 25.9971 76.0994 25.22C75.8177 23.9655 75.8869 22.6577 76.2995 21.44C76.4937 20.762 76.6111 20.0643 76.6495 19.36C76.6294 19.1145 76.5927 18.8706 76.5395 18.63C76.3695 17.78 76.2095 16.99 76.6595 16.45C76.8027 16.286 76.9795 16.1547 77.1779 16.065C77.3763 15.9753 77.5917 15.9293 77.8095 15.93C77.9978 15.9284 78.1843 15.9667 78.3567 16.0426C78.5291 16.1184 78.6835 16.23 78.8095 16.37C79.4695 17.07 79.4694 19.6 79.4694 19.62C79.4082 20.3876 79.2744 21.1477 79.0695 21.89C78.8845 22.5421 78.7738 23.213 78.7394 23.89C78.967 24.7004 79.3853 25.4445 79.9594 26.06C80.3358 26.5441 80.6703 27.0593 80.9594 27.6C81.1923 27.9489 81.3454 28.3449 81.4076 28.7598C81.4699 29.1746 81.4398 29.5981 81.3195 30C80.9664 30.8344 80.3569 31.5348 79.5794 32C79.1701 32.2869 78.7973 32.6227 78.4694 33C77.3794 34.44 77.6195 35.06 78.1695 36.42C78.3295 36.84 78.5195 37.32 78.6895 37.87C79.5136 40.5201 79.6342 43.3391 79.0395 46.05C78.8562 47.0134 78.6158 47.9651 78.3195 48.9C77.7076 50.4914 77.4681 52.2018 77.6194 53.9C77.7066 54.3703 77.8235 54.8345 77.9694 55.29C78.4294 56.79 78.9695 58.66 77.1495 60.15C76.1483 60.8695 74.9302 61.2226 73.6995 61.15L73.6695 61.18ZM46.2194 32.41C45.9967 32.3793 45.7706 32.4331 45.5855 32.5608C45.4004 32.6885 45.2698 32.8809 45.2194 33.1C45.0194 34.58 45.9394 36.36 46.7394 37.93C47.0294 38.48 47.2995 39 47.5295 39.51C48.2395 41.14 48.7994 42.84 49.3494 44.51C49.8994 46.18 50.3494 47.59 50.9894 49.04C52.4094 52.32 54.1194 52.78 56.9894 53.54C57.6494 53.71 58.3594 53.9 59.1294 54.14C59.8994 54.38 61.0595 54.8 62.3195 55.26C65.9795 56.57 70.9895 58.38 73.7695 58.38C74.0307 58.3831 74.2918 58.363 74.5495 58.32C75.0295 58.22 75.5495 57.95 75.5495 57.65C75.4704 57.0808 75.333 56.5212 75.1395 55.98C74.9742 55.5 74.8438 55.0088 74.7494 54.51C74.53 53.0447 74.5945 51.5509 74.9395 50.11C74.3095 50.02 73.6595 49.89 72.9395 49.74C72.0395 49.54 71.0794 49.34 70.0894 49.14C67.4594 48.6 64.7295 48.05 62.3995 47.37C58.8295 46.37 56.9994 44.37 56.4594 41.03C56.2552 39.4368 56.3229 37.8205 56.6595 36.25C56.7795 35.43 56.9194 34.6 56.9594 33.74C56.9594 33.26 57.0195 32.37 56.7895 32.12C56.6366 32.0174 56.4526 31.9714 56.2695 31.99H55.9295C55.3595 32.06 54.8295 33.12 54.3195 34.15C53.5295 35.73 52.6395 37.51 50.7695 37.68H50.5094C48.5894 37.68 48.0695 35.85 47.6895 34.52C47.5706 33.8301 47.2819 33.1806 46.8494 32.63C46.6673 32.4932 46.4471 32.4163 46.2194 32.41Z" fill="white"/>
<path d="M80.2392 27.95C79.6192 26.72 77.9093 25.18 77.8893 23.9C77.8693 22.62 78.5692 21.01 78.6192 19.63C78.6465 18.7052 78.4902 17.7841 78.1593 16.92C78.0909 16.8552 78.0097 16.8052 77.921 16.7734C77.8323 16.7416 77.7379 16.7285 77.6439 16.7351C77.5499 16.7417 77.4582 16.7677 77.3747 16.8116C77.2913 16.8555 77.218 16.9163 77.1593 16.99C76.8293 17.38 77.3293 18.79 77.3193 19.4C77.3193 21.21 76.1792 23.29 76.7392 25.02C77.0892 26.1 79.3793 28.35 79.3193 29.23C79.3193 29.82 77.9093 30.48 77.4193 30.96C76.391 32.01 75.7192 33.3569 75.4992 34.81C75.6129 35.7219 75.8978 36.604 76.3392 37.41C76.4192 37.67 76.7093 38.63 76.9393 39.52C77.3094 40.4529 77.4367 41.4645 77.3093 42.46V42.74C77.3093 42.92 77.3092 43.1 77.2593 43.28C77.2093 43.46 77.2593 43.63 77.1993 43.81V44.09V44.56C77.1193 45.05 77.0392 45.56 76.9592 45.95L76.8692 46.33L76.8093 46.59C76.6993 47.12 76.5993 47.59 76.5393 47.79C76.4793 47.99 76.4792 48.05 76.4792 48.05C76.3586 48.0865 76.2299 48.0865 76.1092 48.05H76.0193H75.8993C75.2993 47.98 74.4092 47.76 74.1192 47.75V47.67L72.9193 47.42L70.8492 46.97L70.4592 46.88L64.4592 45.61L64.0992 45.54C63.1387 45.3956 62.2092 45.0914 61.3492 44.64C60.6292 44.3027 60.0191 43.7689 59.5892 43.1C59.1955 42.5257 58.9171 41.8805 58.7693 41.2C58.6587 40.7693 58.6149 40.3241 58.6393 39.88C58.6348 39.4214 58.6682 38.9632 58.7392 38.51C58.5092 36.16 60.6693 31.13 57.5193 30.07C55.7493 29.48 54.5193 30.15 53.5193 31.59C52.9293 32.44 51.7693 35.66 50.6893 35.59C50.1593 35.59 49.8593 33.68 49.6893 33.19C48.9193 31.03 47.2092 29.48 44.8392 30.69C41.1592 32.57 45.0392 38.44 46.0992 40.95C47.6992 44.73 48.8892 51.11 52.0992 53.61C53.9292 55.05 56.3192 55.32 58.4892 56C61.4892 56.94 64.4093 58.14 67.4093 59.06C69.9193 59.82 74.6492 61.34 76.8592 59.55C78.7992 57.98 77.3593 55.96 77.0493 54.02C76.5993 51.12 78.0492 48.68 78.4792 45.88C79.0476 43.2848 78.9305 40.5862 78.1393 38.05C77.4593 35.77 76.2993 34.81 78.0393 32.51C78.7993 31.51 80.4593 30.82 80.7693 29.77C80.8383 29.4465 80.8261 29.1109 80.7336 28.7933C80.6411 28.4756 80.4712 28.1859 80.2392 27.95ZM74.6993 59.04C71.2693 59.69 62.5893 56.04 58.8993 54.84C54.8293 53.56 52.2492 53.76 50.3292 49.31C49.0192 46.31 48.2392 42.93 46.8692 39.82C45.9592 37.82 44.1892 35.27 44.4992 33C44.5636 32.7017 44.7036 32.4249 44.9057 32.1963C45.1079 31.9677 45.3654 31.7949 45.6535 31.6944C45.9417 31.594 46.2509 31.5694 46.5514 31.6229C46.8518 31.6764 47.1334 31.8063 47.3692 32C48.8292 33.18 48.2392 37.08 50.7492 36.86C53.4492 36.63 53.7492 31.44 55.8792 31.18C57.7992 30.95 57.8792 32.18 57.7592 33.71C57.6392 36.17 56.8392 38.27 57.2492 40.84C57.7792 44.11 59.5693 45.66 62.6593 46.57C65.7493 47.48 69.8493 48.21 73.1393 48.92C74.0619 49.1324 74.9972 49.2861 75.9393 49.38C75.4427 50.9769 75.3061 52.664 75.5393 54.32C75.8839 55.4071 76.1545 56.5163 76.3492 57.64C76.2792 58.51 75.3893 58.91 74.6993 59.04Z" fill="white"/>
<path d="M83.0096 45.04C83.489 45.9955 83.6198 47.0883 83.3796 48.13C83.0496 49.46 82.2896 49.89 81.6296 50.88C80.6296 52.38 82.1096 54.83 82.2496 56.53C82.7196 62.14 77.6696 64.43 72.7896 64.18C71.2496 64.1 70.0496 63.53 68.5596 64.34C65.9096 65.76 66.4695 70.54 63.3595 70.91H39.5196C34.9596 69.98 37.5196 65.31 38.2496 62.37C38.5196 61.37 38.7896 60.31 38.9996 59.27C39.3596 57.48 40.1596 53.4 38.8796 51.97C38.3296 51.36 35.3795 49.81 35.2395 49.51C35.1855 49.4137 35.1544 49.3063 35.1485 49.196C35.1426 49.0857 35.1622 48.9756 35.2057 48.8741C35.2492 48.7725 35.3154 48.6824 35.3993 48.6106C35.4832 48.5388 35.5826 48.4873 35.6896 48.46C35.9196 48.46 36.2896 48.67 36.4996 48.78C39.9196 50.67 41.0995 51.78 40.8595 55.88C40.6195 59.98 39.0196 64 38.0696 67.88C38.0698 68.2824 38.2078 68.6726 38.4607 68.9856C38.7137 69.2986 39.0661 69.5154 39.4595 69.6H63.2395C64.5695 69.32 64.6495 67.92 65.1195 66.88C65.6185 65.4532 66.5305 64.2071 67.7395 63.3C70.0495 61.93 71.7896 62.99 74.1796 62.89C78.1796 62.7 81.6095 60.47 80.8395 56.01C80.6095 54.7 79.8396 53.16 79.9096 51.83C80.0696 49.65 83.0995 48.49 81.9895 46.09C81.7595 45.58 81.0895 45.23 81.2095 44.67C81.3295 44.11 81.8695 44.22 82.2095 44.01C83.9495 43.07 85.1195 41.25 83.5995 39.51C83.4095 39.3 83.0596 39.22 82.9296 38.89C82.4296 37.66 84.0495 36.4 84.9895 35.89C85.9295 35.38 87.8596 35.17 87.5296 33.56C87.3696 32.8 85.5296 31.17 84.9296 30.49C83.5458 29.0108 82.2502 27.4514 81.0496 25.82C79.2396 23.14 81.0496 21.44 81.1396 18.66C81.1396 18.18 80.7295 17.13 81.3495 16.85C82.8295 16.19 82.3496 19.53 82.2796 20.24C82.0996 21.47 81.4096 22.69 81.5696 23.9C81.6896 24.76 83.3495 26.64 83.9695 27.39C85.0995 28.76 88.3496 31.75 88.7796 33.17C88.9929 33.7919 88.9504 34.4731 88.6617 35.0638C88.3729 35.6545 87.8614 36.1064 87.2395 36.32C86.5795 36.65 84.7196 37.32 84.3996 37.98C84.0796 38.64 84.8696 38.9 85.1396 39.38C86.3996 41.54 84.9895 44.04 82.9595 45.05" fill="white"/>
<path d="M35.7698 39.73C36.6893 40.1955 37.5779 40.7199 38.4298 41.3C39.6732 41.9602 40.9633 42.5284 42.2898 43C43.3089 43.2729 44.3107 43.6069 45.2898 44C45.4046 44.0727 45.4933 44.18 45.5431 44.3065C45.5929 44.433 45.6011 44.572 45.5665 44.7034C45.532 44.8349 45.4566 44.9519 45.3511 45.0376C45.2456 45.1233 45.1155 45.1732 44.9797 45.18C44.4237 45.1002 43.8774 44.9628 43.3497 44.77C41.3326 44.1635 39.3851 43.3457 37.5398 42.33C36.6916 41.9009 35.9074 41.3556 35.2097 40.71C35.152 40.6123 35.1217 40.5008 35.1221 40.3874C35.1224 40.2739 35.1535 40.1626 35.2119 40.0653C35.2703 39.968 35.3539 39.8882 35.4539 39.8345C35.5538 39.7807 35.6664 39.755 35.7798 39.76" fill="white"/>
</svg>
