<svg width="102" height="102" viewBox="0 0 102 102" fill="none" xmlns="http://www.w3.org/2000/svg">
<path d="M0 0H94.85C96.6747 0 98.4247 0.724886 99.7149 2.01514C101.005 3.30539 101.73 5.05519 101.73 6.87988V101.73H80.43C59.0986 101.73 38.641 93.2559 23.5574 78.1724C8.47388 63.0888 0 42.6312 0 21.2998V0Z" fill="#F0FBFF"/>
<path d="M75.45 38.9102C75.6412 39.4425 75.736 40.0043 75.73 40.5698C69.5 39.8998 63.16 39.5699 57.11 37.9199C57.0339 38.3691 57.0005 38.8243 57.01 39.2798L60.01 39.9697C60.18 40.0997 59.89 41.3199 60.01 41.6299C59.1084 41.4474 58.2172 41.2172 57.34 40.9399C57.2501 40.8595 57.1843 40.7558 57.15 40.6401C57.2978 41.3206 57.5763 41.9657 57.97 42.54C57.97 42.54 57.97 42.5397 57.97 42.4897C58.23 42.6097 59.82 42.8497 59.88 42.9297C59.915 43.2621 59.915 43.5973 59.88 43.9297C59.88 44.0497 59.88 44.1401 59.73 44.0801C60.59 44.5315 61.5195 44.8356 62.48 44.98C62.0373 44.8921 61.6026 44.7682 61.18 44.6099C61.08 44.4399 61.18 43.51 61.18 43.23L63.86 43.71C64 43.81 63.73 44.8799 63.74 45.1499C63.4536 45.1699 63.1659 45.1396 62.89 45.0601L68.89 46.3301L69.21 44.6201L71.67 44.8398L71.35 46.8398L72.55 47.0898L73.06 45.0898C73.8282 45.1327 74.593 45.2229 75.35 45.3599C75.44 44.9299 75.52 44.4597 75.6 43.9697L73.27 43.77L73.59 41.6201C74.3302 41.7488 75.0789 41.822 75.83 41.8398C75.9535 40.8468 75.8227 39.8389 75.45 38.9102ZM64.06 42.4199C63.1871 42.3365 62.3215 42.1895 61.47 41.98C61.04 41.82 61.47 40.66 61.39 40.29L64.28 40.7197L64.06 42.4199ZM67.71 46.0698L65.03 45.5298C65.0633 45.0307 65.1402 44.5355 65.26 44.0498C65.54 43.8698 67.44 44.4901 67.92 44.3501L67.71 46.0698ZM68.23 43.0698C67.2763 43.0116 66.3295 42.8711 65.4 42.6499L65.56 40.9399C66.5247 40.9632 67.4852 41.0737 68.43 41.27L68.23 43.0698ZM71.97 43.6001C71.1609 43.5965 70.3551 43.4955 69.57 43.2998L69.73 41.3599L72.31 41.5801L71.97 43.6001ZM75.21 46.0698L74.94 47.27C75 46.98 75.1 46.55 75.21 46.02V46.0698Z" fill="#A0938B"/>
<path d="M72.17 61.3303C69.9598 61.2028 67.7784 60.7649 65.69 60.03L65.4701 59.9602C63.8901 59.4802 62.32 58.9604 60.8 58.3704C59.28 57.7804 57.97 57.3704 56.54 56.9104C55.98 56.7304 55.4 56.5799 54.83 56.4299C53.0661 56.1222 51.3885 55.4402 49.9101 54.4299C47.4501 52.4899 46.15 48.5403 45.01 45.0603C44.57 43.7403 44.16 42.4902 43.73 41.4602C43.56 41.0602 43.31 40.56 43.02 39.99C41.55 37.05 39.08 32.13 42.82 30.22C43.4368 29.8938 44.1224 29.7192 44.82 29.7102C46.54 29.7102 48.02 31.0004 48.82 33.1404C48.87 33.2704 48.93 33.5003 49 33.7703C49.07 34.0403 49.2 34.5601 49.32 34.9001C49.8236 34.1841 50.2621 33.4244 50.63 32.6301C50.8287 32.1873 51.0593 31.7597 51.32 31.3503C51.6677 30.7487 52.1616 30.2441 52.7559 29.884C53.3502 29.5239 54.0258 29.3199 54.7201 29.2903C55.2175 29.2981 55.7104 29.3857 56.18 29.55C59 30.5 58.5 33.7999 58.18 36.1999C58.0653 36.8617 57.9885 37.5294 57.95 38.1999L58.0901 38.2703L58 38.8303C57.9328 39.2368 57.8994 39.6482 57.9 40.0603C57.8891 40.4121 57.9159 40.764 57.98 41.1101L58.0301 41.1999V41.3201C58.1557 41.8785 58.3864 42.408 58.71 42.8801L58.81 43.0203V43.0701C58.9948 43.2941 59.1953 43.5045 59.4101 43.6999C59.5801 43.8299 59.85 44.0103 60 44.1003H60.14L60.3 44.2502C61.0424 44.6247 61.8387 44.8808 62.6601 45.01H62.57H62.65L69.39 46.4402L70.98 46.7903L71.46 46.8801L73.46 47.3103L74.23 47.4499C74.29 47.2099 74.35 46.9203 74.43 46.5803L74.55 45.9499C74.64 45.5299 74.72 45.0701 74.79 44.5901L74.8501 44.2302V44.1604C74.8501 44.0504 74.8501 43.9802 74.8501 43.9202L74.92 43.3503C74.92 43.1503 74.9201 42.9901 74.9701 42.8201V42.53C75.0965 41.6767 75.0001 40.8053 74.69 40.0002V39.9202V39.8303C74.46 38.9203 74.1701 37.98 74.1001 37.76C74.0113 37.5107 73.9077 37.267 73.79 37.03C73.4389 36.3804 73.2438 35.6582 73.2201 34.9202C73.4458 33.2616 74.2037 31.7209 75.38 30.53C75.631 30.2996 75.902 30.0924 76.19 29.9104C76.4909 29.7184 76.7723 29.4972 77.0301 29.2502C76.702 28.634 76.3098 28.0541 75.86 27.5203C75.3326 26.8849 74.8983 26.1778 74.57 25.4202C74.2864 24.1625 74.3556 22.8509 74.77 21.6301C74.965 20.9523 75.0824 20.2544 75.12 19.55C75.0993 19.3046 75.0625 19.0607 75.01 18.8201C74.84 17.9801 74.68 17.1801 75.13 16.6501C75.272 16.4846 75.4485 16.3523 75.6472 16.2624C75.846 16.1726 76.062 16.1274 76.2801 16.1301C76.4677 16.1266 76.654 16.1629 76.8264 16.2371C76.9989 16.3112 77.1535 16.4216 77.2801 16.5603C77.9401 17.2603 77.94 19.7901 77.94 19.8201C77.878 20.5843 77.7441 21.3412 77.54 22.0803C77.355 22.7324 77.2444 23.4033 77.21 24.0803C77.4335 24.8924 77.8523 25.6373 78.43 26.2502C78.8261 26.7341 79.1776 27.2527 79.48 27.8C79.7134 28.1468 79.8668 28.5415 79.929 28.9548C79.9913 29.3682 79.9609 29.79 79.8401 30.1902C79.4857 31.0238 78.8767 31.7239 78.1001 32.1902C77.6882 32.4739 77.315 32.8101 76.99 33.1902C75.9 34.6302 76.14 35.2504 76.69 36.6204C76.85 37.0404 77.0401 37.5103 77.21 38.0603C78.0342 40.7105 78.1548 43.5291 77.56 46.24C77.3779 47.2037 77.1375 48.1555 76.8401 49.0901C76.2292 50.6817 75.9898 52.3919 76.14 54.0901C76.2296 54.5598 76.3464 55.0241 76.49 55.4802C76.95 56.9802 77.49 58.8403 75.67 60.3303C74.6689 61.0498 73.4508 61.4029 72.2201 61.3303H72.17ZM44.7201 32.5603C44.4973 32.5296 44.2711 32.5835 44.086 32.7112C43.901 32.8389 43.7704 33.0311 43.7201 33.2502C43.5201 34.7402 44.44 36.5103 45.24 38.0803C45.53 38.6303 45.8001 39.1504 46.0301 39.6604C46.7401 41.3004 47.3001 42.9904 47.8501 44.6604C48.4001 46.3304 48.85 47.7402 49.49 49.1902C50.91 52.4802 52.62 52.9302 55.49 53.6902C56.15 53.8702 56.86 54.06 57.63 54.3C58.4 54.54 59.56 54.9604 60.82 55.4104C64.48 56.7304 69.49 58.53 72.27 58.53C72.5313 58.5331 72.7923 58.513 73.05 58.47C73.53 58.38 74.05 58.1 74.05 57.8C73.9718 57.2339 73.8344 56.6778 73.64 56.1404C73.4758 55.6567 73.3455 55.1622 73.25 54.6604C73.0306 53.1951 73.0951 51.7009 73.44 50.26C72.81 50.17 72.16 50.0404 71.44 49.8904C70.54 49.6904 69.5801 49.5 68.5901 49.3C65.9601 48.76 63.23 48.2 60.9 47.53C57.33 46.48 55.49 44.5302 54.96 41.1902C54.7557 39.5937 54.8234 37.9741 55.1601 36.4001C55.3023 35.5691 55.4024 34.7316 55.46 33.8904C55.46 33.4204 55.52 32.52 55.29 32.28C55.1371 32.1774 54.9532 32.1315 54.77 32.1501C54.6569 32.1408 54.5432 32.1408 54.43 32.1501C53.86 32.2201 53.33 33.28 52.82 34.3C52.03 35.88 51.14 37.6603 49.27 37.8303H49.01C47.09 37.8303 46.57 36.0102 46.19 34.6702C46.0711 33.9802 45.7825 33.3306 45.3501 32.78C45.1679 32.6432 44.9478 32.5666 44.7201 32.5603Z" fill="#A0938B"/>
<path d="M78.74 28.1003C78.12 26.8803 76.41 25.33 76.39 24.05C76.37 22.77 77.07 21.16 77.12 19.78C77.1473 18.8551 76.9909 17.9341 76.66 17.07C76.5909 17.0066 76.5096 16.958 76.421 16.927C76.3324 16.896 76.2385 16.8833 76.1449 16.8899C76.0513 16.8964 75.9601 16.922 75.8767 16.9651C75.7933 17.0081 75.7196 17.0679 75.66 17.1404C75.33 17.5304 75.83 18.95 75.82 19.55C75.82 21.36 74.68 23.4399 75.24 25.1799C75.59 26.2599 77.88 28.5104 77.82 29.3904C77.82 29.9804 76.41 30.6401 75.92 31.1101C74.8898 32.1627 74.218 33.5133 74 34.9699C74.1151 35.8783 74.4001 36.7573 74.84 37.5603C74.92 37.8203 75.21 38.7901 75.44 39.6701C75.8101 40.603 75.9374 41.6146 75.81 42.6101V42.9001C75.81 43.0801 75.81 43.2602 75.76 43.4402C75.71 43.6202 75.76 43.7899 75.7 43.9699V44.2502L75.65 44.7302C75.57 45.2202 75.49 45.7301 75.4 46.1101L75.31 46.49C75.31 46.59 75.31 46.6702 75.25 46.7502C75.14 47.2802 75.04 47.7502 74.98 47.9602L74.92 48.2102C74.7988 48.2429 74.6711 48.2429 74.55 48.2102H74.46H74.34C73.74 48.1402 72.85 47.9304 72.56 47.9104V47.8401L71.36 47.5803L69.29 47.1301L68.9 47.05L62.9 45.78L62.54 45.6999C61.5801 45.5585 60.6507 45.258 59.79 44.8103C59.467 44.6551 59.1647 44.4602 58.89 44.2302C58.5533 43.9434 58.2632 43.6061 58.03 43.2302C57.6363 42.6559 57.3578 42.0107 57.21 41.3303C57.099 40.8996 57.0551 40.4541 57.08 40.01C57.0701 39.5545 57.1036 39.0993 57.18 38.6501C56.95 36.3001 59.11 31.2699 55.96 30.2199C54.19 29.6199 52.96 30.2902 51.96 31.7302C51.37 32.5802 50.21 35.8002 49.13 35.7302C48.6 35.7302 48.3 33.8203 48.13 33.3303C47.36 31.1703 45.65 29.6303 43.28 30.8303C39.6 32.7103 43.48 38.5901 44.54 41.0901C46.14 44.8701 47.33 51.25 50.49 53.76C52.32 55.2 54.71 55.4601 56.88 56.1501C59.88 57.0901 62.8 58.2799 65.8 59.1999C68.31 59.9599 73.04 61.4899 75.25 59.6999C77.19 58.1299 75.75 56.1104 75.44 54.1604C74.99 51.2604 76.44 48.83 76.87 46.03C77.4389 43.4348 77.3217 40.7361 76.53 38.1999C75.85 35.9199 74.69 34.9501 76.43 32.6501C77.19 31.6501 78.85 30.9601 79.16 29.9201C79.2383 29.6051 79.2411 29.276 79.1681 28.9597C79.0951 28.6434 78.9484 28.3491 78.74 28.1003ZM73.2 59.1902C69.77 59.8402 61.09 56.1902 57.4 55.0002C53.33 53.7102 50.75 53.9102 48.82 49.4602C47.52 46.4602 46.74 43.0899 45.37 39.9699C44.46 37.9699 42.69 35.4201 43 33.1501C43.0668 32.8534 43.2081 32.5787 43.4106 32.3518C43.6131 32.1248 43.8701 31.9533 44.1573 31.8532C44.4445 31.7532 44.7524 31.728 45.0521 31.78C45.3518 31.832 45.6332 31.9592 45.87 32.1501C47.33 33.3401 46.74 37.2302 49.25 37.0202C51.95 36.7802 52.25 31.5901 54.38 31.3401C56.29 31.1101 56.38 32.3401 56.26 33.8601C56.14 36.3301 55.34 38.4202 55.75 41.0002C56.28 44.2602 58.07 45.8199 61.15 46.7199C64.23 47.6199 68.35 48.36 71.64 49.07C72.5627 49.2824 73.4979 49.436 74.44 49.53C73.9434 51.1269 73.8068 52.8139 74.04 54.4699C74.3847 55.5604 74.6554 56.673 74.85 57.8C74.78 58.62 73.89 59.0602 73.2 59.1902Z" fill="#A0938B"/>
<path d="M81.51 45.1898C81.9901 46.1487 82.1209 47.245 81.88 48.2899C81.55 49.6099 80.79 50.0397 80.13 51.0297C79.13 52.5297 80.61 55.0299 80.75 56.6898C81.22 62.2999 76.17 64.59 71.29 64.33C69.75 64.25 68.55 63.6897 67.06 64.4897C64.41 65.9197 64.97 70.69 61.86 71.06H38.02C33.46 70.13 36.02 65.4697 36.75 62.5297C37.02 61.5297 37.29 60.4598 37.5 59.4198C37.86 57.6298 38.66 53.55 37.38 52.12C36.83 51.51 33.88 49.9598 33.74 49.6698C33.6839 49.5732 33.6512 49.4649 33.6443 49.3534C33.6373 49.2419 33.6565 49.1301 33.7002 49.0273C33.7438 48.9244 33.8108 48.8331 33.8958 48.7607C33.9808 48.6882 34.0815 48.6366 34.19 48.6098C34.4833 48.6503 34.7618 48.7638 35 48.9398C38.42 50.8199 39.6 51.8899 39.36 56.0399C39.12 60.0399 37.52 64.1599 36.57 68.0399C36.5706 68.4411 36.709 68.8297 36.962 69.141C37.2151 69.4523 37.5674 69.6674 37.96 69.7499H61.74C63.07 69.4699 63.15 68.0697 63.62 67.0297C64.1216 65.6043 65.0331 64.3588 66.24 63.4496C68.55 62.0796 70.29 63.1499 72.68 63.0399C76.68 62.8599 80.11 60.6298 79.34 56.1698C79.11 54.8598 78.34 53.3099 78.41 51.9799C78.57 49.8099 81.6 48.6497 80.49 46.2397C80.26 45.7397 79.59 45.3797 79.71 44.8197C79.83 44.2597 80.37 44.3701 80.76 44.1601C82.5 43.2201 83.67 41.4001 82.15 39.6601C81.96 39.4501 81.61 39.3697 81.48 39.0497C80.98 37.8197 82.6 36.5497 83.54 36.0497C84.4799 35.5497 86.41 35.3399 86.08 33.7299C85.92 32.9599 84.08 31.3298 83.48 30.6498C82.0961 29.1706 80.8006 27.6113 79.6 25.9799C77.79 23.2999 79.6 21.6 79.69 18.83C79.69 18.35 79.28 17.2899 79.9 17.0199C81.38 16.3499 80.9 19.6901 80.83 20.4101C80.65 21.6401 79.95 22.85 80.12 24.06C80.24 24.92 81.9 26.7997 82.52 27.5497C83.65 28.9197 86.9 31.92 87.33 33.33C87.5436 33.9533 87.5015 34.6356 87.2129 35.2279C86.9242 35.8202 86.4125 36.2739 85.79 36.4897C85.13 36.8097 83.27 37.44 82.95 38.14C82.63 38.84 83.42 39.0599 83.69 39.5399C84.95 41.7099 83.54 44.2099 81.51 45.2099" fill="#A0938B"/>
<path d="M34.27 39.8799C35.1895 40.3492 36.078 40.877 36.93 41.46C38.1736 42.117 39.4637 42.6817 40.79 43.1499C41.8092 43.4227 42.811 43.7566 43.79 44.1499C43.9071 44.2202 43.9981 44.3266 44.0495 44.4531C44.1009 44.5796 44.1097 44.7196 44.0748 44.8516C44.0398 44.9836 43.9629 45.1006 43.8556 45.1851C43.7483 45.2696 43.6165 45.3167 43.48 45.3198C42.923 45.2447 42.3763 45.1075 41.85 44.9102C39.8332 44.3071 37.8856 43.4924 36.04 42.48C35.1914 42.0474 34.4073 41.4989 33.71 40.8501C33.6523 40.7524 33.6219 40.6408 33.6223 40.5273C33.6227 40.4139 33.6537 40.3024 33.7121 40.2051C33.7705 40.1078 33.8541 40.0283 33.954 39.9746C34.054 39.9209 34.1667 39.8949 34.28 39.8999" fill="#A0938B"/>
</svg>
