<svg width="102" height="102" viewBox="0 0 102 102" fill="none" xmlns="http://www.w3.org/2000/svg">
<path d="M0 0H94.85C95.7535 0 96.6482 0.177685 97.4829 0.523438C98.3176 0.86919 99.0761 1.37627 99.715 2.01514C100.354 2.654 100.861 3.41235 101.206 4.24707C101.552 5.08179 101.73 5.97639 101.73 6.87988V101.73H80.4301C59.0987 101.73 38.641 93.2559 23.5575 78.1724C8.47394 63.0888 0 42.6312 0 21.2998V0Z" fill="#F0FBFF"/>
<path d="M88.7 53V52.8999V52.7998C87.76 49.9998 87.03 46.8999 86.31 43.8799C84.38 35.7699 82.38 27.3899 76.04 21.6899C70.78 16.9599 64.76 14.9399 55.92 14.9399C54.54 14.9399 53.02 14.9401 51.27 15.1001C46.1231 15.3781 41.1785 17.1957 37.0773 20.3179C32.9762 23.4401 29.9078 27.7226 28.27 32.6099C27.08 36.1499 26.1299 39.8397 25.0999 43.9497L25.02 44.3101C24.31 47.0801 23.59 49.9399 22.76 52.6499V52.7197V52.7998C22.19 57.8798 25.5399 59.88 29.1099 62.02L29.66 62.3501L30.66 62.9497C33.16 64.4997 35.74 66.02 37.44 66.04H37.4999C39.0064 66.0219 40.4529 65.4468 41.5607 64.4258C42.6685 63.4047 43.3593 62.0098 43.4999 60.5098C44.0099 56.9198 44.22 53.1398 44.43 49.5098V49.0298C44.62 45.7698 44.81 42.41 45.2 39.21C45.7277 36.8051 47.0699 34.6563 48.9997 33.1274C50.9295 31.5986 53.3282 30.7834 55.79 30.8198H56.51C59.0618 30.9611 61.4751 32.0268 63.2988 33.8174C65.1225 35.608 66.232 38.0009 66.42 40.5498C66.71 43.2998 66.88 46.1998 67.03 49.0098V49.54C67.23 53.18 67.46 56.94 67.95 60.54C68.0639 61.4415 68.3636 62.3091 68.83 63.0889C69.2965 63.8686 69.9196 64.5432 70.66 65.0698C71.6185 65.7215 72.7509 66.0699 73.91 66.0698C74.4186 66.0692 74.9254 66.0091 75.42 65.8901C77.2894 65.1711 79.0628 64.2236 80.7 63.0698L81.45 62.6099C81.75 62.4199 82.0599 62.2401 82.3799 62.0601C85.6899 60.0101 89.16 57.95 88.7 53ZM26.79 54.52V57.6997L25.64 56.0801C25.3332 55.3722 25.1441 54.6189 25.08 53.8501V53.7598C25.68 51.5698 26.24 49.3199 26.78 47.1299C27.91 42.6599 29.06 38.0401 30.51 33.6201C32.1016 28.7024 35.2946 24.4594 39.5794 21.5684C43.8642 18.6774 48.994 17.3048 54.15 17.6699V18.1797C53.9 18.1797 53.5 18.69 53.26 18.98C53.02 19.27 52.85 19.46 52.68 19.52C52.1415 19.6102 51.5959 19.6504 51.05 19.6401C50.6425 19.6357 50.2351 19.6554 49.83 19.6997C46.0165 20.2166 42.4134 21.7542 39.4017 24.1499C36.3899 26.5456 34.0815 29.7106 32.72 33.3101C31.4097 37.068 30.3145 40.8972 29.44 44.7798C28.65 48.0398 27.83 51.42 26.79 54.52ZM81.26 58.3799C80.56 59.2899 76.26 61.9197 75.01 62.4297C74.6175 62.5836 74.2014 62.6682 73.78 62.6797C73.3832 62.6829 72.9929 62.5795 72.65 62.3799C72.2224 62.0724 71.8692 61.673 71.6165 61.2109C71.3638 60.7488 71.2181 60.2359 71.19 59.71C70.79 56.57 70.6299 53.1601 70.4799 50.1401C70.3555 46.2716 70.0216 42.4125 69.4799 38.5801C68.4799 32.5001 62.13 27.3599 55.59 27.3599H55.47C49.09 27.4099 42.8599 32.5501 41.8799 38.5801C41.3369 42.3554 41.0031 46.1575 40.8799 49.9697V50.3501C40.7199 53.4601 40.55 56.69 40.17 59.71C40.01 61.05 39.39 62.6499 37.44 62.6499H37.02C34.9232 61.7241 32.9149 60.6094 31.02 59.3198C29.02 57.7698 28.97 56.08 29.58 53.5C30.93 47.78 32.79 41.0898 34.58 35.5898C37.32 27.0498 44.3399 21.9497 53.3499 21.9497H53.97L54.19 21.7998C54.5258 21.558 54.7943 21.2345 54.97 20.8599C55.19 20.4599 55.27 20.3498 55.51 20.2998H55.7399C56.0199 20.2998 56.15 20.4199 56.42 20.9399C56.5947 21.3424 56.8969 21.6764 57.28 21.8901L57.45 21.9697H58.06C62.2688 21.8566 66.396 23.1449 69.7934 25.6318C73.1908 28.1188 75.6659 31.6637 76.83 35.71C77.96 39.27 79 43.22 79.91 46.71L80.2 47.7998C80.38 48.4698 80.5599 49.1398 80.7299 49.7998C80.8599 50.2498 81 50.7197 81.15 51.1997V51.3198C81.97 53.7998 82.78 56.4199 81.26 58.4199V58.3799ZM86.26 53.8501C86.2079 54.6687 85.9901 55.4678 85.6199 56.1997C85.4617 56.5349 85.2412 56.8371 84.97 57.0898L84.56 57.3901V54.52C83.56 51.4 82.69 48.0398 81.89 44.7798C81.0234 40.8962 79.9316 37.0667 78.6199 33.3101C77.2559 29.7104 74.9452 26.5459 71.9319 24.1504C68.9187 21.7549 65.3145 20.2169 61.4999 19.6997C61.0982 19.655 60.6942 19.6354 60.29 19.6401C59.7408 19.6508 59.1918 19.6105 58.65 19.52C58.48 19.46 58.34 19.29 58.08 18.98C57.82 18.67 57.43 18.2097 57.19 18.1797V17.6699C62.2798 17.2872 67.3522 18.6083 71.6086 21.4253C75.8649 24.2423 79.0633 28.3954 80.7 33.23C82.15 37.49 83.26 41.9801 84.34 46.3301C84.95 48.7801 85.5699 51.3298 86.2499 53.7598V53.8501H86.26Z" fill="#A0938B"/>
<path d="M66.78 26.4802C63.46 24.2502 57.5699 23.4102 53.4799 23.7302C51.0266 23.9527 48.6273 24.5811 46.38 25.59L46.15 25.6901C45.51 25.9701 44.15 26.5401 44.04 27.1901C44.0251 27.3029 44.0383 27.4177 44.0785 27.5241C44.1186 27.6305 44.1843 27.7251 44.27 27.8C44.76 28.34 45.76 27.8 46.57 27.32C46.8195 27.1762 47.0766 27.0459 47.3401 26.9299C49.9934 25.8143 52.8418 25.2368 55.7201 25.2302C58.5134 25.2312 61.2791 25.7818 63.86 26.8503C64.2023 26.9946 64.5361 27.158 64.86 27.34C65.3599 27.6507 65.8977 27.896 66.46 28.07C66.6322 28.0944 66.8074 28.0591 66.9566 27.9699C67.1059 27.8807 67.22 27.7434 67.28 27.5803C67.328 27.3675 67.3052 27.1446 67.2149 26.946C67.1247 26.7474 66.9719 26.5839 66.78 26.4802Z" fill="#A0938B"/>
</svg>
