<svg width="102" height="102" viewBox="0 0 102 102" fill="none" xmlns="http://www.w3.org/2000/svg">
<path d="M0 0H94.85C96.6747 0 98.4247 0.724886 99.7149 2.01514C101.005 3.30539 101.73 5.05519 101.73 6.87988V101.73H80.43C59.0986 101.73 38.641 93.2559 23.5574 78.1724C8.47385 63.0888 0 42.6312 0 21.2998V0Z" fill="#F0FBFF"/>
<path d="M83.36 22.0298V42.79C84.22 44.1 86.66 44.8601 87.79 45.8501C88.5645 46.7414 89.2355 47.7173 89.79 48.7598C91.79 53.3698 88.08 57.1999 83.32 55.6499V59.8901H61.74C61.56 59.8901 61.34 60.3398 61.31 60.5898C61.17 61.8498 62.41 65.4398 62.21 67.0498C62.48 67.8498 63.71 67.27 64.32 67.77C64.75 68.12 64.7 69.01 64.99 69.5H48.32C47.76 67.05 51.13 67.8601 51.39 67.0601C51.65 66.2601 51.6 63.4498 51.74 62.3198C51.8 61.8398 52.62 59.8901 51.85 59.8901H30.66C29.66 59.8901 30.27 58.0698 30.25 57.7598C29.73 47.7598 29.95 36.2701 29.94 26.1201C29.94 25.4701 30.24 22.0298 30.66 22.0298H83.36ZM81.36 53.3901V24.3901L32.48 24.1001C32.2755 24.3289 32.1188 24.596 32.0192 24.8862C31.9196 25.1765 31.879 25.4839 31.9 25.79C31.06 35.14 32.57 45.7197 31.9 55.1997C31.82 56.0997 32.22 56.75 33.17 56.75H80.39C81.56 56.96 81.62 55.16 81.22 54.48C80.82 53.8 77.67 52.1801 76.6 50.6201C75.53 49.0601 74.85 44.6199 73.72 43.8999C72.14 42.8999 70.46 44.3601 68.72 44.5601C64 45.1201 53.62 42.0201 49.48 39.5601C48.25 38.8301 47.23 37.72 45.83 37C43.99 36 37.29 34.1499 36.39 33.1499C35.78 32.4699 36.16 30.87 37.11 30.73C38.56 30.51 45.01 33.49 47.35 33.73C49.5 34 51.77 33.73 53.93 34.21C56.29 34.76 72.02 40.6901 73.11 41.8701C73.44 42.2301 74.88 43.8702 75.06 44.1602C75.7 45.1602 75.86 46.84 76.3 48C76.731 49.2029 77.4042 50.3046 78.278 51.2368C79.1518 52.1691 80.2075 52.912 81.38 53.4199L81.36 53.3901ZM83.36 44.77V54.52C87.36 55.78 90.36 53.95 89.1 49.52C88.58 47.73 85.63 45.14 83.92 44.52C83.8125 44.4806 83.6938 44.4846 83.5893 44.5312C83.4847 44.5779 83.4024 44.6637 83.36 44.77Z" fill="#A0938B"/>
</svg>
