<svg width="102" height="102" viewBox="0 0 102 102" fill="none" xmlns="http://www.w3.org/2000/svg">
<path d="M0 0H94.85C95.753 -9.56652e-07 96.6472 0.178051 97.4813 0.523926C98.3155 0.869801 99.0733 1.37663 99.7114 2.01562C100.349 2.65462 100.855 3.41339 101.2 4.24805C101.545 5.08271 101.721 5.97686 101.72 6.87988V101.73H80.43C69.8678 101.73 59.409 99.6494 49.6508 95.6074C39.8925 91.5654 31.0261 85.641 23.5574 78.1724C16.0888 70.7038 10.1644 61.8373 6.12238 52.0791C2.08039 42.3209 0 31.862 0 21.2998V0Z" fill="#F0FBFF"/>
<path d="M75.45 38.9102C75.6412 39.4425 75.736 40.0043 75.73 40.5698C69.5 39.8998 63.16 39.5699 57.11 37.9199C57.0339 38.3691 57.0005 38.8243 57.01 39.2798L60.01 39.9697C60.18 40.0997 59.89 41.3199 60.01 41.6299C59.1084 41.4474 58.2172 41.2172 57.34 40.9399C57.2501 40.8595 57.1843 40.7558 57.15 40.6401C57.2978 41.3206 57.5763 41.9657 57.97 42.54C57.97 42.54 57.97 42.5397 57.97 42.4897C58.23 42.6097 59.82 42.8497 59.88 42.9297C59.9052 43.2625 59.9052 43.5968 59.88 43.9297C59.88 44.0497 59.88 44.1401 59.73 44.0801C60.59 44.5315 61.5195 44.8356 62.48 44.98C62.0373 44.8921 61.6026 44.7682 61.18 44.6099C61.08 44.4399 61.23 43.51 61.18 43.23L63.86 43.71C64 43.81 63.73 44.8799 63.74 45.1499C63.4536 45.1699 63.1659 45.1396 62.89 45.0601L68.89 46.3301L69.21 44.6201L71.67 44.8398L71.35 46.8398L72.55 47.0898L73.06 45.0898C73.8282 45.1327 74.5929 45.2229 75.35 45.3599C75.44 44.9299 75.52 44.4597 75.6 43.9697L73.27 43.77L73.59 41.6201C74.3302 41.7488 75.0789 41.822 75.83 41.8398C75.9535 40.8468 75.8227 39.8389 75.45 38.9102ZM64.06 42.4199C63.1871 42.3365 62.3215 42.1895 61.47 41.98C61.04 41.82 61.42 40.66 61.39 40.29L64.28 40.7197L64.06 42.4199ZM67.71 46.0698L65.03 45.5298C65.0633 45.0307 65.1402 44.5355 65.26 44.0498C65.54 43.8698 67.44 44.4901 67.92 44.3501L67.71 46.0698ZM68.23 43.0698C67.2731 43.011 66.323 42.8705 65.39 42.6499L65.56 40.9399C66.5247 40.9632 67.4852 41.0737 68.43 41.27L68.23 43.0698ZM71.97 43.6001C71.1608 43.5976 70.3549 43.4965 69.57 43.2998L69.73 41.3599L72.31 41.5801L71.97 43.6001ZM75.21 46.0698L74.94 47.27C75 46.98 75.13 46.55 75.21 46.02V46.0698Z" fill="#A0938B"/>
<path d="M72.13 61.3302C69.9197 61.2027 67.7384 60.7648 65.65 60.0299L65.43 59.9601C63.85 59.4801 62.28 58.9603 60.76 58.3703C59.24 57.7803 57.93 57.3703 56.5 56.9103C55.94 56.7303 55.36 56.5798 54.79 56.4298C53.0234 56.1202 51.3429 55.4385 49.86 54.4298C47.41 52.4898 46.11 48.5402 44.97 45.0602C44.53 43.7402 44.12 42.4901 43.69 41.4601C43.52 41.0601 43.27 40.5599 42.98 39.9899C41.51 37.0499 39.04 32.1299 42.78 30.2199C43.3818 29.9013 44.0493 29.7269 44.73 29.7101C46.45 29.7101 47.93 31.0003 48.73 33.1403C48.73 33.2703 48.84 33.5002 48.91 33.7702C48.9946 34.1528 49.1014 34.5299 49.23 34.9001C49.7336 34.1841 50.172 33.4243 50.54 32.63C50.7386 32.1872 50.9692 31.7596 51.23 31.3503C51.5776 30.7486 52.0715 30.244 52.6658 29.8839C53.2601 29.5239 53.9357 29.3198 54.63 29.2902C55.1274 29.298 55.6204 29.3856 56.09 29.55C58.91 30.5 58.41 33.7999 58.04 36.1999C57.9252 36.8616 57.8484 37.5294 57.81 38.1999L57.95 38.2702L57.86 38.8302C57.7927 39.2368 57.7593 39.6482 57.76 40.0602C57.749 40.4121 57.7759 40.7639 57.84 41.11V41.1999V41.32C57.9613 41.8798 58.1924 42.4101 58.52 42.88L58.62 43.0202V43.07C58.8107 43.2918 59.0144 43.5021 59.23 43.6999C59.4 43.8299 59.67 44.0103 59.82 44.1003H59.96L60.12 44.2502C60.8624 44.6246 61.6586 44.8808 62.48 45.0099H62.54H62.62L69.36 46.4401L70.95 46.7902L71.43 46.88L73.43 47.3102L74.2 47.4499C74.26 47.2099 74.32 46.9202 74.4 46.5802L74.52 45.9499C74.61 45.5299 74.69 45.07 74.76 44.59L74.82 44.2301V44.1603C74.82 44.0503 74.82 43.9801 74.82 43.9201L74.89 43.3503C74.89 43.1503 74.89 42.99 74.89 42.82V42.5299C75.0234 41.6775 74.9303 40.8052 74.62 40.0002V39.9201V39.8302C74.39 38.9202 74.1 37.9799 74.03 37.7599C73.96 37.5399 73.83 37.2699 73.72 37.0299C73.3689 36.3803 73.1738 35.6581 73.15 34.9201C73.3757 33.2615 74.1337 31.7208 75.31 30.5299C75.5609 30.2995 75.832 30.0924 76.12 29.9103C76.4209 29.7183 76.7023 29.4971 76.96 29.2502C76.6247 28.6383 76.2329 28.0592 75.79 27.5202C75.2347 26.877 74.7765 26.1559 74.43 25.38C74.1464 24.1224 74.2156 22.8108 74.63 21.59C74.825 20.9121 74.9424 20.2143 74.98 19.5099C74.9592 19.2645 74.9225 19.0206 74.87 18.7799C74.7 17.9399 74.54 17.14 74.99 16.61C75.1304 16.4452 75.3053 16.3132 75.5022 16.2233C75.6992 16.1335 75.9135 16.088 76.13 16.09C76.3176 16.0871 76.5037 16.1238 76.676 16.1979C76.8484 16.272 77.0031 16.382 77.13 16.5202C77.79 17.2202 77.79 19.7499 77.78 19.7799C77.7264 20.5445 77.5957 21.3019 77.39 22.0402C77.1999 22.6911 77.089 23.3627 77.06 24.0402C77.2835 24.8523 77.7023 25.5972 78.28 26.2101C78.6588 26.696 78.9935 27.2145 79.28 27.7599C79.5137 28.1066 79.6665 28.5015 79.727 28.9152C79.7876 29.3289 79.7545 29.7509 79.63 30.1501C79.2825 30.9849 78.6761 31.686 77.9 32.1501C77.4873 32.4365 77.1112 32.7723 76.78 33.1501C75.69 34.5901 75.94 35.2102 76.49 36.5802C76.65 37.0002 76.84 37.4702 77.01 38.0202C77.8341 40.6703 77.9547 43.489 77.36 46.1999C77.1779 47.1636 76.9375 48.1154 76.64 49.05C76.0292 50.6416 75.7897 52.3517 75.94 54.05C76.0248 54.5207 76.1417 54.9853 76.29 55.4401C76.75 56.9401 77.29 58.8002 75.47 60.2902C74.4689 61.0097 73.2507 61.3628 72.02 61.2902L72.13 61.3302ZM44.68 32.5602C44.4572 32.5295 44.2311 32.5834 44.046 32.7111C43.8609 32.8388 43.7303 33.031 43.68 33.2502C43.48 34.7402 44.4 36.5102 45.2 38.0802C45.49 38.6302 45.76 39.1503 45.98 39.6603C46.7 41.3003 47.26 42.9903 47.81 44.6603C48.36 46.3303 48.81 47.7401 49.45 49.1901C50.87 52.4801 52.58 52.9301 55.45 53.6901C56.11 53.8701 56.82 54.06 57.58 54.3C58.34 54.54 59.52 54.9603 60.78 55.4103C64.43 56.7303 69.44 58.5299 72.23 58.5299C72.4912 58.533 72.7523 58.5129 73.01 58.4699C73.49 58.3799 74.01 58.1 74.01 57.8C73.941 57.2331 73.8067 56.6764 73.61 56.1403C73.4458 55.6566 73.3155 55.1621 73.22 54.6603C73.0005 53.195 73.0651 51.7008 73.41 50.2599C72.78 50.1699 72.13 50.0403 71.41 49.8903C70.5 49.6903 69.55 49.5 68.56 49.3C65.93 48.76 63.2 48.1999 60.87 47.5299C57.3 46.4799 55.46 44.5301 54.93 41.1901C54.7257 39.5936 54.7933 37.974 55.13 36.4001C55.2723 35.569 55.3724 34.7315 55.43 33.8903C55.43 33.4203 55.49 32.5199 55.26 32.2799C55.1071 32.1773 54.9232 32.1315 54.74 32.1501C54.6268 32.1407 54.5131 32.1407 54.4 32.1501C53.83 32.2201 53.3 33.28 52.79 34.3C52 35.88 51.11 37.6602 49.24 37.8302H48.98C47.06 37.8302 46.54 36.0101 46.16 34.6701C46.0411 33.9802 45.7524 33.3305 45.32 32.7799C45.1462 32.6489 44.9374 32.5726 44.72 32.5602H44.68Z" fill="#A0938B"/>
<path d="M78.74 28.1003C78.12 26.8803 76.41 25.33 76.39 24.05C76.37 22.77 77.07 21.16 77.12 19.78C77.1472 18.8551 76.9909 17.9341 76.66 17.07C76.5909 17.0066 76.5096 16.958 76.421 16.927C76.3324 16.896 76.2385 16.8833 76.1449 16.8899C76.0513 16.8964 75.9601 16.922 75.8767 16.9651C75.7933 17.0081 75.7196 17.0679 75.66 17.1404C75.33 17.5304 75.83 18.95 75.82 19.55C75.82 21.36 74.68 23.4399 75.23 25.1799C75.59 26.2599 77.88 28.5104 77.82 29.3904C77.82 29.9804 76.41 30.6401 75.92 31.1101C74.89 32.1642 74.2153 33.5136 73.99 34.9699C74.1132 35.8778 74.4013 36.7559 74.84 37.5603C74.92 37.8203 75.21 38.7901 75.44 39.6701C75.8101 40.603 75.9374 41.6146 75.81 42.6101V42.9001C75.81 43.0801 75.81 43.2602 75.81 43.4402L75.75 43.9699V44.2502V44.7302C75.67 45.2202 75.59 45.7301 75.5 46.1101L75.41 46.49C75.41 46.59 75.41 46.6702 75.3499 46.7502C75.2399 47.2802 75.14 47.7502 75.08 47.9602L75.02 48.2102C74.8988 48.2429 74.7712 48.2429 74.65 48.2102H74.56H74.44C73.84 48.1402 72.95 47.9304 72.66 47.9104V47.8401L71.46 47.5803L69.39 47.1301L69 47.05L63 45.78L62.63 45.6999C61.6701 45.5585 60.7407 45.258 59.88 44.8103C59.557 44.6551 59.2547 44.4602 58.98 44.2302C58.6432 43.9434 58.3531 43.6061 58.12 43.2302C57.7263 42.6559 57.4478 42.0107 57.3 41.3303C57.1889 40.8996 57.1451 40.4541 57.17 40.01C57.1601 39.5545 57.1936 39.0993 57.27 38.6501C57.04 36.3001 59.2 31.2699 56.05 30.2199C54.28 29.6199 53.05 30.2902 52.05 31.7302C51.46 32.5802 50.3 35.8002 49.22 35.7302C48.69 35.7302 48.39 33.8203 48.22 33.3303C47.45 31.1703 45.74 29.6303 43.37 30.8303C39.69 32.7103 43.57 38.5901 44.63 41.0901C46.23 44.8701 47.42 51.25 50.63 53.76C52.46 55.2 54.85 55.4601 57.02 56.1501C60.02 57.0901 62.94 58.2799 65.94 59.1999C68.45 59.9599 73.18 61.4899 75.39 59.6999C77.33 58.1299 75.89 56.1104 75.58 54.1604C75.13 51.2604 76.53 48.83 77.01 46.03C77.5789 43.4348 77.4616 40.7361 76.67 38.1999C75.99 35.9199 74.83 34.9501 76.57 32.6501C77.33 31.6501 78.99 30.9601 79.3 29.9201C79.3574 29.5941 79.3367 29.259 79.2393 28.9426C79.1419 28.6262 78.9708 28.3376 78.74 28.1003ZM73.2 59.1902C69.76 59.8402 61.09 56.1902 57.4 55.0002C53.33 53.7102 50.75 53.9102 48.82 49.4602C47.52 46.4602 46.73 43.0899 45.36 39.9699C44.46 37.9699 42.69 35.4201 43 33.1501C43.0668 32.8534 43.2081 32.5787 43.4106 32.3518C43.6131 32.1248 43.8701 31.9533 44.1573 31.8532C44.4445 31.7532 44.7524 31.728 45.0521 31.78C45.3518 31.832 45.6332 31.9592 45.87 32.1501C47.33 33.3401 46.74 37.2302 49.25 37.0202C51.95 36.7802 52.25 31.5901 54.38 31.3401C56.29 31.1101 56.38 32.3401 56.26 33.8601C56.14 36.3301 55.34 38.4202 55.75 41.0002C56.28 44.2602 58.07 45.8199 61.15 46.7199C64.23 47.6199 68.35 48.36 71.64 49.07C72.5627 49.2824 73.4979 49.436 74.44 49.53C73.9434 51.1269 73.8067 52.8139 74.04 54.4699C74.3847 55.5604 74.6553 56.673 74.8499 57.8C74.7799 58.62 73.89 59.0602 73.2 59.1902Z" fill="#A0938B"/>
<path d="M81.51 45.1898C81.9901 46.1487 82.1209 47.245 81.88 48.2899C81.55 49.6099 80.79 50.0397 80.13 51.0297C79.13 52.5297 80.61 55.0299 80.75 56.6898C81.22 62.2999 76.17 64.59 71.29 64.33C69.75 64.25 68.55 63.6897 67.06 64.4897C64.41 65.9197 64.97 70.69 61.86 71.06H38.02C33.46 70.13 36.02 65.4697 36.75 62.5297C37.02 61.5297 37.29 60.4598 37.5 59.4198C37.86 57.6298 38.66 53.55 37.38 52.12C36.83 51.51 33.88 49.9598 33.74 49.6698C33.6839 49.5732 33.6512 49.4649 33.6443 49.3534C33.6373 49.2419 33.6565 49.1301 33.7002 49.0273C33.7438 48.9244 33.8108 48.8331 33.8958 48.7607C33.9808 48.6882 34.0815 48.6366 34.19 48.6098C34.4833 48.6503 34.7618 48.7638 35 48.9398C38.42 50.8199 39.6 51.8899 39.36 56.0399C39.12 60.0399 37.52 64.1599 36.56 68.0399C36.5629 68.442 36.7034 68.8309 36.9581 69.142C37.2128 69.4531 37.5664 69.6677 37.96 69.7499H61.74C63.07 69.4699 63.14 68.0697 63.62 67.0297C64.1216 65.6043 65.0331 64.3588 66.24 63.4496C68.55 62.0796 70.24 63.1499 72.68 63.0399C76.68 62.8599 80.11 60.6298 79.34 56.1698C79.11 54.8598 78.34 53.3099 78.41 51.9799C78.57 49.8099 81.6 48.6497 80.49 46.2397C80.26 45.7397 79.59 45.3797 79.7 44.8197C79.81 44.2597 80.37 44.3701 80.76 44.1601C82.49 43.2201 83.67 41.4001 82.14 39.6601C81.96 39.4501 81.61 39.3697 81.48 39.0497C80.97 37.8197 82.6 36.5497 83.48 36.0497C84.58 35.4297 86.36 35.3399 86.03 33.7299C85.87 32.9599 84.03 31.3298 83.43 30.6498C82.0461 29.1706 80.7506 27.6113 79.55 25.9799C77.74 23.2999 79.55 21.6 79.64 18.83C79.64 18.35 79.2299 17.2899 79.8499 17.0199C81.3299 16.3499 80.85 19.6901 80.78 20.4101C80.6 21.6401 79.9 22.85 80.07 24.06C80.19 24.92 81.85 26.7997 82.47 27.5497C83.6 28.9197 86.85 31.92 87.28 33.33C87.4936 33.9533 87.4515 34.6356 87.1628 35.2279C86.8742 35.8202 86.3625 36.2739 85.74 36.4897C85.08 36.8097 83.22 37.44 82.9 38.14C82.58 38.84 83.36 39.0599 83.64 39.5399C84.9 41.7099 83.49 44.2099 81.46 45.2099" fill="#A0938B"/>
<path d="M34.27 39.8799C35.1895 40.3492 36.078 40.877 36.93 41.46C38.1736 42.117 39.4637 42.6817 40.79 43.1499C41.8092 43.4227 42.811 43.7566 43.79 44.1499C43.9071 44.2202 43.9981 44.3266 44.0495 44.4531C44.1009 44.5796 44.1097 44.7196 44.0748 44.8516C44.0398 44.9836 43.9629 45.1006 43.8556 45.1851C43.7483 45.2696 43.6165 45.3167 43.48 45.3198C42.923 45.2447 42.3762 45.1075 41.85 44.9102C39.8331 44.3071 37.8856 43.4924 36.04 42.48C35.1914 42.0474 34.4073 41.4989 33.71 40.8501C33.6523 40.7524 33.6219 40.6408 33.6223 40.5273C33.6227 40.4139 33.6537 40.3024 33.7121 40.2051C33.7705 40.1078 33.8541 40.0283 33.954 39.9746C34.054 39.9209 34.1667 39.8949 34.28 39.8999" fill="#A0938B"/>
</svg>
