<svg version="1.2" xmlns="http://www.w3.org/2000/svg" viewBox="0 0 976 362" width="976" height="362">
	<style>
		.s0 { fill: #ffffff } 
	</style>
	<g>
		<path class="s0" d="m240.36 153.84h-0.03q-0.07-0.24-0.11-0.48 0.11 0.24 0.14 0.48z"/>
		<path class="s0" d="m654.32 70.12h16.97c2.21 0 4 1.79 4 4v129.22c0 2.21-1.79 4-4 4h-16.97c-2.21 0-4-1.79-4-4v-129.22c0-2.21 1.79-4 4-4z"/>
		<path class="s0" d="m654.77 9.46h16.06c2.3 0 4.17 1.87 4.17 4.17v16.06c0 2.3-1.87 4.17-4.17 4.17h-16.06c-2.3 0-4.17-1.87-4.17-4.17v-16.06c0-2.3 1.87-4.17 4.17-4.17z"/>
		<path class="s0" d="m803.85 112.71c-8.33 30.63-1.42 56.26 20.56 76.2 21.93 19.91 61.62 24.34 90.35 10.05 12.14-6.04 21.27-14.27 27.89-25.16l0.09-0.21c0.39-1.06-0.09-2.26-1.12-2.81l-5.14-2.62c-3.05-1.17-6.37-2.43-9.72-3.62-3.01-1.07-3.81-1.2-5.01-0.21l-0.54 0.52c-15.43 18.76-36.61 24.57-62.88 17.28-17.31-4.81-30.56-23.84-29.54-42.43l0.14-2.6h119.14c0.78-13.62-1.67-25.81-7.46-37.19-12.22-24.08-36.74-38.06-64.95-38.06q-7.97-0.01-16.25 1.51c-29.01 5.35-48.22 22.42-55.55 49.36zm26.72 3.75c4.5-19.62 22.67-33.28 44.23-33.28h0.22c21.87 0.11 39.64 13.49 44.2 33.28l0.78 3.37h-90.21l0.77-3.37z"/>
		<path class="s0" d="m379.01 204.65q0 0.38 0.1 0.68l0.14 0.44c0.24 0.53 0.65 0.97 1.15 1.22q0.65 0.35 1.29 0.35h20.21c0.42 0 0.85-0.11 1.23-0.31 0.74-0.39 1.25-1.04 1.41-1.77l0.06-18.39-0.11-48.26c0.02-8.8 0.97-21.78 8.89-32.93 8.99-12.67 22.44-17.88 39.98-15.57 14.27 1.91 24.2 10.92 27.96 25.37 1.54 5.9 2.3 12.54 2.4 20.91l0.02 2.46-0.16 0.86v64.95c0 0.24 0.04 0.49 0.1 0.68l0.14 0.44c0.24 0.53 0.65 0.96 1.15 1.22q0.67 0.35 1.29 0.35h20.21c0.42 0 0.86-0.11 1.24-0.32 0.73-0.37 1.24-1.03 1.4-1.76l0.68-78.89c0.55-18.98 10.87-31.56 29.09-35.47 13.96-2.99 25.91-1.19 34.59 5.2 8.29 6.1 13.11 15.87 14.32 29.04 0.43 4.67 0.46 9.38 0.46 13.44l-0.08 66.09c0 0.24 0.04 0.49 0.1 0.68l0.14 0.44c0.24 0.53 0.64 0.97 1.15 1.22q0.65 0.35 1.29 0.35h20.21c0.42 0 0.85-0.11 1.23-0.31 0.74-0.38 1.25-1.04 1.41-1.77l-0.07-66.73-0.97-22.06c-1.98-30.78-23.45-50.31-53.94-49.48-18.31 0.43-33.48 9.58-46.38 27.95-0.89 1.25-1.81 2.45-2.86 3.83l-4.96 6.57-1.48-5.28c-5.03-17.96-20.31-30.55-39.89-32.86-10.83-1.28-22.06 1.09-31.53 6.49-10.56 6.02-23.65 16.11-27.5 28.12l-0.27-29.84c-0.01-1.23-1.01-2.22-2.23-2.22l-20.38-0.05c-1.24 0-2.25 1-2.25 2.24v132.72z"/>
		<path class="s0" d="m731.57 9.46c-2.98 0-5.4 2.42-5.4 5.4v16.36c0 46.17-0.02 92.34 0.03 138.52 0 3.5 0.25 7.26 0.79 12.2 1.28 11.59 8.97 20.66 19.6 23.1 6.58 1.5 13.67 1.88 20.38 2.12l1.18 0.17h18.84c1.49 0 2.7-1.21 2.7-2.7v-16.52c0-1.48-1.21-2.69-2.7-2.69l-24.5 0.15c-2.71 0-6.12-0.19-8.41-2.47-2.29-2.27-2.56-5.61-2.53-8.58 0.2-19.47 0.17-38.95 0.14-58.42l-0.04-41.38c-0.02-18.2-0.04-40.85 0.07-59.84 0.02-2.99-2.4-5.42-5.4-5.42h-14.74z"/>
		<path class="s0" d="m228.13 164.96c2.82 17.45 11.37 29.15 25.4 34.77 25.46 10.19 52 10.14 78.89-0.17 12.96-4.98 20.2-15.14 20.93-29.37 0.71-13.7-4.84-23.79-16.49-29.98-7.32-3.92-15.57-7.36-25.96-10.81-6.77-2.25-13.63-4.21-20.5-6.18-6.69-1.91-13.38-3.83-20-6.01-8.64-2.83-13.11-9.01-12.24-16.97 1.69-16.01 25.79-18.62 39.79-17.6 3.85 0.28 7.53 1.02 10.94 2.2 3.55 1.24 6.78 2.94 9.58 5.08 2.94 2.22 5.41 4.93 7.34 8.04q1.5 2.42 2.56 5.13c0.68 1.74 1.27 3.53 1.69 5.35q0.2 0.84 1.1 1.28c0.55 0.28 1.14 0.3 1.75 0.15l17.52-5.42c1.55-0.47 1.6-0.97 1.63-1.38 0.1-0.61-0.04-1.43-0.14-2.03l-0.12-0.76q-0.23-1.6-0.63-3.17c-0.89-3.52-2.3-6.94-4.19-10.19-1.91-3.26-4.2-6.19-6.84-8.7-2.72-2.6-5.7-4.67-8.87-6.16-18.84-8.85-59.03-13.67-82.37 0.77-10.37 6.41-15.9 15.87-16.43 28.11-0.57 13.26 5.39 23.55 17.24 29.76 8.39 4.4 17.75 7.52 26.8 10.53l3.03 1.01c5.26 1.77 10.58 3.3 15.9 4.83 6.65 1.91 13.54 3.9 20.19 6.33 8.52 3.12 12.88 9.41 11.95 17.26-0.93 7.83-6.24 13.01-14.95 14.58-8.53 1.54-16.77 2.28-24.39 2.17-21.16-0.31-33.01-9.23-37.28-28.07l-0.15-0.76c-0.08-0.23-0.44-0.72-0.94-1.05q-0.62-0.42-1.33-0.41-0.21 0-0.42 0.04l-17.73 3.1c-2.31 0.4-2.35 1.02-2.42 1.82l0.03 0.19-0.05 1.08c0.05 0.63 0.09 1.08 0.17 1.61z"/>
		<g>
			<path class="s0" d="m100.37 152.23q0.8-1.69 1.43-3.46c-13.62 5.02-29.23 3.15-42.78-1.01-17.58-5.44-32.95-18.13-45.8-30.96q-0.43-0.42-0.84-0.86-0.06-0.02-0.09-0.09c0 0-0.07-0.07-0.08-0.08-1.01-1.01-1.59-1.84-2.89-2.3-7.35 28.26 12.35 68.94 44.44 68.94 11.39 0 21.9-3.72 30.38-10.02 7.01-5.18 12.65-12.12 16.23-20.16z"/>
			<path class="s0" d="m74.74 135.39c2.77-0.24 5.54-0.6 8.31-0.69-2.71-1.86-5.32-4.24-7.15-6.99-2.35-3.52-5.23-6.56-7.15-10.43-2.1-4.23-3.53-8.78-4.6-13.37-2.01-8.59-2.89-17.55-2.73-26.37q0.07-3.33 0.2-6.54c0.33-8.76 0.64-17.03-1.89-26.18-4.55-16.47-16.86-33.07-34.56-35.16v-0.22h-12.34c-3.96 0-7.17 3.23-7.17 7.17l-0.54 49.63q0 0.75 0.02 1.51c0.41 19.2 8.96 37.65 23.27 50.44 7.02 6.28 15.31 11.12 24.24 14.12 4.58 1.54 9.33 2.6 14.13 3.15 2.63 0.3 5.29 0.17 7.96-0.07z"/>
			<path class="s0" d="m165.49 17.54c0-4.45-3.61-8.08-8.05-8.08h-39.08c-4.45 0-8.08 3.62-8.08 8.05l-0.85 112.08c-0.2 11.57-1.16 23.96-6.78 36.23q-0.43 0.96-0.9 1.89c-1.98 3.96-4.45 7.97-7.35 11.91-2.02 2.74-4.25 5.22-6.61 7.85q-1.28 1.41-2.53 2.84c-4.7 5.36-10.87 11.1-17.46 13.97 0.69-0.3 4.26 1.39 5.14 1.6q2.97 0.74 6.01 1.07c3.25 0.36 6.6 0.51 9.84 0.7 7.1 0.42 15.13-1.5 21.79-3.81 11.01-3.82 21.31-10.09 29.81-18.15 16.37-15.54 25.76-37.39 25.76-59.97l-0.64-108.19z"/>
		</g>
		<path class="s0" d="m184.97 182.31h13.57c3.15 0 5.7 2.55 5.7 5.7v13.56c0 3.15-2.56 5.7-5.7 5.7h-13.56c-3.15 0-5.7-2.56-5.7-5.7v-13.56c0-3.15 2.55-5.7 5.69-5.7z"/>
	</g>
	<g>
		<path class="s0" d="m46.7 278.78c-17.58 0-31.88 14.6-31.88 32.54 0 17.94 14.3 32.43 31.88 32.43 17.58 0 31.88-14.55 31.88-32.43 0-17.88-14.3-32.54-31.88-32.54zm-0.1 56.06c-12.35 0-22.02-10.33-22.02-23.53 0-13.2 9.67-23.62 22.02-23.62 12.35 0 22.31 10.37 22.31 23.62 0 13.25-9.8 23.53-22.31 23.53z"/>
		<path class="s0" d="m153.51 342.63h11.33l-16.61-23.67 1.43-0.19c9.84-1.31 15.15-10.8 15.15-19.06 0-9.14-5.14-19.81-19.62-19.81h-24.39v62.73h9.67v-23.49h7.14c0 0 15.91 23.49 15.9 23.49zm-23.05-54.28h13.88c6.35 0 10.79 4.75 10.79 11.55 0 7.22-4.48 11.36-12.29 11.36h-12.38z"/>
		<path fill-rule="evenodd" class="s0" d="m246.81 279.9h-46.54v8.45h18.44v54.28h9.67v-54.28h18.43v-8.45z"/>
		<path fill-rule="evenodd" class="s0" d="m334.62 342.63v-62.73h-9.67v27.33h-28.51v-27.33h-9.66v62.73h9.66v-26.95h28.51v26.95h9.67z"/>
		<path class="s0" d="m408.71 278.78c-17.58 0-31.88 14.6-31.88 32.54 0 17.94 14.3 32.43 31.88 32.43 17.58 0 31.88-14.55 31.88-32.43 0-17.88-14.3-32.54-31.88-32.54zm-0.09 56.06c-12.35 0-22.02-10.33-22.02-23.53 0-13.2 9.67-23.62 22.02-23.62 12.35 0 22.3 10.37 22.3 23.62 0 13.25-9.8 23.53-22.3 23.53z"/>
		<path class="s0" d="m507.2 279.9h-24.39v62.73h24.39c16.94 0 28.32-12.55 28.32-31.22 0-18.67-11.38-31.51-28.32-31.51zm0 54.29h-14.72v-45.84h14.72c11.28 0 18.56 9.05 18.56 23.06 0 14.01-7.29 22.78-18.56 22.78z"/>
		<path class="s0" d="m605.86 278.78c-17.58 0-31.88 14.6-31.88 32.54 0 17.94 14.3 32.43 31.88 32.43 17.58 0 31.88-14.55 31.88-32.43 0-17.88-14.3-32.54-31.88-32.54zm-0.09 56.06c-12.35 0-22.02-10.33-22.02-23.53 0-13.2 9.67-23.62 22.02-23.62 12.35 0 22.31 10.37 22.31 23.62 0 13.25-9.8 23.53-22.31 23.53z"/>
		<path fill-rule="evenodd" class="s0" d="m725.75 342.63v-62.73h-9.67v45.39l-26.74-45.39h-9.38v62.73h9.67v-45.74l27.1 45.74h9.02z"/>
		<path fill-rule="evenodd" class="s0" d="m812.25 279.9h-46.53v8.45h18.43v54.28h9.67v-54.28h18.43v-8.45z"/>
		<path fill-rule="evenodd" class="s0" d="m852.21 279.9h9.67v62.73h-9.67z"/>
		<path fill-rule="evenodd" class="s0" d="m942.48 316.15v-8.64h-24.71v-19.16h28.26v-8.45h-37.83v62.73h38.76v-8.44h-29.19v-18.04h24.71z"/>
	</g>
</svg>