<?xml version="1.0" encoding="UTF-8"?>
<svg id="Artwork" xmlns="http://www.w3.org/2000/svg" viewBox="0 0 779.13 779.13">
  <defs>
    <style>
      .cls-1 {
        fill: #1d1d1b;
      }
    </style>
  </defs>
  <path class="cls-1" d="M426.2,498.27c1.31-2.79,2.52-5.69,3.56-8.58-33.82,12.46-72.63,7.82-106.29-2.52-43.69-13.5-81.85-45-113.79-76.82-.71-.71-1.42-1.42-2.08-2.13-.11-.05-.16-.11-.22-.22,0,0-.16-.17-.21-.21-2.51-2.51-3.96-4.57-7.19-5.7-18.26,70.14,30.67,171.07,110.4,171.07,28.3,0,54.4-9.24,75.47-24.87,17.4-12.85,31.42-30.07,40.34-50.02Z"/>
  <path class="cls-1" d="M362.52,456.48c6.87-.61,13.77-1.48,20.65-1.71-6.73-4.61-13.21-10.53-17.76-17.34-5.84-8.74-12.98-16.28-17.77-25.88-5.23-10.49-8.76-21.79-11.43-33.17-4.98-21.32-7.18-43.54-6.78-65.43.1-5.51.3-10.91.51-16.23.82-21.73,1.6-42.26-4.68-64.96-11.3-40.86-41.88-82.07-85.87-87.25v-.54h-30.65c-9.83,0-17.82,8.01-17.82,17.78l-1.34,123.15c0,1.25.01,2.49.04,3.73,1.02,47.64,22.27,93.42,57.82,125.16,17.45,15.58,38.03,27.59,60.22,35.03,11.39,3.82,23.18,6.44,35.12,7.81,6.54.75,13.14.42,19.76-.16Z"/>
  <path class="cls-1" d="M587.97,164.02c0-11.05-8.98-20.05-20-20.05h-97.08c-11.05,0-20.06,8.98-20.07,19.99l-2.12,278.13c-.49,28.7-2.87,59.46-16.84,89.91-.72,1.58-1.48,3.14-2.24,4.68-4.91,9.82-11.06,19.78-18.27,29.56-5.02,6.81-10.56,12.96-16.42,19.49-2.1,2.34-4.22,4.68-6.29,7.06-11.68,13.29-27,27.54-43.37,34.67,1.72-.75,10.58,3.44,12.77,3.98,4.91,1.22,9.9,2.1,14.92,2.65,8.07.88,16.41,1.27,24.44,1.74,17.64,1.03,37.58-3.73,54.13-9.45,27.34-9.47,52.95-25.05,74.04-45.05,40.67-38.56,63.99-92.79,63.99-148.83l-1.6-268.48Z"/>
</svg>