<?xml version="1.0" encoding="UTF-8"?>
<svg id="Artwork" xmlns="http://www.w3.org/2000/svg" viewBox="0 0 1265 720">
  <defs>
    <style>
      .cls-1 {
        fill: #1d1d1b;
      }
    </style>
  </defs>
  <g>
    <path class="cls-1" d="M396.36,343.84h-.03c-.05-.16-.08-.32-.11-.48.08.16.11.32.13.48Z"/>
    <path class="cls-1" d="M810.32,260.12h16.97c2.21,0,4,1.79,4,4v129.22c0,2.21-1.79,4-4,4h-16.97c-2.21,0-4-1.79-4-4v-129.22c0-2.21,1.79-4,4-4Z"/>
    <path class="cls-1" d="M810.77,199.46h16.06c2.3,0,4.17,1.87,4.17,4.17v16.06c0,2.3-1.87,4.17-4.17,4.17h-16.06c-2.3,0-4.17-1.87-4.17-4.17v-16.06c0-2.3,1.87-4.17,4.17-4.17Z"/>
    <path class="cls-1" d="M959.85,302.71c-8.33,30.63-1.42,56.26,20.56,76.2,21.93,19.91,61.62,24.34,90.35,10.05,12.14-6.04,21.27-14.27,27.89-25.16l.09-.21c.39-1.06-.09-2.26-1.12-2.81l-5.14-2.62c-3.05-1.17-6.37-2.43-9.72-3.62-3.01-1.07-3.81-1.2-5.01-.21l-.54.52c-15.43,18.76-36.61,24.57-62.88,17.28-17.31-4.81-30.56-23.84-29.54-42.43l.14-2.6h119.14c.78-13.62-1.67-25.81-7.46-37.19-12.22-24.08-36.74-38.06-64.95-38.06-5.31,0-10.74.49-16.25,1.51-29.01,5.35-48.22,22.42-55.55,49.36ZM986.57,306.46c4.5-19.62,22.67-33.28,44.23-33.28h.22c21.87.11,39.64,13.49,44.2,33.28l.78,3.37h-90.21l.77-3.37Z"/>
    <path class="cls-1" d="M535.01,394.65c0,.25.04.49.1.68l.14.44c.24.53.65.97,1.15,1.22.43.23.87.35,1.29.35h20.21c.42,0,.85-.11,1.23-.31.74-.39,1.25-1.04,1.41-1.77l.06-18.39-.11-48.26c.02-8.8.97-21.78,8.89-32.93,8.99-12.67,22.44-17.88,39.98-15.57,14.27,1.91,24.2,10.92,27.96,25.37,1.54,5.9,2.3,12.54,2.4,20.91l.02,2.46-.16.86v64.95c0,.24.04.49.1.68l.14.44c.24.53.65.96,1.15,1.22.44.23.88.35,1.29.35h20.21c.42,0,.86-.11,1.24-.32.73-.37,1.24-1.03,1.4-1.76l.68-78.89c.55-18.98,10.87-31.56,29.09-35.47,13.96-2.99,25.91-1.19,34.59,5.2,8.29,6.1,13.11,15.87,14.32,29.04.43,4.67.46,9.38.46,13.44l-.08,66.09c0,.24.04.49.1.68l.14.44c.24.53.64.97,1.15,1.22.43.23.87.35,1.29.35h20.21c.42,0,.85-.11,1.23-.31.74-.38,1.25-1.04,1.41-1.77l-.07-66.73-.97-22.06c-1.98-30.78-23.45-50.31-53.94-49.48-18.31.43-33.48,9.58-46.38,27.95-.89,1.25-1.81,2.45-2.86,3.83l-4.96,6.57-1.48-5.28c-5.03-17.96-20.31-30.55-39.89-32.86-10.83-1.28-22.06,1.09-31.53,6.49-10.56,6.02-23.65,16.11-27.5,28.12l-.27-29.84c-.01-1.23-1.01-2.22-2.23-2.22l-20.38-.05c-1.24,0-2.25,1-2.25,2.24v132.72Z"/>
    <path class="cls-1" d="M887.57,199.46c-2.98,0-5.4,2.42-5.4,5.4v16.36c0,46.17-.02,92.34.03,138.52,0,3.5.25,7.26.79,12.2,1.28,11.59,8.97,20.66,19.6,23.1,6.58,1.5,13.67,1.88,20.38,2.12l1.18.17h18.84c1.49,0,2.7-1.21,2.7-2.7v-16.52c0-1.48-1.21-2.69-2.7-2.69l-24.5.15c-2.71,0-6.12-.19-8.41-2.47-2.29-2.27-2.56-5.61-2.53-8.58.2-19.47.17-38.95.14-58.42l-.04-41.38c-.02-18.2-.04-40.85.07-59.84.02-2.99-2.4-5.42-5.4-5.42h-14.74Z"/>
    <path class="cls-1" d="M384.13,354.96c2.82,17.45,11.37,29.15,25.4,34.77,25.46,10.19,52,10.14,78.89-.17,12.96-4.98,20.2-15.14,20.93-29.37.71-13.7-4.84-23.79-16.49-29.98-7.32-3.92-15.57-7.36-25.96-10.81-6.77-2.25-13.63-4.21-20.5-6.18-6.69-1.91-13.38-3.83-20-6.01-8.64-2.83-13.11-9.01-12.24-16.97,1.69-16.01,25.79-18.62,39.79-17.6,3.85.28,7.53,1.02,10.94,2.2,3.55,1.24,6.78,2.94,9.58,5.08,2.94,2.22,5.41,4.93,7.34,8.04,1,1.61,1.86,3.33,2.56,5.13.68,1.74,1.27,3.53,1.69,5.35.13.56.5.99,1.1,1.28.55.28,1.14.3,1.75.15l17.52-5.42c1.55-.47,1.6-.97,1.63-1.38.1-.61-.04-1.43-.14-2.03l-.12-.76c-.16-1.07-.36-2.12-.63-3.17-.89-3.52-2.3-6.94-4.19-10.19-1.91-3.26-4.2-6.19-6.84-8.7-2.72-2.6-5.7-4.67-8.87-6.16-18.84-8.85-59.03-13.67-82.37.77-10.37,6.41-15.9,15.87-16.43,28.11-.57,13.26,5.39,23.55,17.24,29.76,8.39,4.4,17.75,7.52,26.8,10.53l3.03,1.01c5.26,1.77,10.58,3.3,15.9,4.83,6.65,1.91,13.54,3.9,20.19,6.33,8.52,3.12,12.88,9.41,11.95,17.26-.93,7.83-6.24,13.01-14.95,14.58-8.53,1.54-16.77,2.28-24.39,2.17-21.16-.31-33.01-9.23-37.28-28.07l-.15-.76c-.08-.23-.44-.72-.94-1.05-.41-.28-.86-.41-1.33-.41-.14,0-.28.01-.42.04l-17.73,3.1c-2.31.4-2.35,1.02-2.42,1.82l.03.19-.05,1.08c.05.63.09,1.08.17,1.61Z"/>
    <g>
      <path class="cls-1" d="M256.37,342.23c.53-1.12,1.01-2.29,1.43-3.46-13.62,5.02-29.23,3.15-42.78-1.01-17.58-5.44-32.95-18.13-45.8-30.96-.29-.28-.57-.57-.84-.86-.04-.02-.07-.04-.09-.09,0,0-.07-.07-.08-.08-1.01-1.01-1.59-1.84-2.89-2.3-7.35,28.26,12.35,68.94,44.44,68.94,11.39,0,21.9-3.72,30.38-10.02,7.01-5.18,12.65-12.12,16.24-20.16Z"/>
      <path class="cls-1" d="M230.74,325.39c2.77-.24,5.54-.6,8.31-.69-2.71-1.86-5.32-4.24-7.15-6.99-2.35-3.52-5.23-6.56-7.15-10.43-2.1-4.23-3.53-8.78-4.6-13.37-2.01-8.59-2.89-17.55-2.73-26.37.04-2.22.12-4.4.2-6.54.33-8.76.64-17.03-1.89-26.18-4.55-16.47-16.86-33.07-34.56-35.16v-.22h-12.34c-3.96,0-7.17,3.23-7.17,7.17l-.54,49.63c0,.5,0,1,.02,1.51.41,19.2,8.96,37.65,23.27,50.44,7.02,6.28,15.31,11.12,24.24,14.12,4.58,1.54,9.33,2.6,14.13,3.15,2.63.3,5.29.17,7.96-.07Z"/>
      <path class="cls-1" d="M321.49,207.54c0-4.45-3.61-8.08-8.05-8.08h-39.08c-4.45,0-8.08,3.62-8.08,8.05l-.85,112.08c-.2,11.57-1.16,23.96-6.78,36.23-.29.64-.59,1.27-.9,1.89-1.98,3.96-4.45,7.97-7.35,11.91-2.02,2.74-4.25,5.22-6.61,7.85-.85.94-1.7,1.89-2.53,2.84-4.7,5.36-10.87,11.1-17.46,13.97.69-.3,4.26,1.39,5.14,1.6,1.98.49,3.98.85,6.01,1.07,3.25.36,6.6.51,9.84.7,7.1.42,15.13-1.5,21.79-3.81,11.01-3.82,21.31-10.09,29.81-18.15,16.37-15.54,25.76-37.39,25.76-59.97l-.64-108.19Z"/>
    </g>
    <path class="cls-1" d="M340.97,372.31h13.57c3.15,0,5.7,2.55,5.7,5.7v13.56c0,3.15-2.56,5.7-5.7,5.7h-13.56c-3.15,0-5.7-2.56-5.7-5.7v-13.56c0-3.15,2.55-5.7,5.7-5.7Z"/>
  </g>
  <g>
    <path class="cls-1" d="M202.7,468.78c-17.58,0-31.88,14.6-31.88,32.54s14.3,32.43,31.88,32.43,31.88-14.55,31.88-32.43-14.3-32.54-31.88-32.54ZM202.6,524.84c-12.35,0-22.02-10.33-22.02-23.53s9.67-23.62,22.02-23.62,22.31,10.37,22.31,23.62-9.8,23.53-22.31,23.53Z"/>
    <path class="cls-1" d="M309.51,532.63h11.33l-16.61-23.67,1.43-.19c9.84-1.31,15.15-10.8,15.15-19.06,0-9.14-5.14-19.81-19.62-19.81h-24.39v62.73h9.67v-23.49h7.14l15.91,23.49ZM286.46,478.35h13.88c6.35,0,10.79,4.75,10.79,11.55,0,7.22-4.48,11.36-12.29,11.36h-12.38v-22.91Z"/>
    <polygon class="cls-1" points="402.81 469.9 356.27 469.9 356.27 478.35 374.71 478.35 374.71 532.63 384.38 532.63 384.38 478.35 402.81 478.35 402.81 469.9"/>
    <polygon class="cls-1" points="490.62 532.63 490.62 469.9 480.95 469.9 480.95 497.23 452.44 497.23 452.44 469.9 442.78 469.9 442.78 532.63 452.44 532.63 452.44 505.68 480.95 505.68 480.95 532.63 490.62 532.63"/>
    <path class="cls-1" d="M564.71,468.78c-17.58,0-31.88,14.6-31.88,32.54s14.3,32.43,31.88,32.43,31.88-14.55,31.88-32.43-14.3-32.54-31.88-32.54ZM564.62,524.84c-12.35,0-22.02-10.33-22.02-23.53s9.67-23.62,22.02-23.62,22.3,10.37,22.3,23.62-9.8,23.53-22.3,23.53Z"/>
    <path class="cls-1" d="M663.2,469.9h-24.39v62.73h24.39c16.94,0,28.32-12.55,28.32-31.22s-11.38-31.51-28.32-31.51ZM663.2,524.19h-14.72v-45.84h14.72c11.28,0,18.56,9.05,18.56,23.06s-7.29,22.78-18.56,22.78Z"/>
    <path class="cls-1" d="M761.86,468.78c-17.58,0-31.88,14.6-31.88,32.54s14.3,32.43,31.88,32.43,31.88-14.55,31.88-32.43-14.3-32.54-31.88-32.54ZM761.77,524.84c-12.35,0-22.02-10.33-22.02-23.53s9.67-23.62,22.02-23.62,22.31,10.37,22.31,23.62-9.8,23.53-22.31,23.53Z"/>
    <polygon class="cls-1" points="881.75 532.63 881.75 469.9 872.08 469.9 872.08 515.29 845.34 469.9 835.96 469.9 835.96 532.63 845.63 532.63 845.63 486.89 872.73 532.63 881.75 532.63"/>
    <polygon class="cls-1" points="968.25 469.9 921.72 469.9 921.72 478.35 940.15 478.35 940.15 532.63 949.82 532.63 949.82 478.35 968.25 478.35 968.25 469.9"/>
    <rect class="cls-1" x="1008.21" y="469.9" width="9.67" height="62.73"/>
    <polygon class="cls-1" points="1098.48 506.15 1098.48 497.51 1073.77 497.51 1073.77 478.35 1102.03 478.35 1102.03 469.9 1064.2 469.9 1064.2 532.63 1102.96 532.63 1102.96 524.19 1073.77 524.19 1073.77 506.15 1098.48 506.15"/>
  </g>
</svg>