<?xml version="1.0" encoding="UTF-8"?>
<svg id="Artwork" xmlns="http://www.w3.org/2000/svg" viewBox="0 0 1470 700">
  <defs>
    <style>
      .cls-1 {
        fill: #1d1d1b;
      }
    </style>
  </defs>
  <path class="cls-1" d="M482.8,330.11h-.03c-.06-.17-.09-.34-.11-.52.09.18.11.35.14.52"/>
  <path class="cls-1" d="M940.01,239.54h-12.06c-4.02,0-7.3,3.32-7.3,7.41v133.62c0,4.08,3.28,7.41,7.3,7.41h12.06c4.02,0,7.3-3.33,7.3-7.41v-133.62c0-4.08-3.28-7.41-7.3-7.41"/>
  <path class="cls-1" d="M940.01,174.78h-12.06c-4.56,0-8.27,3.75-8.27,8.37v12.22c0,4.61,3.71,8.37,8.27,8.37h12.06c4.56,0,8.27-3.76,8.27-8.37v-12.22c0-4.62-3.71-8.37-8.27-8.37"/>
  <path class="cls-1" d="M1113.16,289.68c4.81-21.22,24.21-36,47.24-36h.24c23.35.12,42.33,14.59,47.21,36l.83,3.64h-96.35l.83-3.64ZM1084.62,285.61c-8.9,33.13-1.51,60.86,21.96,82.42,23.42,21.54,65.81,26.33,96.5,10.87,12.97-6.54,22.72-15.44,29.8-27.21l.09-.23c.41-1.15-.1-2.45-1.2-3.04l-5.49-2.84c-3.26-1.27-6.81-2.63-10.38-3.91-3.22-1.16-4.07-1.3-5.35-.23l-.58.56c-16.48,20.29-39.1,26.58-67.16,18.69-18.49-5.21-32.64-25.79-31.55-45.9l.15-2.81h127.25c.83-14.73-1.78-27.91-7.97-40.23-13.05-26.05-39.24-41.17-69.37-41.17-5.67,0-11.47.54-17.36,1.63-30.99,5.79-51.5,24.25-59.33,53.4"/>
  <path class="cls-1" d="M657.39,242.13c.05-1.86-.34-2.4-.46-2.53-.31-.33-1.27-.51-2.4-.48l-2.06.06c-5.43.14-11.03.28-16.58-.11-2.75-.19-3.79.17-4.17.54-.33.31-.87,1.29-.85,4.36v141.1c0,.26.04.53.1.73l.15.47c.26.57.69,1.05,1.23,1.33.46.25.93.37,1.38.37h21.58c.45,0,.91-.12,1.31-.34.79-.42,1.33-1.12,1.51-1.92l.07-19.89-.11-52.21c.02-9.52,1.03-23.56,9.49-35.62,9.61-13.71,23.97-19.35,42.71-16.84,15.25,2.07,25.85,11.82,29.87,27.44,1.64,6.38,2.46,13.57,2.56,22.62l.02,2.67-.17.93v70.26c0,.25.04.53.11.73l.15.47c.26.57.68,1.04,1.22,1.33.47.25.94.37,1.38.37h21.58c.45,0,.91-.12,1.32-.34.78-.41,1.32-1.11,1.5-1.91l.73-85.34c.59-20.54,11.62-34.14,31.07-38.37,14.91-3.24,27.68-1.28,36.95,5.62,8.85,6.6,14,17.17,15.3,31.42.46,5.05.49,10.15.49,14.54l-.09,71.49c0,.25.04.53.1.73l.15.47c.26.57.69,1.05,1.23,1.33.47.25.93.37,1.38.37h21.58c.44,0,.91-.12,1.31-.34.79-.41,1.33-1.12,1.51-1.92l-.07-72.19-1.04-23.86c-2.11-33.29-25.05-54.42-57.61-53.53-19.55.47-35.76,10.37-49.53,30.25-.95,1.35-1.93,2.65-3.05,4.13l-5.29,7.11-1.58-5.71c-5.37-19.43-21.69-33.05-42.6-35.55-11.57-1.38-23.56,1.18-33.67,7.02-11.27,6.51-25.26,17.42-29.37,30.42l-.33-31.68Z"/>
  <path class="cls-1" d="M1007.42,173.92c-3.18,0-5.77,2.62-5.77,5.84v17.7c-.01,49.95-.02,99.88.03,149.84,0,3.78.27,7.86.84,13.19,1.37,12.54,9.58,22.34,20.94,24.99,7.03,1.63,14.6,2.04,21.76,2.3l1.26.19h20.12c1.59,0,2.88-1.31,2.88-2.92v-17.87c0-1.6-1.29-2.91-2.88-2.91l-26.17.16c-2.89,0-6.54-.2-8.99-2.67-2.44-2.45-2.74-6.07-2.7-9.29.22-21.06.19-42.13.15-63.19l-.05-44.77c-.02-19.68-.04-44.19.07-64.73.02-3.24-2.57-5.86-5.77-5.86h-15.74Z"/>
  <path class="cls-1" d="M469.73,342.13c3.01,18.88,12.14,31.53,27.13,37.61,27.2,11.03,55.54,10.96,84.26-.19,13.84-5.38,21.57-16.37,22.36-31.77.76-14.82-5.17-25.73-17.62-32.43-7.82-4.25-16.63-7.95-27.73-11.7-7.23-2.43-14.56-4.55-21.89-6.68-7.15-2.07-14.29-4.15-21.36-6.5-9.23-3.06-14-9.75-13.07-18.36,1.8-17.32,27.55-20.14,42.49-19.04,4.11.3,8.04,1.1,11.68,2.37,3.8,1.34,7.24,3.19,10.23,5.49,3.13,2.41,5.78,5.34,7.84,8.7,1.07,1.74,1.99,3.6,2.74,5.54.72,1.88,1.35,3.82,1.8,5.79.14.6.54,1.07,1.18,1.39.59.31,1.22.33,1.87.16l18.72-5.87c1.66-.51,1.71-1.05,1.74-1.49.1-.66-.04-1.54-.15-2.19l-.13-.81c-.17-1.16-.38-2.3-.67-3.43-.95-3.81-2.46-7.51-4.47-11.02-2.04-3.53-4.5-6.69-7.31-9.41-2.91-2.82-6.09-5.06-9.47-6.66-20.13-9.58-63.05-14.78-87.98.83-11.08,6.94-16.98,17.17-17.54,30.41-.6,14.34,5.76,25.47,18.42,32.2,8.96,4.76,18.95,8.13,28.62,11.39l3.24,1.09c5.61,1.91,11.3,3.57,16.98,5.22,7.11,2.07,14.46,4.22,21.57,6.85,9.1,3.37,13.76,10.18,12.76,18.67-.98,8.46-6.66,14.07-15.97,15.77-9.11,1.67-17.92,2.47-26.05,2.35-22.61-.34-35.26-9.99-39.82-30.36l-.16-.81c-.08-.26-.47-.78-1.01-1.14-.44-.3-.91-.44-1.41-.44-.15,0-.3.01-.45.04l-18.94,3.35c-2.46.43-2.51,1.11-2.58,1.97l.03.21-.05,1.17c.05.68.09,1.17.19,1.74"/>
  <path class="cls-1" d="M333.34,328.12c.57-1.22,1.09-2.48,1.54-3.75-14.6,5.45-31.35,3.43-45.88-1.1-18.86-5.9-35.33-19.69-49.12-33.62-.31-.31-.61-.62-.9-.93-.05-.02-.07-.05-.1-.09,0,0-.07-.07-.09-.09-1.08-1.1-1.71-2-3.1-2.5-7.88,30.7,13.24,74.87,47.66,74.87,12.21,0,23.48-4.04,32.58-10.89,7.51-5.62,13.56-13.16,17.41-21.89"/>
  <path class="cls-1" d="M305.85,309.83c2.97-.27,5.94-.65,8.91-.75-2.9-2.01-5.7-4.61-7.66-7.59-2.52-3.82-5.6-7.12-7.67-11.33-2.25-4.59-3.78-9.53-4.93-14.51-2.15-9.33-3.1-19.06-2.93-28.64.04-2.41.13-4.77.22-7.1.36-9.51.69-18.5-2.02-28.43-4.88-17.88-18.08-35.92-37.06-38.19v-.24h-13.23c-4.24,0-7.7,3.51-7.7,7.79l-.57,53.9c0,.54,0,1.09.02,1.64.44,20.85,9.61,40.89,24.95,54.78,7.53,6.82,16.42,12.07,26,15.33,4.91,1.67,10,2.82,15.16,3.42,2.83.33,5.67.19,8.53-.07"/>
  <path class="cls-1" d="M403.17,181.83c0-4.84-3.87-8.78-8.63-8.78h-41.9c-4.77,0-8.66,3.94-8.66,8.75l-.91,121.73c-.21,12.56-1.24,26.02-7.27,39.35-.31.69-.64,1.38-.97,2.05-2.12,4.3-4.77,8.66-7.88,12.94-2.17,2.98-4.56,5.67-7.09,8.53-.91,1.02-1.82,2.05-2.72,3.09-5.04,5.82-11.66,12.06-18.72,15.17.74-.33,4.56,1.51,5.51,1.75,2.12.53,4.27.92,6.44,1.16,3.48.39,7.08.56,10.55.77,7.62.45,16.23-1.63,23.37-4.14,11.8-4.15,22.86-10.96,31.96-19.72,17.56-16.88,27.62-40.61,27.62-65.13l-.69-117.51Z"/>
  <path class="cls-1" d="M436.91,360.9h-12.06c-4.02,0-7.3,3.31-7.3,7.39v12.22c0,4.08,3.28,7.39,7.3,7.39h12.06c4.02,0,7.3-3.31,7.3-7.39v-12.22c0-4.08-3.28-7.39-7.3-7.39"/>
  <path class="cls-1" d="M890.8,481.77c-1.07,1.71-1.6,2.57-2.67,4.28-2.91,3.75-4.37,5.63-7.28,9.38l-5.58,4.67c-2.81,1.61-4.22,2.41-7.04,4.01-3.01,1.23-4.51,1.84-7.52,3.05-2.71.72-4.08,1.08-6.79,1.8-.78-.25-1.17-.38-1.95-.63-1.26.45-1.89.67-3.15,1.12-1.84-.2-2.77-.3-4.61-.5-2.24.5-3.35.74-5.58,1.23-.49-.37-.73-.55-1.21-.92-.39.21-.58.32-.97.53-1.55-.21-2.33-.33-3.88-.55-2.33.1-3.5.15-5.83.26-1.46-1.3-2.18-1.95-3.64-3.25-2.43-.39-3.64-.57-6.07-.97-.49-.66-.73-.99-1.21-1.66-.78.23-1.16.34-1.94.57-2.14-1.86-3.21-2.79-5.34-4.65-2.04-.51-3.06-.77-5.1-1.28-1.07-1.23-1.6-1.84-2.66-3.06-3.21.11-4.81.17-8.02.27-.67-1.24-1.01-1.87-1.69-3.1-.97.03-1.45.04-2.42.07-.58-.95-.88-1.44-1.46-2.39-1.55-.54-2.33-.81-3.88-1.35-.2.2-.29.3-.49.5-1.84-1.89-2.77-2.84-4.61-4.73-1.65-1.12-2.48-1.68-4.12-2.81-1.75-1.7-2.62-2.56-4.37-4.27-1.84-1.12-2.77-1.68-4.61-2.81-1.94-1.41-4.93-3.31-8.98-5.67-.81-1.77-1.54-2.64-2.18-2.63-1.46-.08-2.19-.11-3.65-.2-.39-.38-.58-.57-.97-.95-1.36.31-2.04.46-3.4.77.39,2.81.58,4.21.97,7.02-.59.1-.88.16-1.46.26.29.97.44,1.45.74,2.42-.78,3.7-1.17,5.55-1.95,9.25.65,1.13,1.21,3.05,1.7,5.79-.58,1.08-.87,1.62-1.46,2.7-.1,1.17-.15,1.75-.25,2.92-.09,2.14-.14,3.2-.23,5.34-.68,1.65-1.02,2.48-1.7,4.14-.29,2.04-.44,3.07-.73,5.1-1.36,2.64-2.04,3.96-3.4,6.59-2.52,3.8-3.78,5.7-6.3,9.5-5.67.02-8.82-2.24-9.46-6.78.68-2.32,1.02-3.49,1.7-5.81.39-1.75.58-2.63.97-4.38.1-.29.15-.43.25-.72.19-.49.29-.73.48-1.21-.16-.32-.45-.93-.84-1.81-.41-.89-.61-1.66-.61-2.31,0-.96.32-2.01.98-3.15-.39-.49-.59-.72-.98-1.21,1.46-1.86,2.18-2.77,3.64-4.62-.58-1.55-.87-2.32-1.45-3.87v-2.43c-.49-1.62-.73-3-.73-4.13,0-.8.32-2.19.97-4.12l.49-1.46c-.33-3.88-.49-6.38-.49-7.52-.65-1.13-.97-2.83-.97-5.1.29-.38.44-.58.73-.96-.58-1.65-.88-2.48-1.46-4.12.58-.88.88-1.32,1.46-2.2v-6.79c-.49-3.01-.73-4.52-1.21-7.52.78-.68,1.16-1.03,1.94-1.71-.49-.81-.73-2.1-.73-3.88v-3.89h-.35c-.35-5.92-.52-8.87-.86-14.79.32-.97,1.12-2.19,2.43-3.64,0-1.14.08-2.11.24-2.91.2-.58.29-.88.49-1.47.1-.58.14-.87.24-1.45-1.45-2.91-2.18-5.57-2.18-8,0-3.4,1.06-6.96,3.18-10.69,3.75-.99,6.21-1.5,7.36-1.51,2.12-.01,4.66.69,7.59,2.12,2.25,2.59,3.38,3.89,5.64,6.48-.39,2.14-.58,3.21-.97,5.36.97,1.05,1.46,1.57,2.43,2.63-.58,1.26-.88,1.91-1.46,3.17.39,1.26.58,1.89.97,3.15-1.16,1.96-1.74,2.94-2.91,4.89.49,2.71.73,4.06,1.21,6.78-.78,2.34-1.16,3.51-1.94,5.85.29,3.2.44,4.8.73,7.99-.49.69-.73,1.03-1.21,1.72,1.17,1.73,1.75,2.6,2.91,4.32.68-.01,1.02-.02,1.7-.02,1.75.46,2.62.68,4.37,1.14.78-.5,1.16-.75,1.94-1.24.78.38,1.17.56,1.95.94.68-.5,1.02-.74,1.7-1.24,2.33.35,3.48.52,5.81.86.87-.61,1.31-.91,2.19-1.51,2.71-.93,4.07-1.39,6.79-2.33v-.74c2.14-.06,3.2-.09,5.34-.14,1.78-1.66,3.97-2.77,6.55-3.34-.16-.15-.24-.31-.24-.48,0-.8,2.26-1.51,6.79-2.15,2.43-1.04,3.64-1.57,6.07-2.63.87-1.39,1.31-2.08,2.19-3.48.96-.51,2.18-1.04,3.64-1.58.2-1.17.29-1.76.49-2.93.87-.03,1.31-.04,2.18-.08v-.97c1.65-.36,2.48-.53,4.12-.88.97-1.79,1.46-2.68,2.43-4.46.97-.04,1.46-.06,2.43-.1.49-2.93,2.35-5.02,5.59-6.29.58-.81.87-1.2,1.45-2v-2.68c1.74-.26,2.62-.41,4.37-.67.97-2.95,2.52-5.2,4.61-6.76.64-1.32,1.05-2.3,1.21-2.96,1.26-1.7,1.89-2.56,3.15-4.27.97-.91,1.45-1.38,2.42-2.3.49-5.2,3.65-7.93,9.47-8.22.33-.01,2.18,2.24,5.59,6.76-.87,2.48-1.31,3.71-2.18,6.19.48.16.73.26,1.21.43-.2.59-.29.88-.49,1.47.1.67.15,1.01.25,1.69-.33.19-.97.7-1.95,1.56-.29,1.67-.44,2.5-.73,4.16-1.07.44-1.6.66-2.66,1.1-.78,2.27-1.17,3.41-1.96,5.68-1.26,1.52-1.88,2.27-3.15,3.79-1.45,3.14-3.4,5.17-5.82,6.09.16.16.25.48.25.97,0,.8-.57,2.37-1.7,4.69-2.33.6-3.5.88-5.82,1.47-.65,1-1.62,1.93-2.91,2.79v1.46c-1.94.76-2.9,1.14-4.84,1.9-1.94,2.03-2.91,3.04-4.85,5.06-2.82,1.57-4.22,2.35-7.04,3.92-2.04,1.54-3.05,2.3-5.09,3.82-1.94.47-2.91.69-4.85,1.15-1.55.93-2.33,1.39-3.88,2.32-2.53.57-3.79.85-6.31,1.42-2.33,1.43-3.49,2.15-5.82,3.58-2.81,1.44-4.22,2.16-7.04,3.59-.96.33-1.44.5-2.4.83,1.94,1.08,3.8,2.64,5.57,4.7,2.04,1.59,3.06,2.39,5.09,3.97,3.2,1.75,4.8,2.61,8.01,4.35.29.77.44,1.15.72,1.92,2.04.42,3.06.63,5.1,1.04,2.52,1.46,3.78,2.19,6.3,3.64,3.01,1.44,4.51,2.15,7.52,3.58,1.65,1.29,2.48,1.94,4.12,3.22,1.75.42,2.62.63,4.37,1.04,2.62,1.74,3.93,2.6,6.55,4.32,3.29.82,4.95,1.23,8.24,2.05,2.43.18,3.64.27,6.07.44,4.56-.8,6.84-1.2,11.41-2.02,1.75-.08,2.62-.13,4.37-.21.39-.22.58-.32.97-.53,1.46-1.54,3.6-2.04,4.84-2.44.69-.22,1.78-1.07,2.91-1.61v-.48c1.65-1.94,2.48-2.9,4.12-4.84.68-.53,1.02-.78,1.7-1.31.1-.69.14-1.03.24-1.71,2.11-1.24,4.13-2.24,6.08-2.99-.29.11-.44.16-.74.28,2.43-.62,3.65-.93,6.08-1.55,1.46.7,2.18,1.04,3.64,1.74.39,2.21.58,3.32.97,5.53"/>
  <path class="cls-1" d="M933.26,341.16c0,1.94-1.29,3.79-3.87,5.55v.49c-3.08,3.9-5.76,6.15-8.02,6.76-1.46,1.83-2.19,2.74-3.65,4.57-.97,1.32-1.46,1.98-2.44,3.3-2.23.69-3.35,1.03-5.59,1.72-.96,1.44-1.44,2.15-2.41,3.59-1.55.88-2.33,1.32-3.88,2.2-2.52,2.42-3.77,3.62-6.29,6.03-1.55-1.37-2.33-2.05-3.88-3.41.29-2.44.44-3.67.73-6.11,1.07-1.8,1.61-2.71,2.68-4.51.16-2.28,1.45-4.29,3.88-6.05v-.97c.58-.43.88-.64,1.46-1.06.1-1.46.14-2.19.24-3.66,1.56-.48,2.33-.72,3.89-1.2v-2.18c1.17-.26,1.75-.39,2.91-.66.64-3.28,2.02-5.71,4.12-7.28.29-.21.44-.32.73-.53.58-.61.87-.92,1.45-1.53.78-2.38,1.16-3.57,1.94-5.94,10.68,1.94,16.02,5.57,16.01,10.88M958.02,468.3c.54,3-.66,6.1-1.95,7.16-.49.41-.73.62-1.21,1.04-.49,1.39-.73,2.08-1.21,3.47-1.55.59-2.33.87-3.88,1.45-1.13,2.65-2.83,4.78-5.1,6.38-.87.34-1.31.51-2.18.86-1.26,1.44-1.9,2.15-3.16,3.6-1.17.35-1.75.54-2.91.9-1.14,2.98-5.31,4-7.03,5.04-.29.18-1.06,1.51-2.19,3.05-2.43,1.77-4.93,2.88-7.52,3.37-.49.13-.73.19-1.21.31-.67.91-1.01,1.37-1.69,2.28-1.94.12-2.92.18-4.86.29-1.55,1.26-2.33,1.88-3.88,3.13-3.98-2.68-5.97-4.01-9.96-6.7-1.84-3.67-2.76-5.52-4.61-9.19-.1-4.75-.15-7.13-.25-11.88-.39-1.14-.57-1.71-.96-2.86,1.17-8.61,1.75-12.92,2.91-21.52.39-.41.58-.61.96-1.03-.49-2.4-.72-4.72-.72-6.99,0-1.46.49-4.48,1.45-9.06.49-2.26.73-3.4,1.21-5.66-.32-.95-.96-1.97-1.94-3.04.58-1.88.88-2.82,1.47-4.7.19-2.24.29-3.35.47-5.6.19-.3.29-.45.49-.76-.64-1.43-1.06-3.01-1.21-4.78.16-.34.33-.78.49-1.37.16-.58.24-1.02.24-1.35-.47-1.43-.73-2.78-.73-4.08,0-3.88,2.19-5.78,6.55-5.72,1.16-.07,1.74-.1,2.91-.17,1.94-.91,3.15-1.39,3.64-1.42,3.23-.2,5.42,1.47,6.55,4.95v.97c.64,1.9.97,3.73.97,5.52,0,1.46-.17,2.53-.49,3.19-.68,4.89-1.03,7.34-1.7,12.23.68,1.32,1.02,1.98,1.7,3.3,0,2.91-.98,5.55-2.91,7.94.39,1.14.58,1.71.97,2.84-1.26,3.77-1.9,5.65-3.16,9.42-.32,4.07-.73,7.16-1.21,9.29v6.07c-.58,1.4-.87,2.09-1.45,3.48.1.97.14,1.45.24,2.41-.19,2.24-.29,3.36-.49,5.6.19,1.74.29,2.61.49,4.35,1.46,1.08,2.18,1.62,3.64,2.71,1.16-.27,1.75-.4,2.91-.67.2-.3.29-.45.49-.75.77.05,1.16.07,1.94.12,1.26-.47,1.89-.69,3.15-1.16,1.07-1.13,1.6-1.69,2.67-2.83.39-.61.58-.91.97-1.52.67-.14,1.01-.21,1.69-.34.2-.5.29-.74.49-1.24.29-.4.43-.61.72-1.02.59.36.88.53,1.47.89.97-1.03,1.46-1.55,2.43-2.57.58.06.87.08,1.45.15.2-.69.29-1.04.49-1.72.19-.02.29-.03.49-.04.28-.8.41-1.2.69-2,.87-.44,1.31-.66,2.19-1.1,1.85-.98,2.77-1.48,4.62-2.47,3.73-2.8,7.37-4.31,10.94-4.53.39-.02.58-.04.98-.06,1.78,1.03,3.37,2.64,3.65,4.14"/>
  <path class="cls-1" d="M1042.69,422.12c-.39-.17-.58-.27-.97-.44-1.14-.59-2.14-1.57-3.04-2.99-.9-1.4-1.78-3.65-2.55-4.23-.8-.6-3-1.36-4.14-2.92-.58.03-.88.04-1.46.08-1.75-.97-2.63-1.46-4.38-2.43-2.24-.36-3.35-.54-5.59-.9-2.14.33-3.21.49-5.35.81-2.3.78-3.45,1.18-5.75,1.96-.6-.51-.9-.77-1.5-1.28-.76.33-1.15.5-1.91.84v.97c-.87.24-1.31.37-2.19.62-1.45,2.66-3.72,5.05-6.79,7.16-.77,1.69-1.16,2.54-1.94,4.23-.78.63-1.17.95-1.95,1.57-.67,1.59-1.01,2.38-1.69,3.97-.3,3.21-.44,4.82-.74,8.03-.87.83-1.31,1.24-2.18,2.07v4.35c-.77.72-1.16,1.08-1.94,1.81-.07,2.33-.1,3.5-.17,5.82-1.63,3.31-2.43,4.97-4.06,8.28-.27,1.57-.4,2.35-.67,3.92-.17,2.53-.27,3.8-.44,6.33.58,1.04.87,1.56,1.45,2.59-.58,1.1-.87,1.65-1.45,2.75.49.64.73.97,1.21,1.61-.97,1.8-1.45,2.71-2.42,4.51.49.84.74,1.27,1.24,2.11.4,1.14.6,1.71,1,2.85.57.37.85.56,1.43.93.68-.03,1.02-.04,1.7-.07.87-.83,1.31-1.24,2.17-2.07.78.05,1.16.07,1.94.12,1.64-.77,2.47-1.17,4.11-1.94.2-.6.29-.9.49-1.49,1.84-.79,2.76-1.19,4.6-1.97.2-.6.29-.9.49-1.49,1.16-.75,1.74-1.12,2.9-1.87v-.49l6.08-6.67c1.16-.55,1.74-.82,2.9-1.38.58-1.3.88-1.95,1.46-3.25,1.26-.27,1.89-.4,3.16-.67,1.56-1.84,2.33-2.75,3.89-4.6-.3-.18-.44-.27-.74-.44.67-.72,1.01-1.07,1.69-1.8.96-2.1,1.44-3.14,2.4-5.25.87-.92,1.3-1.39,2.17-2.31.48-2.17.72-3.25,1.2-5.42,1.54-.57,2.31-.85,3.84-1.42,1.09-1.59,1.64-2.39,2.73-3.98.41-.31.61-.47,1.02-.78v-4.37c1.46-.76,2.18-1.14,3.64-1.9,2.04-3.79,3.06-5.68,5.09-9.47M1078.85,479.59c-1.16,4.12-1.75,6.19-2.91,10.32-.78,1.2-1.17,1.8-1.95,3-2.59,4-5.09,6.04-7.52,6.16-1.94.09-4.53-1.16-7.76-3.74-1.94-2.72-2.91-4.08-4.85-6.8-.87-1.71-1.31-2.56-2.19-4.27-.38-1.73-.58-2.59-.96-4.31-.87-2.87-1.31-4.3-2.18-7.17v-10.68c-.29-3.67-.44-5.51-.73-9.18.29-2.06.44-3.08.73-5.14-.2-.57-.29-.86-.49-1.43-2.43,3.52-3.64,5.28-6.07,8.81-.29.01-.44.02-.73.04-.1.29-.15.44-.25.74-1.65,2.71-2.48,4.07-4.12,6.76-2.71,3.07-4.07,4.59-6.79,7.65-2.04,2.93-3.05,4.39-5.09,7.32-2.14,2.16-3.2,3.24-5.34,5.4-1.46,2.67-3.17,5.03-5.1,7.08-1.94,1.48-2.91,2.21-4.85,3.69-1.16,1.61-1.74,2.42-2.91,4.04-2.14.8-3.2,1.21-5.34,2.01-.87,1.12-1.31,1.68-2.18,2.8-2.14.52-3.2.77-5.34,1.29-1.75,1.17-2.63,1.76-4.37,2.94-.29.02-.44.03-.73.04l-.49.99c-3.01-.21-4.51-.31-7.52-.51-3.59-2.31-5.39-3.46-8.98-5.77-2.43-2.61-3.97-5.49-4.61-8.7.33-.18.64-.48.97-.91.32-.41.57-.71.73-.9-.16-.14-1.06-.5-2.68-1.05-.87-1.89-1.31-2.83-2.18-4.72.49-.71.73-1.06,1.21-1.77-.49-1.14-.73-1.71-1.21-2.84.49-1.39.73-2.08,1.21-3.46-.2-1.74-.29-2.61-.49-4.35.68-2.85,1.02-4.28,1.7-7.13v-7.52c.68-.92,1.02-1.38,1.7-2.3v-5.09c.68-1.3,1.02-1.96,1.7-3.25.19-1.47.29-2.2.47-3.68.2-.2.29-.3.49-.5v-3.17c.97-1.61,1.46-2.41,2.43-4.02.2-1.37.29-2.06.49-3.43.58-1.01.87-1.51,1.45-2.52.3-.6.44-.9.74-1.5.39-2.35.58-3.53.97-5.88.68-2.08,1.02-3.13,1.7-5.2.48-.52.73-.77,1.21-1.29.2-1.27.29-1.91.49-3.18,1.26-1.44,1.89-2.15,3.15-3.58.33-.83,1.05-2.58,2.19-5.23,2.42-1.21,3.64-1.81,6.07-3.03,1.56-1.74,2.33-2.61,3.88-4.35,4.47-1.53,6.69-2.3,11.16-3.82,1.78-.11,3.15-.27,4.12-.48.68.35,1.02.52,1.7.88.2-.8.3-1.19.49-1.98,2.23-.32,3.35-.47,5.58-.8.78.25,1.17.37,1.94.62.68-.14,1.02-.2,1.7-.35.58.46.88.68,1.46,1.14,1.84,0,2.76,0,4.6,0,.39-.31.58-.47.98-.78.49.36.73.54,1.21.9.97.05,1.46.07,2.43.11v1.69c.39.27.58.41.97.69,1.94.28,2.91.42,4.85.7,1.46,1.57,2.18,2.36,3.64,3.94,1.94,1.35,2.91,2.03,4.85,3.39.49.94.73,1.41,1.22,2.36.09.1.14.13.24.23.39-1.38.58-2.07.97-3.45.58-1.29.87-1.94,1.45-3.23-.19-2.23-.29-3.34-.48-5.57.39-4.09.58-6.15.96-10.24-.58-1.52-.87-2.28-1.45-3.81.78-1.21,1.16-1.8,1.94-3.01-.39-1.04-.58-1.57-.97-2.61.29-2.74.44-4.11.74-6.84l-.85-5.77c-1.02-.63-1.53-.94-2.55-1.57,1.55-1.63,2.33-2.45,3.87-4.09v-2.66c0-2.75-1.06-5.7-3.15-8.82.58-.03.88-.04,1.46-.07,1.07-1.6,1.6-2.41,2.67-4.02,2.43-.6,4.61-.95,6.55-1.05,2.27-.11,4.24.61,5.58,1.18,2.1.91,3.88,4.52,3.88,11.47-.49.03-.73.04-1.21.06-.1.4-.15.59-.25.99.87.74,1.31,1.1,2.19,1.84-.59,1.58-.87,2.36-1.45,3.95.87,1.81,1.31,2.7,2.18,4.51-.49.6-.73.91-1.21,1.51.49,1.11.73,2.23.73,3.37s-.24,2.35-.73,3.67c.49.56.73.84,1.21,1.41.33.63.49,1.67.49,3.13,0,1.78-.41,3.41-1.21,4.91-.82,10.22-1.54,16.57-2.19,19.03.16.47.25,1.21.25,2.17,0,1.31-.25,2.69-.73,4.16v1.46c0,1.94-.36,4.13-1.05,6.6-.32,2.93-.48,4.39-.8,7.32-.53.8-.79,1.2-1.31,2,.39.85.59,1.28.97,2.14-.39,1.47-.58,2.21-.97,3.68.39,1.24.59,1.87.97,3.11-.78,3.04-1.16,4.56-1.94,7.61.39,2.22.58,3.33.96,5.55v3.15c.12,1.94.17,2.9.3,4.84.29,1.13.43,2.17.43,3.14,0,.81-.24,1.47-.73,1.98.78.54,1.17.81,1.95,1.36-.78,1.97-1.17,2.97-1.95,4.94.78,2,1.17,3,1.95,5-.3.59-.44.9-.74,1.49.3.57.44.86.74,1.42-.3.6-.44.9-.74,1.49.3.27.44.41.74.69.87.74,1.3,1.11,2.18,1.85,1.65.12,2.48.17,4.12.29,2.53.96,3.79,1.43,6.31,2.39"/>
  <path class="cls-1" d="M1187.8,474.53c-1.16,1.35-1.75,2.03-2.91,3.4-1.07,2.53-1.6,3.78-2.67,6.32-.78.58-1.17.87-1.95,1.46-.68,1.36-1.02,2.04-1.7,3.41-1.94.2-2.91.31-4.85.51-1.26,1.27-1.89,1.91-3.15,3.18-1.94.01-2.91.03-4.85.05-1.16.98-1.75,1.47-2.91,2.46-1.07-.28-1.6-.42-2.67-.69-1.27.31-1.9.46-3.16.77v1.94c-3.59-.24-5.39-.35-8.98-.57-1.55.03-2.33.04-3.88.07-1.16.71-1.75,1.06-2.91,1.77-.97-.56-1.46-.84-2.43-1.4,1.61-.21,2.91-.32,3.88-.33-1.29.15-5.17.47-11.65,1-.29-.14-.43-.2-.72-.34-.78-.13-1.17-.19-1.94-.31-1.26.71-1.9,1.07-3.16,1.79-.97-.38-2.92-1-5.34-1.24-3.29-.32-5.9-.13-7.02-.09-.78.03-1.17.04-1.95.07-1.13-.45-2.34-.64-3.64-.6-1.29.05-2.58.33-3.88.86-1.36-.81-2.04-1.22-3.4-2.04-.77-.16-1.16-.24-1.94-.4-.49.01-1.38-.19-2.67-.63-5.99-.4-8.98-5.24-8.98-14.54v-2.15c1.85-1.42,2.77-2.13,4.62-3.55,2.33-.97,3.5-1.44,5.82-2.4,1.74.81,2.62,1.22,4.37,2.02,1.36-.04,2.04-.07,3.4-.12v.73c1.61.59,2.92,1.83,3.88,3.74.78.08,1.17.11,1.95.19v3.15c1.26.24,1.89.37,3.15.62.29.18.44.28.73.47,12.42-1.18,18.64-1.74,31.06-2.77,3.01-.55,4.52-.81,7.52-1.35.29,0,.44-.01.73-.02.19-.49.29-.73.49-1.22,1.35-.21,2.03-.33,3.39-.54.19-.3.29-.44.49-.74,3.4-.53,6.55-1.55,9.47-3.03.09-.49.14-.73.24-1.22-.16-.15-.49-.73-.96-1.69-.49.1-.73.15-1.21.25-1.27-.95-1.9-1.43-3.17-2.38-.87.01-1.3.02-2.18.03-.49-.68-.73-1.01-1.21-1.68.29-.39.43-.59.72-.97-1.07.21-1.6.31-2.67.53-.77-.77-1.16-1.15-1.94-1.92-.49.01-1.29.02-2.43.04-2.11.04-4.21-.32-6.3-1.09-.87.01-1.31.03-2.19.04-.68-.28-1.02-.41-1.7-.69-1.36.51-2.04.77-3.4,1.29-.77-.85-1.16-1.29-1.94-2.14-.29,0-.43,0-.73.02-1.36-1.03-2.04-1.55-3.4-2.58-3-1.09-4.51-1.63-7.51-2.71-.97-.75-1.46-1.12-2.43-1.87-3.69-.57-5.54-.85-9.23-1.41-.39-.67-.58-1.01-.96-1.67-2.72-1.66-4.08-2.48-6.8-4.13-1.46-3.15-2.18-4.73-3.64-7.87-1.17-1.61-1.75-2.42-2.91-4.02-.39-5.04-.58-7.55-.97-12.59.39-.6.58-.9.97-1.5.33-3.73,1.62-7.01,3.88-9.85,2.43-1.38,3.64-3.28,3.64-5.71,1.46-.35,2.18-.53,3.64-.87.64-1.31,1.94-2.57,3.88-3.77,1.46-1.21,2.19-1.82,3.65-3.03,6.12-2.51,9.17-3.77,15.28-6.25,1.07-.32,1.61-.48,2.68-.8,1.94-.24,2.91-.35,4.85-.59,3.2-.95,4.79-1.42,8-2.35,6.11.27,9.18.42,15.29.74.19.48.29.72.47,1.21,1.46.46,3.08,1.75,4.85,3.83v1.21c1.56.96,2.33,1.43,3.89,2.39-.68,2.34-1.03,3.51-1.7,5.84-.2.87-.29,1.31-.49,2.19-.97,4.05-3.23,6.09-6.79,6.13-2.91.03-5.1-1.3-6.55-4.03v-.73c-1.13.02-1.7.03-2.83.05-1.37.4-2.05.6-3.41,1-1.27-.94-1.91-1.42-3.17-2.35-.69.52-1.03.77-1.71,1.3-2.11.04-4.06.75-5.85,2.14-2.44.05-4.79,1.12-7.08,3.2-1.27,0-1.9.01-3.17.01-.88.6-1.31.9-2.19,1.5-1.36.34-2.04.5-3.39.84-.2.19-.29.3-.49.5-.57.3-.86.46-1.44.77-.87.9-1.31,1.35-2.18,2.25-.29.11-.43.16-.73.27-.87,1.38-1.31,2.08-2.17,3.47-1.06.61-1.6.92-2.65,1.54-.64,2.13-1.19,4.05-1.21,5.39-.04,2.07.45,3.77.85,4.47.4.71,1.5,1.46,3.28,2.22v1.21c1.26.64,1.9.97,3.16,1.61,2.58.9,4.54,1.9,5.83,3,1.94-.07,2.91-.09,4.85-.15,1.23,1.08,1.85,1.61,3.08,2.7,2.24.23,3.35.35,5.59.58.87.57,1.31.84,2.19,1.4,3.78.98,5.68,1.47,9.46,2.46.49,1.04.73,1.57,1.21,2.62.39-.68.59-1.03.98-1.72,2.11-.03,4.94.91,8.5,2.8,1.75.27,2.63.41,4.38.68l.49,1.7c1.55-.02,2.33-.02,3.88-.04,2.73,1.54,4.09,2.31,6.81,3.85.81,2.1,2.6,4.02,5.34,5.8,1.07.68,1.6,1.01,2.67,1.7-.29,1.17-.44,1.74-.73,2.91,1.13,1.62,1.7,3.32,1.7,5.1v.73Z"/>
</svg>