<?xml version="1.0" encoding="UTF-8"?>
<svg id="Artwork" xmlns="http://www.w3.org/2000/svg" viewBox="0 0 1470 700">
  <defs>
    <style>
      .cls-1 {
        fill: #1d1d1b;
      }
    </style>
  </defs>
  <path class="cls-1" d="M462.84,402.12h-.03c-.06-.18-.09-.37-.12-.55.09.18.12.37.15.55Z"/>
  <path class="cls-1" d="M959.16,305.69h-19.55c-2.54,0-4.6,2.06-4.6,4.6v148.83c0,2.53,2.07,4.61,4.61,4.61h19.55c2.54,0,4.6-2.06,4.6-4.6v-148.83c0-2.53-2.07-4.61-4.61-4.61Z"/>
  <path class="cls-1" d="M940.14,235.82h18.5c2.65,0,4.8,2.15,4.8,4.8v18.5c0,2.65-2.15,4.8-4.8,4.8h-18.5c-2.65,0-4.81-2.15-4.81-4.81v-18.5c0-2.65,2.15-4.81,4.81-4.81Z"/>
  <path class="cls-1" d="M1111.84,354.75c-9.6,35.27-1.63,64.8,23.68,87.76,25.26,22.93,70.97,28.03,104.06,11.57,13.99-6.96,24.5-16.44,32.13-28.98l.1-.25c.45-1.22-.1-2.61-1.29-3.23l-5.92-3.02c-3.52-1.35-7.34-2.8-11.19-4.17-3.47-1.24-4.39-1.39-5.77-.25l-.62.59c-17.77,21.6-42.17,28.3-72.43,19.91-19.94-5.54-35.2-27.46-34.02-48.87l.16-2.99h137.22c.9-15.68-1.92-29.72-8.59-42.84-14.07-27.73-42.31-43.84-74.81-43.84-6.11,0-12.37.57-18.72,1.74-33.42,6.16-55.54,25.82-63.98,56.85ZM1142.62,359.07c5.18-22.59,26.11-38.33,50.94-38.33h.26c25.19.13,45.65,15.53,50.91,38.33l.9,3.88h-103.9l.89-3.88Z"/>
  <path class="cls-1" d="M622.53,460.64c0,.28.04.57.11.78l.16.5c.28.61.74,1.11,1.33,1.41.5.27,1,.4,1.49.4h23.27c.48,0,.98-.13,1.41-.36.85-.45,1.44-1.2,1.63-2.04l.07-21.18-.12-55.59c.02-10.14,1.11-25.08,10.24-37.93,10.36-14.59,25.84-20.6,46.05-17.93,16.44,2.2,27.88,12.58,32.21,29.22,1.77,6.8,2.65,14.45,2.76,24.08l.02,2.84-.18.99v74.8c0,.28.04.56.11.78l.16.5c.28.61.74,1.11,1.32,1.41.5.27,1.01.4,1.49.4h23.27c.48,0,.99-.13,1.42-.37.84-.43,1.43-1.19,1.62-2.03l.78-90.87c.63-21.86,12.53-36.35,33.51-40.86,16.07-3.45,29.85-1.37,39.84,5.98,9.55,7.03,15.1,18.28,16.49,33.45.49,5.37.53,10.81.53,15.48l-.1,76.12c0,.28.04.56.11.78l.16.5c.28.61.74,1.11,1.32,1.41.5.27,1,.4,1.49.4h23.27c.48,0,.98-.13,1.41-.36.85-.44,1.44-1.2,1.63-2.04l-.08-76.86-1.12-25.41c-2.28-35.45-27.01-57.95-62.13-56.99-21.09.5-38.56,11.03-53.42,32.2-1.03,1.44-2.09,2.82-3.29,4.41l-5.71,7.57-1.71-6.08c-5.79-20.68-23.4-35.19-45.94-37.85-12.48-1.47-25.41,1.26-36.31,7.47-12.16,6.93-27.24,18.55-31.67,32.39l-.31-34.37c-.01-1.41-1.16-2.55-2.57-2.56l-23.47-.05c-1.43,0-2.59,1.15-2.59,2.58v152.87Z"/>
  <path class="cls-1" d="M1028.6,235.82c-3.43,0-6.22,2.78-6.22,6.22v18.84c-.01,53.18-.02,106.36.04,159.55,0,4.03.28,8.37.91,14.05,1.47,13.35,10.33,23.79,22.58,26.6,7.58,1.73,15.75,2.16,23.47,2.45l1.35.2h21.7c1.72,0,3.11-1.39,3.11-3.11v-19.03c0-1.71-1.39-3.1-3.11-3.1l-28.22.17c-3.12,0-7.05-.22-9.69-2.85-2.63-2.61-2.95-6.46-2.91-9.89.24-22.42.2-44.86.16-67.29l-.05-47.66c-.02-20.96-.05-47.05.08-68.92.02-3.45-2.77-6.24-6.22-6.24h-16.98Z"/>
  <path class="cls-1" d="M448.74,414.92c3.25,20.1,13.09,33.57,29.26,40.04,29.33,11.74,59.9,11.68,90.87-.2,14.92-5.73,23.26-17.43,24.11-33.82.82-15.78-5.57-27.4-19-34.53-8.43-4.52-17.93-8.47-29.9-12.46-7.8-2.59-15.7-4.85-23.61-7.12-7.71-2.2-15.41-4.42-23.03-6.92-9.95-3.26-15.1-10.38-14.1-19.55,1.94-18.44,29.71-21.45,45.82-20.27,4.43.33,8.67,1.17,12.6,2.53,4.09,1.42,7.8,3.39,11.03,5.85,3.38,2.56,6.23,5.68,8.46,9.26,1.15,1.85,2.14,3.84,2.95,5.9.78,2.01,1.46,4.07,1.95,6.16.15.64.58,1.14,1.27,1.48.63.33,1.31.35,2.01.17l20.18-6.24c1.79-.54,1.84-1.12,1.88-1.59.11-.7-.05-1.64-.16-2.33l-.14-.87c-.18-1.23-.41-2.45-.72-3.65-1.03-4.05-2.65-7.99-4.83-11.73-2.2-3.76-4.84-7.13-7.88-10.03-3.13-3-6.57-5.38-10.22-7.09-21.7-10.2-67.99-15.74-94.88.89-11.95,7.38-18.32,18.28-18.92,32.38-.65,15.27,6.21,27.12,19.86,34.28,9.67,5.07,20.44,8.66,30.87,12.13l3.49,1.16c6.05,2.04,12.19,3.8,18.32,5.56,7.66,2.2,15.59,4.49,23.26,7.29,9.81,3.59,14.83,10.84,13.76,19.88-1.07,9.02-7.18,14.99-17.22,16.8-9.82,1.77-19.32,2.63-28.09,2.5-24.38-.36-38.02-10.64-42.94-32.33l-.17-.87c-.09-.27-.5-.83-1.09-1.21-.48-.32-.99-.47-1.53-.47-.16,0-.32.02-.48.04l-20.43,3.57c-2.66.46-2.71,1.18-2.79,2.1l.03.22-.05,1.24c.05.72.1,1.24.2,1.85Z"/>
  <g>
    <path class="cls-1" d="M301.6,400.27c.61-1.29,1.17-2.64,1.65-3.98-15.68,5.78-33.67,3.63-49.28-1.17-20.25-6.27-37.95-20.89-52.76-35.65-.33-.33-.66-.66-.96-.99-.05-.03-.08-.05-.1-.1,0,0-.08-.08-.1-.1-1.16-1.17-1.84-2.12-3.33-2.65-8.47,32.55,14.22,79.4,51.18,79.4,13.12,0,25.22-4.29,34.99-11.54,8.07-5.96,14.56-13.96,18.7-23.22Z"/>
    <path class="cls-1" d="M272.07,380.87c3.19-.28,6.38-.69,9.57-.79-3.12-2.14-6.12-4.89-8.24-8.05-2.71-4.06-6.02-7.55-8.24-12.01-2.42-4.87-4.06-10.11-5.3-15.4-2.31-9.89-3.33-20.21-3.14-30.37.04-2.56.14-5.06.23-7.53.38-10.09.74-19.61-2.17-30.15-5.24-18.97-19.41-38.09-39.81-40.5v-.25h-14.21c-4.56,0-8.26,3.72-8.26,8.25l-.62,57.16c0,.58,0,1.16.02,1.73.47,22.11,10.32,43.36,26.81,58.09,8.09,7.23,17.63,12.8,27.92,16.26,5.28,1.77,10.75,2.99,16.28,3.63,3.03.35,6.09.2,9.16-.08Z"/>
    <path class="cls-1" d="M376.6,245.13c0-5.13-4.16-9.3-9.27-9.3h-45.01c-5.13,0-9.3,4.17-9.3,9.28l-.98,129.09c-.23,13.32-1.33,27.6-7.81,41.73-.34.73-.68,1.46-1.04,2.17-2.28,4.56-5.13,9.18-8.47,13.72-2.33,3.16-4.9,6.02-7.61,9.05-.98,1.09-1.95,2.17-2.92,3.27-5.41,6.17-12.52,12.78-20.11,16.09.8-.35,4.9,1.6,5.92,1.85,2.27.56,4.59.98,6.92,1.23,3.74.41,7.61.59,11.33.81,8.18.48,17.43-1.73,25.1-4.39,12.68-4.4,24.55-11.62,34.33-20.91,18.86-17.9,29.67-43.07,29.67-69.08l-.74-124.61Z"/>
  </g>
  <path class="cls-1" d="M414.66,434.91h-15.63c-3.63,0-6.56,2.94-6.56,6.56v15.62c0,3.63,2.94,6.57,6.57,6.57h15.62c3.63,0,6.57-2.94,6.57-6.57v-15.62c0-3.63-2.94-6.56-6.56-6.56Z"/>
</svg>