<?xml version="1.0" encoding="UTF-8"?>
<svg id="Artwork" xmlns="http://www.w3.org/2000/svg" viewBox="0 0 1616.59 1500">
  <defs>
    <style>
      .cls-1 {
        fill: #1d1d1b;
      }
    </style>
  </defs>
  <path class="cls-1" d="M847.75,866.82c1.42-3.01,2.71-6.14,3.83-9.26-36.43,13.45-78.21,8.43-114.47-2.71-47.04-14.56-88.14-48.55-122.53-82.87-.77-.76-1.53-1.53-2.24-2.29-.12-.06-.17-.12-.23-.23,0,0-.18-.18-.23-.23-2.71-2.71-4.26-4.93-7.74-6.15-19.66,75.66,33.04,184.54,118.89,184.54,30.47,0,58.58-9.97,81.27-26.83,18.74-13.86,33.83-32.44,43.43-53.96"/>
  <path class="cls-1" d="M779.17,821.74c7.4-.65,14.83-1.6,22.23-1.85-7.25-4.96-14.23-11.35-19.12-18.71-6.29-9.43-13.98-17.55-19.14-27.92-5.63-11.31-9.44-23.5-12.3-35.78-5.37-23-7.73-46.98-7.31-70.58.1-5.94.33-11.77.55-17.51.88-23.44,1.72-45.59-5.05-70.08-12.17-44.08-45.09-88.54-92.47-94.12v-.59h-33c-10.58,0-19.19,8.64-19.19,19.18l-1.44,132.85c0,1.34.02,2.69.04,4.02,1.1,51.39,23.98,100.78,62.27,135.02,18.79,16.81,40.95,29.76,64.84,37.79,12.26,4.13,24.96,6.95,37.82,8.42,7.04.81,14.15.46,21.28-.17"/>
  <path class="cls-1" d="M1021.95,506.24c0-11.92-9.66-21.63-21.54-21.63h-104.54c-11.9,0-21.6,9.69-21.61,21.56l-2.28,300.04c-.53,30.97-3.1,64.15-18.14,96.99-.78,1.7-1.59,3.38-2.41,5.04-5.3,10.6-11.91,21.34-19.67,31.89-5.41,7.34-11.37,13.99-17.69,21.03-2.26,2.52-4.54,5.05-6.78,7.61-12.57,14.34-29.08,29.71-46.71,37.39,1.85-.81,11.39,3.71,13.75,4.3,5.28,1.32,10.66,2.27,16.07,2.87,8.69.95,17.67,1.37,26.32,1.88,18.99,1.11,40.47-4.02,58.29-10.2,29.44-10.22,57.02-27.01,79.74-48.59,43.79-41.6,68.91-100.1,68.91-160.55l-1.72-289.63Z"/>
  <path class="cls-1" d="M437.32,432.71l-37.59-36.29,8.26-8.57,37.51,36.21c8.73,8.43,18.25,6.38,24.76-.37,6.5-6.73,8.29-16.42-.45-24.85l-37.51-36.2,8.26-8.57,37.6,36.29c13.14,12.68,11.24,29.82.24,41.21-10.99,11.41-27.95,13.84-41.09,1.15"/>
  <path class="cls-1" d="M502.14,375.62l9.54-6.96c4.21,5.38,13.23,6.96,21.28,1.09,7.66-5.59,8.6-13.73,4.72-19.06-4.16-5.71-11.28-4.67-17.54-2.25l-9.72,3.94c-16.27,6.57-24.44.08-28.33-5.26-8.25-11.31-3.76-26.19,7.63-34.51,11.59-8.46,25.98-7.78,34.56,4l-9.52,6.95c-4.44-6.08-12.28-6.8-18.9-1.96-6.08,4.43-8.57,12.41-4.27,18.31,1.49,2.05,5.22,5.79,14.93,2l9.76-3.7c12.97-5.01,23.8-4.47,30.69,4.97,7.85,10.76,5.4,25.87-7.59,35.36-13.74,10.02-29.66,7.45-37.22-2.93"/>
  <polygon class="cls-1" points="663.36 310.81 652.6 315.65 622.51 265.74 620.94 320.21 611.66 324.38 569.76 289.42 586.98 345.1 576.22 349.92 552.48 273.2 562.18 268.84 610.65 309.99 612.19 246.4 621.91 242.04 663.36 310.81"/>
  <polygon class="cls-1" points="688.32 305.75 668.68 228.55 680.22 225.6 699.86 302.81 688.32 305.75"/>
  <polygon class="cls-1" points="719.62 217.25 729.94 296.28 773.51 290.58 772.1 279.8 740.35 283.95 731.43 215.7 719.62 217.25"/>
  <polygon class="cls-1" points="796.66 209.98 795.25 289.61 843.99 290.49 844.17 279.61 807.22 278.95 807.63 256.19 838.93 256.74 839.12 245.76 807.82 245.21 808.25 221.05 844.17 221.69 844.37 210.83 796.66 209.98"/>
  <path class="cls-1" d="M978.96,279.36c4.71-15.75-3.05-32.57-18.67-37.25-15.51-4.65-31.13,5.17-35.85,20.91-4.69,15.63,3.04,32.2,18.54,36.85,15.63,4.69,31.29-4.87,35.98-20.51M913.03,259.59c6.51-21.73,28.73-34.64,50.45-28.13,21.83,6.55,33.4,29.6,26.89,51.33-6.47,21.62-28.75,34.27-50.57,27.72-21.72-6.51-33.25-29.31-26.77-50.92"/>
  <path class="cls-1" d="M1043.61,276.26l-13.41,25.31,13.77,7.31c9.69,5.14,16.42,2.05,20.38-5.4,3.89-7.34,2.31-14.99-4.51-18.6l-16.22-8.6ZM1037.44,350.78l-4.15-35.8-7.96-4.23-13.9,26.23-10.5-5.57,37.26-70.33,26.82,14.24c15.41,8.17,15.72,22.6,9.84,33.72-5.36,10.09-17.1,17.46-29.43,12.36l4.56,36.02-12.53-6.66Z"/>
  <polygon class="cls-1" points="1157.91 337.97 1151.33 346.62 1132.48 332.28 1090.85 387.04 1081.38 379.83 1122.99 325.07 1104.14 310.71 1110.72 302.05 1157.91 337.97"/>
  <polygon class="cls-1" points="1217.36 397.59 1225.45 406.34 1166.93 460.44 1158.84 451.69 1183.98 428.44 1159.04 401.42 1133.88 424.66 1125.81 415.91 1184.34 361.8 1192.41 370.56 1166.93 394.12 1191.89 421.15 1217.36 397.59"/>
  <path class="cls-1" d="M1251.25,517.12c14.05-8.47,19.62-26.14,11.2-40.12-8.35-13.87-26.5-17.12-40.56-8.64-13.97,8.42-19.39,25.87-11.04,39.74,8.42,13.98,26.43,17.44,40.4,9.01M1215.75,458.16c19.41-11.7,44.53-6.3,56.22,13.12,11.76,19.53,4.84,44.35-14.58,56.06-19.3,11.63-44.29,6.03-56.04-13.5-11.69-19.43-4.91-44.04,14.4-55.68"/>
  <path class="cls-1" d="M1252.99,595.43c5.23,15.06,19.8,18.67,35.07,13.37,15.27-5.32,24.79-17.3,19.56-32.37l-6.27-18-54.62,19,6.25,18ZM1317.86,572.87c7.47,21.49-4.52,39.74-25.89,47.17-21.27,7.4-41.77.46-49.23-21.03l-10.16-29.24,75.13-26.13,10.16,29.24Z"/>
  <path class="cls-1" d="M1307.22,715.03c16.28-2.04,28.51-15.93,26.47-32.1-2.01-16.07-17.27-26.38-33.55-24.33-16.16,2.03-28.18,15.77-26.16,31.83,2.03,16.18,17.08,26.63,33.24,24.6M1298.65,646.79c22.46-2.83,43.22,12.28,46.05,34.76,2.84,22.6-13.53,42.47-35.99,45.29-22.35,2.81-42.89-12.43-45.73-35.03-2.83-22.47,13.33-42.22,35.67-45.02"/>
  <polygon class="cls-1" points="1268.04 767.64 1325.88 771.93 1265.48 802.34 1264.65 813.52 1344.03 819.41 1344.91 807.53 1287.54 803.28 1347.44 773.17 1348.29 761.65 1268.92 755.77 1268.04 767.64"/>
  <polygon class="cls-1" points="1323.74 911.99 1313.22 909.3 1319.06 886.33 1252.43 869.36 1255.37 857.82 1322 874.79 1327.84 851.83 1338.36 854.5 1323.74 911.99"/>
  <rect class="cls-1" x="1267.26" y="893.46" width="11.91" height="79.65" transform="translate(-61.52 1776.24) rotate(-68.52)"/>
  <polygon class="cls-1" points="1225.63 968.02 1207.76 1000.4 1198.25 995.14 1221.82 952.46 1291.48 990.95 1268.42 1032.73 1258.92 1027.48 1276.28 996.02 1255.15 984.34 1240.02 1011.75 1230.4 1006.45 1245.54 979.03 1225.63 968.02"/>
  <path class="cls-1" d="M1181.2,1065.04l37.86,36.02-8.21,8.63-37.77-35.94c-8.8-8.37-18.31-6.25-24.76.55-6.45,6.78-8.17,16.47.63,24.85l37.77,35.94-8.2,8.63-37.86-36.02c-13.24-12.59-11.46-29.73-.55-41.21,10.91-11.49,27.86-14.04,41.09-1.45"/>
  <path class="cls-1" d="M1116.71,1122.47l-9.47,7.02c-4.24-5.35-13.27-6.87-21.27-.95-7.61,5.65-8.49,13.78-4.57,19.08,4.19,5.66,11.29,4.57,17.53,2.11l9.69-4.01c16.2-6.68,24.41-.24,28.33,5.06,8.32,11.24,3.95,26.14-7.38,34.53-11.52,8.53-25.89,7.96-34.56-3.75l9.48-7.02c4.47,6.04,12.3,6.72,18.89,1.83,6.04-4.47,8.47-12.46,4.13-18.31-1.51-2.04-5.26-5.75-14.91-1.9l-9.73,3.77c-12.9,5.1-23.74,4.64-30.69-4.75-7.91-10.68-5.58-25.8,7.33-35.36,13.65-10.12,29.56-7.66,37.2,2.65"/>
  <polygon class="cls-1" points="956.45 1188.3 967.15 1183.38 997.65 1232.94 998.72 1178.53 1007.96 1174.29 1050.11 1208.82 1032.42 1153.39 1043.12 1148.47 1067.52 1224.85 1057.85 1229.29 1009.08 1188.65 1008.13 1252.15 998.47 1256.59 956.45 1188.3"/>
  <polygon class="cls-1" points="931.02 1193.5 951.27 1270.49 939.77 1273.52 919.51 1196.53 931.02 1193.5"/>
  <polygon class="cls-1" points="845.94 1209.25 847.43 1220.03 879.18 1215.63 888.63 1283.88 900.43 1282.24 889.5 1203.22 845.94 1209.25"/>
  <polygon class="cls-1" points="775.41 1220.47 812.37 1221.03 812.02 1243.8 780.72 1243.33 780.56 1254.3 811.86 1254.78 811.49 1278.93 775.56 1278.39 775.39 1289.25 823.1 1289.98 824.32 1210.35 775.58 1209.6 775.41 1220.47"/>
  <path class="cls-1" d="M640.73,1221.7c-4.59,15.75,3.29,32.48,18.9,37.04,15.51,4.53,31.03-5.39,35.62-21.12,4.55-15.64-3.26-32.12-18.77-36.64-15.62-4.56-31.19,5.1-35.75,20.73M706.66,1240.95c-6.34,21.74-28.41,34.78-50.12,28.44-21.83-6.37-33.55-29.28-27.21-51.01,6.31-21.62,28.43-34.41,50.27-28.04,21.71,6.34,33.39,28.99,27.07,50.61"/>
  <path class="cls-1" d="M576.1,1225.42l13.27-25.45-13.86-7.23c-9.74-5.08-16.46-1.93-20.37,5.55-3.86,7.39-2.21,15.03,4.65,18.62l16.31,8.51ZM581.77,1150.71l4.41,35.86,8,4.17,13.74-26.38,10.57,5.51-36.86,70.72-26.97-14.07c-15.49-8.09-15.92-22.54-10.09-33.73,5.31-10.16,17.02-17.62,29.4-12.59l-4.82-36.07,12.61,6.58Z"/>
  <polygon class="cls-1" points="461.1 1164.23 467.62 1155.52 486.59 1169.76 527.87 1114.64 537.4 1121.79 496.13 1176.91 515.11 1191.13 508.6 1199.84 461.1 1164.23"/>
  <polygon class="cls-1" points="401.92 1105.42 393.77 1096.73 451.88 1042.22 460.03 1050.91 435.06 1074.33 460.21 1101.17 485.17 1077.75 493.32 1086.45 435.2 1140.96 427.06 1132.26 452.36 1108.53 427.21 1081.69 401.92 1105.42"/>
  <path class="cls-1" d="M366.76,985.47c-14.02,8.57-19.48,26.28-10.99,40.21,8.44,13.84,26.62,16.97,40.64,8.41,13.92-8.5,19.24-25.98,10.81-39.81-8.5-13.94-26.54-17.3-40.46-8.8M402.6,1044.27c-19.36,11.81-44.5,6.56-56.31-12.81-11.87-19.46-5.09-44.35,14.26-56.16,19.25-11.75,44.27-6.29,56.15,13.19,11.8,19.36,5.16,44.03-14.1,55.79"/>
  <path class="cls-1" d="M364.57,907.18c-5.31-15.05-19.93-18.6-35.2-13.2-15.26,5.39-24.74,17.45-19.43,32.51l6.35,18,54.64-19.3-6.36-18.01ZM299.69,930.1c-7.58-21.49,4.34-39.81,25.71-47.36,21.27-7.52,41.84-.67,49.41,20.83l10.32,29.24-75.12,26.53-10.32-29.24Z"/>
  <path class="cls-1" d="M309.57,787.66c-16.27,2.13-28.43,16.09-26.32,32.26,2.1,16.05,17.43,26.3,33.71,24.18,16.16-2.12,28.11-15.93,26.02-31.99-2.12-16.18-17.23-26.56-33.4-24.44M318.49,855.9c-22.46,2.94-43.32-12.07-46.25-34.54-2.96-22.6,13.33-42.58,35.78-45.51,22.35-2.93,42.99,12.22,45.95,34.82,2.93,22.49-13.13,42.31-35.48,45.24"/>
  <polygon class="cls-1" points="271.45 695.81 328.82 699.76 269.09 730.16 268.29 741.69 347.67 747.16 348.49 735.29 290.66 731.29 350.87 700.59 351.65 689.41 272.27 683.93 271.45 695.81"/>
  <polygon class="cls-1" points="291.68 591.27 302.24 593.87 296.57 616.91 363.36 633.36 360.52 644.92 293.72 628.47 288.06 651.51 277.51 648.91 291.68 591.27"/>
  <rect class="cls-1" x="336.31" y="529.68" width="11.91" height="79.69" transform="translate(-312.42 683.07) rotate(-68.83)"/>
  <polygon class="cls-1" points="389.45 534.77 407.04 502.21 416.6 507.38 393.4 550.32 323.34 512.42 346.03 470.41 355.6 475.58 338.5 507.23 359.75 518.71 374.65 491.14 384.31 496.37 369.41 523.94 389.45 534.77"/>
</svg>