<svg width="77" height="77" viewBox="0 0 77 77" fill="none" xmlns="http://www.w3.org/2000/svg">
<path d="M76.3 76.35H5.16C3.79149 76.35 2.47902 75.8063 1.51133 74.8386C0.543642 73.8709 0 72.5585 0 71.1899V0H16C23.9274 -1.08794e-07 31.7772 1.56158 39.1011 4.59558C46.4249 7.62958 53.0794 12.0766 58.6845 17.6826C64.2896 23.2886 68.7355 29.9438 71.7682 37.2681C74.801 44.5925 76.3613 52.4426 76.36 60.37L76.3 76.35Z" fill="#96928E"/>
<path d="M34.9504 59.85H27.8604V36.1L22.1904 38.54V32.31L34.9504 26.23V59.85Z" fill="white"/>
<path d="M46.3406 51.8501C47.1724 51.8757 47.9783 52.1461 48.6572 52.6275C49.3361 53.1089 49.8579 53.7798 50.1573 54.5564C50.4567 55.3329 50.5203 56.1806 50.3403 56.9931C50.1602 57.8057 49.7445 58.5471 49.1451 59.1245C48.5457 59.7019 47.7893 60.0897 46.9706 60.2392C46.1519 60.3888 45.3072 60.2935 44.5424 59.9653C43.7776 59.6371 43.1266 59.0906 42.6709 58.3941C42.2152 57.6977 41.9751 56.8823 41.9806 56.05C41.9883 55.4871 42.1076 54.9314 42.3314 54.4149C42.5553 53.8984 42.8793 53.4314 43.2847 53.0409C43.6901 52.6503 44.1689 52.344 44.6934 52.1396C45.218 51.9352 45.7778 51.8368 46.3406 51.8501Z" fill="white"/>
</svg>
