<svg width="77" height="77" viewBox="0 0 77 77" fill="none" xmlns="http://www.w3.org/2000/svg">
<path d="M76.3 76.35H5.16001C4.48155 76.35 3.80975 76.2161 3.18305 75.9562C2.55636 75.6962 1.98708 75.3153 1.5078 74.8351C1.02852 74.3549 0.648643 73.7849 0.389918 73.1577C0.131192 72.5305 -0.00130516 71.8584 9.6908e-06 71.1799V8.28734e-07H16C23.927 -0.00131278 31.7765 1.55901 39.1003 4.59192C46.4241 7.62483 53.0787 12.0708 58.6839 17.676C64.2891 23.2812 68.7352 29.9358 71.7681 37.2596C74.801 44.5835 76.3613 52.433 76.36 60.36L76.3 76.35Z" fill="#96928E"/>
<path d="M22.7998 59.8199V55.97L36.4198 39.8199C37.4261 38.8125 38.0517 37.4872 38.1898 36.0699C38.1898 34.2999 36.6698 32.7799 34.0398 32.7799C31.4098 32.7799 29.7298 34.7799 29.3298 37.3899L22.8498 36.2699C23.8498 29.9499 28.1098 26 34.4398 26C40.3098 26 45.2798 30.1499 45.2798 36.0699C45.1898 39.2059 43.9432 42.1979 41.7798 44.47L34.1398 53.1299H44.3598V59.8199H22.7998Z" fill="white"/>
<path d="M54.9997 51.8701C55.8316 51.8957 56.6375 52.166 57.3164 52.6474C57.9953 53.1288 58.5171 53.7998 58.8165 54.5764C59.1159 55.353 59.1795 56.2006 58.9995 57.0132C58.8194 57.8257 58.4037 58.5671 57.8043 59.1445C57.2049 59.7219 56.4485 60.1096 55.6298 60.2591C54.811 60.4087 53.9664 60.3134 53.2016 59.9852C52.4368 59.657 51.7857 59.1105 51.33 58.414C50.8744 57.7176 50.6342 56.9023 50.6397 56.0701C50.6488 55.5076 50.769 54.9524 50.9933 54.4365C51.2176 53.9206 51.5416 53.4541 51.9468 53.0638C52.3519 52.6735 52.8302 52.3672 53.3541 52.1623C53.8781 51.9575 54.4373 51.8582 54.9997 51.8701Z" fill="white"/>
</svg>
