<svg width="77" height="77" viewBox="0 0 77 77" fill="none" xmlns="http://www.w3.org/2000/svg">
<path d="M76.35 76.3101H5.16C3.79149 76.3101 2.47902 75.7663 1.51133 74.7986C0.543642 73.8309 0 72.5184 0 71.1499V0H16C23.9274 -1.08794e-07 31.7772 1.5617 39.1011 4.5957C46.4249 7.6297 53.0794 12.0766 58.6845 17.6826C64.2896 23.2886 68.7355 29.9437 71.7682 37.2681C74.801 44.5924 76.3613 52.4427 76.36 60.3701L76.35 76.3101Z" fill="#96928E"/>
<path d="M29.8304 45.4001V39.3302H33.3304C36.7704 39.3302 36.5704 35.9401 36.5704 35.7301C36.5417 34.8672 36.1759 34.0499 35.5515 33.4535C34.9271 32.8572 34.0938 32.5293 33.2304 32.5402C32.5358 32.4985 31.843 32.6467 31.2263 32.9692C30.6097 33.2916 30.0925 33.7761 29.7304 34.3703L24.0104 30.8703C25.133 29.2 26.6845 27.8626 28.5021 26.9987C30.3197 26.1348 32.3364 25.7759 34.3404 25.9601C40.1604 26.2201 44.3404 30.5702 44.1604 35.2802C44.0922 36.6406 43.6624 37.9583 42.9153 39.0973C42.1683 40.2364 41.131 41.1555 39.9104 41.7602C41.6607 42.5029 43.142 43.763 44.1555 45.3718C45.169 46.9805 45.6662 48.8608 45.5804 50.7602C45.0204 56.4802 39.1504 60.5801 32.5204 60.1801C30.2987 60.0703 28.1466 59.3692 26.2866 58.1491C24.4266 56.929 22.9262 55.2343 21.9404 53.2402L28.1604 50.1501C28.8204 51.7701 31.1604 53.1503 33.0704 53.3403C34.159 53.432 35.2436 53.1228 36.1203 52.4709C36.9969 51.8189 37.6051 50.8692 37.8304 49.8002C37.8304 49.1402 38.3404 45.2401 33.3304 45.3901L29.8304 45.4001Z" fill="white"/>
<path d="M55.2507 51.8301C56.0821 51.8556 56.8876 52.1257 57.5663 52.6067C58.245 53.0876 58.7668 53.7579 59.0665 54.5339C59.3662 55.3099 59.4305 56.1572 59.2513 56.9695C59.072 57.7818 58.6573 58.523 58.0589 59.1008C57.4605 59.6786 56.705 60.0673 55.8869 60.218C55.0688 60.3687 54.2245 60.2749 53.4595 59.9482C52.6944 59.6215 52.0427 59.0765 51.5858 58.3813C51.1289 57.6862 50.8871 56.8719 50.8907 56.04C50.8985 55.4767 51.0176 54.9204 51.2414 54.4033C51.4651 53.8862 51.7889 53.4187 52.1942 53.0273C52.5995 52.636 53.0782 52.3288 53.6028 52.1233C54.1273 51.9178 54.6874 51.8181 55.2507 51.8301Z" fill="white"/>
</svg>
